<svg id="Layer_1" data-name="Layer 1" xmlns="http://www.w3.org/2000/svg" width="16.362" height="12" viewBox="0 0 16.362 12">
  <path id="Path_74" data-name="Path 74" d="M14.725,12H1.637A1.64,1.64,0,0,1,0,10.363V1.637A1.64,1.64,0,0,1,1.637,0H14.725a1.64,1.64,0,0,1,1.637,1.637v8.727A1.64,1.64,0,0,1,14.725,12ZM1.637,1.1a.544.544,0,0,0-.541.541v8.727a.544.544,0,0,0,.544.544H14.725a.548.548,0,0,0,.548-.544V1.637a.548.548,0,0,0-.548-.541Z" fill="#d8d8d8"/>
  <path id="Path_75" data-name="Path 75" d="M8.5,7.516a1.707,1.707,0,0,1-1.1-.405L.48,1.146,1.223.4l6.9,5.965a.576.576,0,0,0,.732,0L15.773.4l.732.746L9.612,7.111A1.7,1.7,0,0,1,8.5,7.516Z" transform="translate(-0.317 -0.264)" fill="#d8d8d8"/>
</svg>
