<?xml version="1.0" encoding="utf-8"?>
<!-- Generator: Adobe Illustrator 25.4.1, SVG Export Plug-In . SVG Version: 6.00 Build 0)  -->
<svg version="1.1" id="圖層_1" xmlns="http://www.w3.org/2000/svg" xmlns:xlink="http://www.w3.org/1999/xlink" x="0px" y="0px"
	 width="554.5px" height="255.3px" viewBox="0 0 554.5 255.3" style="enable-background:new 0 0 554.5 255.3;" xml:space="preserve"
	>
<style type="text/css">
	.st0{fill:#6473A3;}
	.st1{fill:#FFFFFF;}
	.st2{fill:#FDBF39;}
	.st3{fill:#485482;}
	.st4{fill:#79BF73;}
</style>
<g>
	<g>
		<g>
			<path class="st0" d="M29.9,109.1H19.1c-4.4,0-8-3.6-8-8V52.3c-3.5-0.8-6.1-4-6.1-7.8v-8.4c0-3.1,1.8-5.9,4.7-7.3
				c0.9-0.4,1.6-1.2,2-2.4l5-15.8c0.7-2.5,3.1-4.3,5.7-4.3h17.2c3.6,0,5.6,2.7,5.6,5.2c0,1-0.3,1.8-0.6,2.3l-0.2,0.8h12.8v-0.7
				c0-4.4,3.6-8,8-8h13.5c4.4,0,8,3.6,8,8v0.7h14.8c4.4,0,8,3.6,8,8v7.1c0,4.4-3.6,8-8,8H86.1v9.8h14.3c4.4,0,8,3.6,8,8v9.1
				c0,4.4-3.6,8-8,8H86.1v11.7h17c4.4,0,8,3.6,8,8v7.7c0,4.4-3.6,8-8,8H42.6c-2.4,0-4.5-1-5.9-2.6C35.2,107.6,32.8,109.1,29.9,109.1
				z M20.9,99.2h7.1V36.8c0-0.9,0.2-1.8,0.3-2.4c0-0.1,0.1-0.3,0.1-0.4l5.1-17.7h-8.4L21,29.5c0,0,0,0.1,0,0.1
				c-1.2,3.4-3.3,6-6.2,7.6v5.6c3.5,0.8,6.1,4,6.1,7.8V99.2z M44.5,98.2h56.8v-4h-17c-4.4,0-8-3.6-8-8V70.8c0-4.4,3.6-8,8-8h14.3
				v-5.3H84.2c-4.4,0-8-3.6-8-8V35.9c0-4.4,3.6-8,8-8h15.3v-3.3H84.7c-4.4,0-8-3.6-8-8V16H67v0.7c0,4.4-3.6,8-8,8H46v3.3h13
				c4.4,0,8,3.6,8,8v13.5c0,4.4-3.6,8-8,8H47.2v5.3H59c4.4,0,8,3.6,8,8v15.4c0,4.4-3.6,8-8,8H44.5V98.2z M37.9,67.6v18.2
				c1.3-1,2.9-1.5,4.7-1.5h14.5V72.7H45.3C42,72.7,39.1,70.6,37.9,67.6z M37.9,36.9v15.7c1.2-2.9,4.1-5,7.4-5h11.8v-9.8h-13
				c-2.3,0-4.3-0.9-5.8-2.5L38,36.5C38,36.6,37.9,36.8,37.9,36.9z M101.4,24.6L101.4,24.6L101.4,24.6z M26.2,13.3
				C26.2,13.3,26.2,13.3,26.2,13.3C26.2,13.3,26.2,13.3,26.2,13.3z"/>
		</g>
	</g>
	<g>
		<g>
			<path class="st0" d="M251.4,109C251.4,109,251.4,109,251.4,109c-4,0-7.5-2.1-10-4c-2.6,2.4-5.4,3.6-8.4,3.6h-9.9
				c-1.8,0-3.4-0.7-4.7-1.9c-1.2-1.3-1.9-2.9-1.9-4.7l0.1-8.9c0-1.1,0.4-2.2,1.1-3.1l1.3-1.6c0.5-0.6,1.2-1.1,1.9-1.4V67.8
				c-2.2-1.1-3.7-3.3-3.7-5.9v-9.3c0-2.1,1-4,2.5-5.2c-0.1-0.4-0.1-0.8-0.1-1.2V33.7c0-1.4,0.4-2.7,1.2-3.7
				c-0.7-1.1-1.2-2.3-1.2-3.7v-12c0-3.6,2.9-6.5,6.5-6.5h12.9c1.3,0,2.6,0.4,3.6,1.1c1.1-0.9,2.6-1.5,4.2-1.5h29.7
				c1.3,0,2.6,0.4,3.6,1.1c1-0.7,2.3-1.1,3.6-1.1h29.7c3.6,0,6.5,2.9,6.5,6.5v13.3c0,0.4,0,1.1-0.7,3.1c0,0.1,0,0.1-0.1,0.2
				c-0.4,1.1-1,2.1-1.6,3c1.8,1.2,3,3.2,3,5.5v6c0,1.2-0.3,2.2-0.8,3.2c0.7,1,1,2.2,1,3.5v8.6c0,1.3-0.4,2.5-1.1,3.6
				c0.7,1,1.1,2.3,1.1,3.6v7.3c0,2.1-1,4-2.5,5.2c1,1,1.7,2.3,1.8,3.8l0,0.3c0.2,1.5,0.4,3.2,0.4,4.7c0.1,1.4-0.3,2.7-1,3.9
				c0.8,1.4,1.3,3,1.3,4.7v5.1c0,3.6-2.9,6.5-6.5,6.5L251.4,109z M248.2,97.7c1.3,0.9,2.5,1.4,3.2,1.4l59.8-0.1v-1.2h-61.4
				C249.3,97.8,248.7,97.8,248.2,97.7z M226.5,98.7h6.5c0.7,0,1.8-0.9,3-2.4c1.1-1.4,2.7-2.3,4.4-2.5c-1.1-1.2-2-2.6-2.6-4.3
				c-0.6-1.3-1-3.1-1-4.1V55.9h-9.6v3.4c2.2,1.1,3.7,3.3,3.7,5.9v23.9c0,1.8-0.8,3.6-2.1,4.8c-0.7,0.6-1.4,1.2-2.2,1.6L226.5,98.7z
				 M275.8,88h10.8l-4-6.1c-0.1-0.2-0.3-0.4-0.4-0.7h-1.5c0,0,0,0,0,0c-1.3,1.8-2.5,3.5-3.7,5.1C276.5,86.9,276.1,87.4,275.8,88z
				 M222.1,86.7C222.1,86.7,222.1,86.7,222.1,86.7C222.1,86.7,222.1,86.7,222.1,86.7z M300,85.7h6c-1.3-0.7-2.3-1.5-3.2-2.4l-7.5,0
				l0.5,0.8C296.7,84.8,299.1,85.7,300,85.7z M300,85.7L300,85.7L300,85.7z M255.9,85.7h5.6c2.1,0,4.2-0.8,4.9-1.8
				c0,0,0-0.1,0.1-0.1c0.2-0.2,0.3-0.5,0.5-0.7h-7.3C258.6,84.2,257.3,85,255.9,85.7z M287,83.5L287,83.5
				C287,83.5,287,83.5,287,83.5z M252.4,71.4h58.9v-0.7c-3.4-0.3-6-3.1-6-6.5v-0.7c0-3.4,2.7-6.3,6-6.5v-2c-3.4-0.3-6-3.1-6-6.5
				v-0.3c0-2.6,1.5-4.8,3.6-5.9h-12c-3.6,0-6.5-2.9-6.5-6.5v-1.3c0-2.4,1.3-4.6,3.3-5.7c-2-1.1-3.3-3.3-3.3-5.7v-0.7
				c0-2.1,1-4,2.6-5.2h-5.6v22.5c0.1,0.2,0.2,0.5,0.2,0.6c0,0.1,0,0.1,0.1,0.2c0.5,1.1,1,1.1,1.4,1.1h2.7c3.6,0,6.5,2.9,6.5,6.5v0.3
				c0,3.6-2.9,6.5-6.5,6.5h-16.8c-3.6,0-6.5-2.9-6.5-6.5v-0.3c0-2.6,1.5-4.8,3.6-5.9h-12c-3.6,0-6.5-2.9-6.5-6.5v-0.7
				c0-2.4,1.3-4.6,3.3-5.7c-2.3-1-3.9-3.3-3.9-6v-0.8c0-2.3,1.2-4.3,2.9-5.4h-5.5v22.7c0,0.1,0,0.2,0.1,0.2c0,0.1,0.1,0.2,0.1,0.3
				c0.4,1,0.7,1.4,0.9,1.5l2.6-0.1c1.7,0,3.5,0.6,4.7,1.9c1.3,1.2,2,2.9,2,4.7c0,3.6-2.9,6.5-6.5,6.5h-1.8v2h2.4
				c3.6,0,6.5,2.9,6.5,6.5v0.7c0,3.6-2.9,6.5-6.5,6.5h-2.4V71.4z M229.7,42.9h6.3V37h-6.3V42.9z M250.4,40.2
				C250.4,40.2,250.4,40.2,250.4,40.2C250.4,40.2,250.4,40.2,250.4,40.2z M268.1,28.5h2.7c0.2-0.1,0.4-0.1,0.6-0.2
				c0.8-0.3,1.5-0.7,2-1.4v-9.8h-5.7c1.8,1.2,2.9,3.2,2.9,5.4v0.8C270.6,25.4,269.7,27.3,268.1,28.5z M306.5,27.9h2.4
				c0.9,0,1.1-0.1,1.4-0.8c0-0.1,0.1-0.3,0.1-0.5v-9.4H306c1.6,1.2,2.6,3.1,2.6,5.2v0.7C308.6,25,307.8,26.7,306.5,27.9z
				 M264.1,25.9L264.1,25.9L264.1,25.9z M302.1,25.7L302.1,25.7L302.1,25.7z M260.8,23c0.1,0.8,0.5,1.5,1,2c0.5-0.5,0.9-1.2,1-2
				c-0.1-0.8-0.5-1.5-1-2C261.2,21.5,260.9,22.2,260.8,23z M298.8,22.7c0.1,0.6,0.3,1.2,0.7,1.7c0.4-0.5,0.6-1.1,0.7-1.7
				c-0.1-0.6-0.3-1.2-0.7-1.7C299.1,21.5,298.9,22.1,298.8,22.7z M229.7,22.9h6.3v-5.3h-6.3V22.9z M291.7,70.7h-16.8
				c-3.6,0-6.5-2.9-6.5-6.5v-0.7c0-3.6,2.9-6.5,6.5-6.5h16.8c3.6,0,6.5,2.9,6.5,6.5v0.7C298.3,67.7,295.4,70.7,291.7,70.7z
				 M291.7,66.8L291.7,66.8L291.7,66.8z"/>
		</g>
	</g>
	<g>
		<g>
			<path class="st0" d="M407.8,117.8h-73.6c-4.9,0-8.9-4-8.9-8.9V73.7c0-1.6,0.4-3.1,1.1-4.4c-0.9-0.4-1.6-1-2.3-1.7
				c-1.7-1.7-2.6-3.9-2.6-6.3l0.1-8.2c0-2.7,1.3-5.2,3.4-6.9c0.5-0.4,1.6-1.6,2.7-4.5l8.9-23.3c0.8-2.2,3-3.6,5.6-3.6h62.6
				c2.4,0,4.5,1.2,5.5,3.3c0.1,0.1,0.1,0.3,0.2,0.4l9.3,23.5c0.2,0.5,1.3,1.8,2.8,2.6c2.9,1.6,4.7,4.6,4.7,7.8v8
				c0,4-2.7,7.4-6.3,8.5c0.9,1.4,1.4,3,1.4,4.7l0.1,30c0,0.3,0,1.2-0.8,3.5C419.7,113.5,414.1,117.8,407.8,117.8z M335.3,107.9h72.6
				c2.3,0,3.9-1.9,4.5-3.7c0,0,0-0.1,0-0.1c0.1-0.2,0.2-0.6,0.3-0.9l-0.1-28.5h-77.3V107.9z M412.7,102.9
				C412.7,102.9,412.7,102.9,412.7,102.9C412.7,102.9,412.7,102.9,412.7,102.9z M413.5,74.7L413.5,74.7L413.5,74.7z M346.2,64.8
				h55.7c-1.2-1.2-2.5-2.6-3.8-4.2l-49.2-0.1c-0.5,0.9-1,1.9-1.6,2.9C346.9,63.9,346.6,64.4,346.2,64.8z M331.5,60.4h2.7
				c1.7,0,4-1.1,4.5-2c0,0,0,0,0-0.1c0.9-1.5,1.7-3,2.5-4.5c0.1-0.1,0.2-0.3,0.3-0.4c1.4-2.1,4.1-2.7,5.4-2.7l51.7,0.1
				c2.7,0,5.3,1.2,6.9,3.4c3.1,3.9,4.9,5,5.6,5.3c0,0,0.1,0,0.1,0h6.3V53c-3.2-1.8-5.7-4.6-6.8-7.4l-8.3-21h-57.5L337,45.2
				c-1.4,3.8-3.2,6.6-5.5,8.5L331.5,60.4z M346,21.7C346,21.7,346,21.7,346,21.7C346,21.7,346,21.7,346,21.7z M346,21.7
				C346,21.7,346,21.7,346,21.7C346,21.7,346,21.7,346,21.7z M394.4,103.5h-40.6c-4.9,0-8.9-4-8.9-8.9v-7.5c0-4.9,4-8.9,8.9-8.9
				h40.6c4.9,0,8.9,4,8.9,8.9v7.5C403.3,99.5,399.3,103.5,394.4,103.5z M354.8,93.6h38.6v-5.6h-38.6V93.6z M394.4,48.4h-43.1
				c-2.2,0-5.4-1.6-5.4-5.9c0-0.6,0.1-1.2,0.3-1.8l3.4-8.9c0.2-0.7,0.6-1.2,1.1-1.7c1.2-1.2,2.7-1.9,4.3-1.9h35.7
				c2.5,0,4.7,1.4,5.5,3.7c0.1,0.2,0.3,0.7,0.5,1.3c2.9,7.7,3.1,8.4,3.1,9.5C399.9,46,397.5,48.4,394.4,48.4z M390.1,43.7
				L390.1,43.7L390.1,43.7z M357.7,38.5h30.5c0-0.1-0.1-0.3-0.1-0.4h-30.3L357.7,38.5z M387,35.2C387,35.2,387,35.2,387,35.2
				C387,35.2,387,35.2,387,35.2z"/>
		</g>
	</g>
	<g>
		<g>
			<path class="st0" d="M517.8,108.5h-46.2c-4.7,0-8.6-3.9-8.7-8.6l-0.1-9.1c0-1.5,0.5-2.9,1.4-4c0.8-1.8,2.7-6,4.7-10.6
				c1.7-3.9,3.8-8.6,5.5-12.3h-2.8c-1.3,0-2.6-0.3-3.8-0.9c-0.4,0.8-1,1.6-1.6,2.2c-1.7,1.6-3.8,2.5-6.2,2.5l-11.4-0.1
				c-0.7,0-1.9-0.3-3.1-0.8c-4.2-1.6-7.5-4.3-9.9-8.1c-0.1-0.2-0.2-0.4-0.3-0.6l-0.1-0.2c-0.3-0.5-0.7-1.3-1-2.1
				c-0.7-2.4-1.4-4.8-2-7.2c-0.6-2.4-1.3-4.8-2-7.1c-0.2-0.8-0.3-1.6-0.1-2.3c0.5-2.6,2.7-4.5,5.4-4.5h1.2c-1.4-1.6-2.4-3.4-3-5.3
				l-4.4-14.3c-0.2-0.8-0.3-1.6-0.1-2.4c0.5-2.6,2.8-4.5,5.4-4.5h16.7c3.9,0,5.2,2.6,5.6,3.9v0l1.7,5.3c0.2,0.1,0.7,0.1,1.4,0.2
				c1.6,0.1,3.2,0.5,4.4,1.4c0.6-4.2,4.2-7.5,8.6-7.5h10.4c0.6-4.2,4.2-7.5,8.6-7.5h10.8c4.4,0,8,3.3,8.6,7.5h10.5
				c4.8,0,8.7,3.9,8.7,8.7v8.1c0,4.8-3.9,8.7-8.7,8.7h-10.4v2.9h13.4c4.8,0,8.7,3.9,8.7,8.7v6.8c0,4.8-3.9,8.7-8.7,8.7h-18.6
				l-0.5,1.1c0.9-0.3,1.8-0.4,2.7-0.4h12.5c2.6,0,4.8,2.1,4.9,4.6l7.7,20.5c0.6,1.6,0.8,3.3,0.9,4.4c0,0.4,0,0.7,0,1
				C534.4,101.3,531.4,108.5,517.8,108.5z M472.7,98.7h45.1c6.7,0,6.9-1.7,6.9-3.5c-0.1-0.5-0.1-1.4-0.3-1.8c0,0,0-0.1,0-0.1
				l-7.1-18.8H510c1.3,4.1,2.9,9,3.6,11l0.3,0.8c0.2,0.5,0.3,1,0.3,1.6c0,2.5-1.9,5.2-5.5,5.2h-18.9c-2.7,0-4.9-2.2-4.9-4.9v-0.5
				c0-0.7,0.2-1.4,0.5-2.1l13-28.1c0.9-2.1,3-3.4,5.5-3.4h19.8v-4.4h-13.4c-4.8,0-8.7-3.9-8.7-8.7v-5.3c0-4.8,3.9-8.7,8.7-8.7h10.4
				v-5.8h-10.4c-4.4,0-8-3.3-8.6-7.5h-8.6c-0.6,4.2-4.2,7.5-8.6,7.5h-10.3v5.8h10.3c4.8,0,8.7,3.9,8.7,8.7V41c0,4.8-3.9,8.7-8.7,8.7
				h-11.7v4.4h8.7c3.5,0,5.4,2.7,5.4,5.1c0,1.1,0,1.1-3.2,8.3c-1.6,3.7-3.7,8.4-5.7,12.7c-2.1,4.8-4.1,9.1-4.8,10.8
				c-0.1,0.3-0.3,0.6-0.5,0.9L472.7,98.7z M489.8,87.7L489.8,87.7L489.8,87.7z M464.6,86.5C464.6,86.5,464.6,86.5,464.6,86.5
				C464.6,86.5,464.6,86.5,464.6,86.5z M497.3,83.3h5.2c-0.7-2.1-1.5-4.5-2.1-6.6L497.3,83.3z M507.6,61C507.6,61,507.6,61,507.6,61
				C507.6,61,507.6,61,507.6,61z M507.6,61C507.6,61,507.6,61,507.6,61C507.6,61,507.6,61,507.6,61z M450.9,58.9
				C450.9,58.9,450.9,58.9,450.9,58.9C450.9,58.9,450.9,58.9,450.9,58.9z M450.9,58.9C450.9,58.9,450.9,58.9,450.9,58.9
				C450.9,58.9,450.9,58.9,450.9,58.9z M450.9,58.9C450.9,58.9,450.9,58.9,450.9,58.9C450.9,58.9,450.9,58.9,450.9,58.9z M460.1,58
				L460.1,58L460.1,58z M449.5,57.9l9.4,0.1v-4.1c-6.6-0.5-8.1-3.5-10.2-9c0-0.1-0.1-0.1-0.1-0.2h-7.4c0.1,0.5,0.3,1,0.4,1.5
				c0.6,2.3,1.3,4.6,1.9,6.9c0,0.1,0.1,0.1,0.1,0.2c0.1,0.1,0.1,0.3,0.2,0.4l0,0.1c1.3,2,3,3.4,5.2,4.1
				C449.2,57.8,449.3,57.9,449.5,57.9z M443.7,53.4C443.7,53.4,443.7,53.4,443.7,53.4C443.7,53.4,443.7,53.4,443.7,53.4z M459,44
				c0.3,0,0.7,0.1,1.3,0.1c1.2,0,2.4,0.3,3.4,0.8c1.4-2.9,4.4-5,7.9-5h11.7v-2.9H473c-1.9,0-3.7-0.6-5.1-1.7
				c-1.2,3.4-4.4,5.9-8.2,5.9h-1.8c0,0.1,0.1,0.1,0.1,0.2C458.3,42.3,458.7,43.4,459,44z M449.3,31.4L449.3,31.4L449.3,31.4z
				 M449.1,31.3h9.4v-3.9c-6-0.6-8.4-3.9-9.3-6.7l-0.8-2.6h-7.9l2.6,8.4c0.6,1.9,2.8,3.9,5.1,4.5c0.1,0,0.1,0,0.2,0
				C448.5,31.2,448.8,31.2,449.1,31.3z M447.3,14.7C447.3,14.7,447.3,14.7,447.3,14.7C447.3,14.7,447.3,14.7,447.3,14.7z"/>
		</g>
	</g>
	<g>
		<g>
			<path class="st0" d="M120.4,235.6h-19.7c-4.7,0-11.6-0.4-16.7-3.7c-0.4-0.2-1.1-0.7-2.1-1.3c-1.5-1-4.8-3.1-6.9-4.4
				c-1.8,1-4.5,2.6-6.3,3.6c-2.6,1.5-4.1,2.4-4.9,2.8c-5.1,2.9-14,3.1-16.7,3.1H28.8c-3.8,0-6.9-3.1-6.9-6.9v-11.3
				c0-3.8,3.1-6.9,6.9-6.9h13.4l-9.5-4.7c-2.1-0.9-3.6-3.2-3.6-5.5V189c-3.5-0.3-6.3-3.3-6.3-6.9v-10.6c0-2.9,1.8-5.4,4.4-6.4
				c-1.9-1.2-3.2-3.4-3.2-5.8v-15.4c0-3.8,3.1-6.9,6.9-6.9h29.9c0.1-3.7,3.2-6.7,6.9-6.7h16.6c3.7,0,6.8,3,6.9,6.7h29.2
				c3.8,0,6.9,3.1,6.9,6.9v15.4c0,2.5-1.3,4.6-3.2,5.8c2.6,1,4.4,3.5,4.4,6.4v10.6c0,3.6-2.8,6.6-6.3,6.9v11.4
				c0,1.6-0.7,3.8-3.8,5.4c0,0-0.1,0-0.1,0.1l-10.7,5h13.1c3.8,0,6.9,3.1,6.9,6.9v11.1C127.3,232.5,124.2,235.6,120.4,235.6z
				 M75.2,215.7c1.8,0,2.4,0.2,12.1,6.5c0.9,0.6,1.7,1.1,2,1.3c0.1,0,0.1,0.1,0.2,0.1c2.1,1.4,5.9,2.1,11.3,2.1h16.7v-5.1h-12.9
				c-4.4,0-8.2-0.6-11.6-1.9c-0.8-0.3-1.5-0.7-2.2-1.3l-1.4-1.2c-1.1-0.9-1.7-2.3-1.7-3.7c0-1,0.3-2.6,1.8-4c0.4-0.4,0.9-0.7,1.4-1
				l21.2-9.8v-11.6c0-3.6,2.8-6.6,6.3-6.9v-4.6c-3.2-0.3-5.8-2.7-6.3-5.9h-9.2c-0.5,3.3-3.4,5.9-6.8,5.9H54.2
				c-3.5,0-6.3-2.6-6.8-5.9h-8.5c-0.4,3.2-3.1,5.6-6.3,5.9v4.6c3.5,0.3,6.3,3.3,6.3,6.9v11.8l19.7,9.8c1.7,0.8,2.7,2.5,2.7,4.4
				c0,0.9-0.3,2.7-2,4.1c-0.2,0.1-0.3,0.3-0.5,0.4c-4,2.7-6.5,3.8-11.6,3.8H31.7v5.3h15.4c5,0,10.1-0.8,11.8-1.8
				c0.1-0.1,0.3-0.2,0.4-0.2c0.5-0.2,2.7-1.5,4.4-2.5C72.6,216.1,73.5,215.7,75.2,215.7z M59.5,216c0,0-0.1,0.1-0.1,0.1
				C59.5,216.1,59.5,216.1,59.5,216z M36.3,196.7L36.3,196.7L36.3,196.7z M36.3,196.7C36.3,196.7,36.3,196.7,36.3,196.7
				C36.3,196.7,36.3,196.7,36.3,196.7z M36.3,196.7C36.3,196.7,36.3,196.7,36.3,196.7C36.3,196.7,36.3,196.7,36.3,196.7z
				 M36.3,196.7C36.3,196.7,36.3,196.7,36.3,196.7C36.3,196.7,36.3,196.7,36.3,196.7z M36.3,196.7C36.3,196.7,36.3,196.7,36.3,196.7
				C36.3,196.7,36.3,196.7,36.3,196.7z M36.3,196.7C36.3,196.7,36.3,196.7,36.3,196.7C36.3,196.7,36.3,196.7,36.3,196.7z
				 M36.3,196.7C36.3,196.7,36.3,196.7,36.3,196.7C36.3,196.7,36.3,196.7,36.3,196.7z M36.3,196.7C36.3,196.7,36.3,196.7,36.3,196.7
				C36.3,196.7,36.3,196.7,36.3,196.7z M57.1,164.7h36.1c0.1-0.9,0.4-1.7,0.8-2.4H56.3C56.7,163.1,57,163.9,57.1,164.7z
				 M107.3,156.4h9.9v-9.5H88c-3.7,0-6.8-3-6.9-6.7H70.5c-0.1,3.7-3.2,6.7-6.9,6.7H33.7v9.5h11.2c1.1-2.3,3.5-3.9,6.2-3.9h49.9
				C103.8,152.5,106.2,154.1,107.3,156.4z M75.8,209c-1.6,0-2.1,0-22.4-10.4c-0.9-0.5-1.6-0.8-2-1c-3.5-1.3-3.9-4.2-3.9-5.4l-0.1-6
				c0-1.9,0.7-3.6,2-4.9c1.3-1.3,3-2,4.9-2h41.9c3.8,0,6.9,3.1,6.9,6.9v6.4c0,1.4-0.4,4-3.5,5.5l-20.8,10.5c0,0,0,0,0,0
				C77.5,209,76.3,209,75.8,209z M76.5,204L76.5,204L76.5,204z M57.3,189.6c0.2,0.1,0.4,0.2,0.6,0.3c9.3,4.8,15.4,7.7,18,8.9
				l17.3-8.7v-1.1H57.2L57.3,189.6z M57.3,192.1C57.3,192.1,57.3,192.2,57.3,192.1C57.3,192.2,57.3,192.1,57.3,192.1z"/>
		</g>
	</g>
	<g>
		<g>
			<path class="st0" d="M203.5,246.5h-31.1c-1,0-1.9-0.2-2.6-0.3c-0.2,0-0.3-0.1-0.5-0.1c-0.2,0-0.3-0.1-0.5-0.1
				c-3.5-0.8-7.2-1.8-10.3-5c0,0-0.1-0.1-0.1-0.1c-1.6-1.8-2.9-4-3.7-6.4c-1.7,3.9-4.7,6.6-9,8.1c-1.8,0.6-3.3,0.9-4.7,0.9h-7.4
				c-3.6,0-6.4-2.9-6.4-6.4v-11.5c0-2,1-4,2.6-5.2c0.1-0.1,0.3-0.5,0.3-1.3c0,0,0,0,0,0l3.9-65.1v-0.6c0-2.7,2.2-4.9,4.9-4.9h14.7
				c0.2-3.4,3-6,6.4-6h15.8c3.3,0,6.1,2.6,6.4,5.8h14c1.8,0,3.4,1,4.3,2.4c0.7-1.9,2.5-3.2,4.6-3.2h16.2c2.7,0,4.9,2.2,4.9,4.9v0.4
				l3,64.6c0.1,0.1,0.2,0.2,0.4,0.2c2.2,1.1,3.5,3.3,3.5,5.7v13.2c0,3.6-2.9,6.4-6.4,6.4h-7.1c-2.5,0-6.6-1.1-9.7-3
				C209.9,243.6,207.1,246.5,203.5,246.5z M170.9,236.4c0.2,0,0.4,0.1,0.6,0.1c0.3,0.1,0.7,0.1,0.9,0.1h27.7v-6h-17.3
				c-5.3,0-10.1-4.7-10.1-9.9v-68.5h-8.9v76.4c0,1.9,0.9,4.3,2.1,5.6C166.9,235.4,168.7,235.9,170.9,236.4z M171,236.4
				C171,236.4,171,236.4,171,236.4C171,236.4,171,236.4,171,236.4z M137.2,233.6h3.9c0.1,0,0.5,0,1.6-0.4c1.7-0.6,3.5-1.7,3.7-5.9
				c0,0,0,0,0,0l3.3-69.1h-5.9l-3.7,61.3c-0.2,2.9-1.2,5.5-2.9,7.4V233.6z M214.9,231.5c1,0.7,3.7,1.7,4.8,1.7h3.7v-7.9
				c-1.9-1.5-3.6-3.7-3.8-6.3c0,0,0-0.1,0-0.1l-2.9-61.5h-6.3l3.7,69.8C214.3,229.1,214.6,230.8,214.9,231.5z M182.9,220.7h0.2
				c-0.2-0.2-0.3-0.4-0.5-0.6c0,0,0-0.1-0.1-0.1v0.4C182.6,220.5,182.8,220.7,182.9,220.7z M203,215.9L203,215.9L203,215.9z
				 M194.1,215.8l5.4,0.1v-7.1c-0.1,0-0.1-0.1-0.2-0.1c-3-2-4.5-5.9-4.7-8.6l-2.9-41.9H187l2.4,50.5c0.1,2.2,0.7,4.8,1.2,5.8
				C191.4,214.9,193.3,215.7,194.1,215.8z M194.1,215.8C194.1,215.8,194.1,215.8,194.1,215.8C194.1,215.8,194.1,215.8,194.1,215.8z
				 M190.8,214.6C190.8,214.6,190.8,214.6,190.8,214.6C190.8,214.6,190.8,214.6,190.8,214.6z"/>
		</g>
	</g>
	<g>
		<g>
			<path class="st0" d="M293.5,242.6h-15.4c-3.6,0-6.5-2.9-6.5-6.5v-44.5l-6,24.9c-0.4,1.7-1.3,3.1-2,4.1c-2.4,3.9-7.2,8.4-16,8.4
				h-8.2c-3.6,0-6.5-2.9-6.5-6.5v-12c0-3.5,2.7-6.3,6.2-6.5c0.4-0.4,1.1-1.6,1.7-3.8l9.1-35h-11.9c-3.6,0-6.5-2.9-6.5-6.5v-11.3
				c0-3.6,2.9-6.5,6.5-6.5h91.2c3.6,0,6.5,2.9,6.5,6.5v11.3c0,3.6-2.9,6.5-6.5,6.5h-4.2c0.8,0.8,1.3,1.8,1.5,3c0,0.1,0,0.2,0,0.3
				l4.7,34.2c0,0.2,0.1,0.3,0.1,0.5c3.3,0.3,6,3.1,6,6.5v12.8c0,3.6-2.9,6.5-6.5,6.5h-8c-11.3,0-16.8-4.9-18.5-16.5l-4.2-28.9v52.6
				C300,239.7,297.1,242.6,293.5,242.6z M281.4,232.8h8.7v-60.1h-8.7V232.8z M242.7,219.2h4.9c3.7,0,6.1-1.2,7.7-3.9
				c0.1-0.1,0.1-0.2,0.2-0.3c0.3-0.4,0.5-0.8,0.5-0.9l13.1-54.3c0.6-2.7,3-4.6,5.8-4.6h50.9v-4.6h-84.5v4.6h14
				c1.8,0,3.5,0.8,4.5,2.2c1,1.3,1.4,3,1,4.7l-10.5,40.5c-1.4,5.5-4.1,9.1-7.6,10.5V219.2z M308.5,173.2L314,211c1,6.7,2.4,8,8.7,8
				h4.7v-6.6c-3.1-1.1-5.3-4.1-6-8.3c0,0,0-0.1,0-0.1l-4.3-30.8H308.5z M298.6,165.2c0.1,0.1,0.2,0.3,0.3,0.4
				c0.1-0.2,0.2-0.3,0.3-0.4H298.6z M273.8,161L273.8,161L273.8,161z"/>
		</g>
	</g>
	<g>
		<g>
			<path class="st0" d="M373.6,255.3h-30.4c-3.2,0-5.8-2.6-5.8-5.8v-13c0-1.7,0.7-3.1,1.8-4.2v-30.7c0-0.5,0.1-1.1,0.2-1.6
				c-0.7-1-1.2-2.2-1.2-3.5v-38c0-3.2,2.6-5.8,5.8-5.8h29.6c1.6,0,3,0.6,4.1,1.7c0.6,0.6,1.1,1.4,1.4,2.2c1-0.8,2.4-1.3,3.9-1.3H418
				c0.9-1.9,2.9-3.3,5.2-3.3h11.2c3.2,0,5.8,2.6,5.8,5.8v6.9c0,3.4-1.5,6.7-4.3,9.5c-0.5,0.6-1.1,1.1-1.7,1.5
				c0.5,0.7,0.9,1.6,1.2,2.6c0,0.1,0.1,0.3,0.1,0.4c2.6,0.6,4.5,3,4.5,5.7v12.3c0,1.7-0.7,3.2-1.9,4.3c1.6,1,2.7,2.9,2.7,4.9v12.9
				c0,3.2-2.6,5.8-5.8,5.8h-0.7l1.7,5.5c0,0,0,0,0,0c0.1,0.2,0.2,0.4,0.2,0.5c2.7,0.6,4.6,3,4.6,5.7v11.3c0,3.2-2.6,5.8-5.8,5.8
				h-4.5c-4.5,0-9.4-3.1-12-6.2c-0.2-0.2-0.3-0.4-0.5-0.7v1.8c0,3.2-2.6,5.8-5.8,5.8h-12.8c-1.6,0-3-0.6-4.1-1.7
				c-1.1-1.1-1.7-2.6-1.7-4.1v0c-2,2.6-4.7,4.5-7.2,5.6c-0.7,0.3-1.5,0.5-2.3,0.5h-7.4c-0.1,0-0.3,0-0.4,0
				C375.7,255,374.7,255.3,373.6,255.3z M347.3,245.5h22.3v-5.1c-2.4-0.7-4.2-2.9-4.2-5.6v-11.2c0-2.3,1.4-4.4,3.4-5.3v-7.6
				c-2-0.9-3.4-2.9-3.4-5.3v-7.8c0-2,1-3.8,2.7-4.9c0.6-0.4,1.4-1.9,1.4-2.8l0.1-27.4h-21.5v29.9h8c3.2,0,5.8,2.6,5.8,5.8v36.4
				c0,3.2-2.6,5.8-5.8,5.8h-1.4c-2.9,0-5.3-2.1-5.8-4.9c-0.2,1.3-0.8,2.4-1.7,3.3V245.5z M380.9,244.7h2.4c1.7-1,3.2-2.6,3.5-3.9
				c0-0.1,0-0.2,0.1-0.3c0.4-1.4,1.7-8,2.6-12.7H387c-0.1,0.3-0.1,0.6-0.1,0.8c-0.6,3.5-1.6,9.3-6,11.8L380.9,244.7z M403.7,244.5
				h4.7v-23.8c0-3.2,2.6-5.8,5.8-5.8h16.9V210h-16.9c-3,0-5.5-2.3-5.8-5.3h-4.7c-0.1,1.3-0.7,2.5-1.6,3.4c-1.1,1.1-2.6,1.7-4.2,1.7
				h-16.4l0,4.9h16.4c1.6,0,3,0.6,4.1,1.7c1.1,1.1,1.7,2.6,1.7,4.1L403.7,244.5z M426.4,241.2c1.1,1.3,3.5,2.6,4.3,2.6h0.5v-4.6
				c-2-1.3-3.6-3.4-4.4-6.1l-1.6-5.3H423L426.4,241.2z M426.8,243.2C426.8,243.2,426.8,243.2,426.8,243.2
				C426.8,243.2,426.8,243.2,426.8,243.2z M426.8,243.2C426.8,243.2,426.8,243.2,426.8,243.2C426.8,243.2,426.8,243.2,426.8,243.2z
				 M426.8,243.2C426.8,243.2,426.8,243.2,426.8,243.2C426.8,243.2,426.8,243.2,426.8,243.2z M426,240.7c0.1,0.1,0.2,0.2,0.2,0.3
				c0,0,0,0,0,0C426.1,240.8,426,240.7,426,240.7z M343.2,240.5C343.2,240.5,343.2,240.5,343.2,240.5
				C343.2,240.5,343.2,240.5,343.2,240.5z M375.2,230.9c0.3,0.1,0.6,0.2,0.9,0.4c0.4-1.2,0.8-3.2,1-4.2c0.1-0.6,0.2-1.2,0.3-1.8
				c-0.6,0.8-1.3,1.4-2.2,1.8V230.9z M343.2,230.7C343.2,230.7,343.2,230.7,343.2,230.7C343.2,230.7,343.2,230.7,343.2,230.7z
				 M435.1,210L435.1,210L435.1,210z M418.2,200.2h2.5c-0.8-0.6-1.5-1.2-2.1-1.9c-0.1,0.4-0.3,0.8-0.5,1.1
				C418.1,199.6,418.2,199.9,418.2,200.2z M389.8,200.1h4.1c0.1-1.3,0.7-2.5,1.6-3.4c0.1-0.1,0.1-0.1,0.2-0.2
				c-0.2-0.3-0.4-0.7-0.6-1c0,0,0-0.1,0-0.1l-0.1-0.1c-0.2-0.4-0.5-1-0.7-1.6C393.5,196,391.9,198.3,389.8,200.1z M381,193.4h0.8
				c0.9,0,2.9-1.7,3.1-2.7l4-16.7c0.8-3.5,3.7-5.7,7.5-5.7h27.8c0.1,0,0.1,0,0.2,0c2.7,0.1,4.1-0.4,4.4-0.7c0.1-0.1,0.1-0.1,0.2-0.2
				c1-1,1.5-1.9,1.5-2.6v-2.9h-3.7c-0.9,1.9-2.9,3.3-5.2,3.3h-35.2l-2.7,15.5c0,0.1,0,0.1,0,0.2c-0.4,2-1.3,3.7-2.5,4.9V193.4z
				 M427.6,192.8L427.6,192.8L427.6,192.8z M427.6,192.8h2.6v-5.4c-2.1-1.3-3.2-3.2-3.8-4.7h-3.2l1.6,7.7c0,0.1,0.1,0.2,0.1,0.3
				C425.9,191.8,427.1,192.7,427.6,192.8z M403.8,190.9c0.3,0.6,1,1.6,2,1.6h3.2v-4.3c-1.1-0.6-2.1-1.4-2.8-2.5
				c-0.6-0.9-1-1.8-1.2-2.6h-2.5c0.4,2.5,0.8,5,1.2,7.5c0,0,0.1,0.1,0.1,0.1L403.8,190.9z M425.1,191.8
				C425.1,191.8,425.1,191.8,425.1,191.8C425.1,191.8,425.1,191.8,425.1,191.8z M425.1,191.8C425.1,191.8,425.1,191.8,425.1,191.8
				C425.1,191.8,425.1,191.8,425.1,191.8z M403.8,191.5C403.8,191.5,403.8,191.5,403.8,191.5C403.8,191.5,403.8,191.5,403.8,191.5z
				 M425.1,190.8L425.1,190.8C425.1,190.8,425.1,190.8,425.1,190.8z M424.9,190.5C424.9,190.5,424.9,190.5,424.9,190.5
				C424.9,190.5,424.9,190.5,424.9,190.5z M361.1,188h-3.8c-3.2,0-5.8-2.6-5.8-5.8v-8.7c0-3.2,2.6-5.8,5.8-5.8h3.8
				c3.2,0,5.8,2.6,5.8,5.8v8.7C366.9,185.3,364.3,188,361.1,188z"/>
		</g>
	</g>
	<g>
		<g>
			<path class="st0" d="M526.5,240.9h-74.7c-3.5,0-6.4-2.9-6.4-6.4v-40.1c0,0,0-0.1,0-0.1c-1.3-1.2-2.1-2.9-2.1-4.8v-29.8
				c0-1.1,0.3-2.2,0.8-3.1c-0.5-0.9-0.8-2-0.8-3.1V146c0-3.5,2.9-6.4,6.4-6.4h91.7c3.5,0,6.4,2.9,6.4,6.4v7.5c0,1.4-0.5,2.7-1.2,3.8
				c0.2,0.7,0.4,1.4,0.4,2.2v28.9c0,1.2-0.4,2.4-1,3.4c0.4,0.8,0.6,1.7,0.6,2.6v29.6c0,2.2-1.6,9-3.8,11.6
				C538.2,240.6,528.4,240.9,526.5,240.9z M455.2,231h71.2c3.7,0,7.6-1,8.6-1.9c0.6-1.1,1.5-4.3,1.6-5.3v-26.1h-81.4V231z
				 M535,229.3L535,229.3L535,229.3z M536.6,223.9C536.6,223.9,536.6,223.9,536.6,223.9L536.6,223.9z M453.1,186.1h7.1v-16.3
				c0-3.5,2.9-6.4,6.4-6.4h18.2c3.5,0,6.4,2.9,6.4,6.4v15.1h7.7v-15.1c0-3.5,2.9-6.4,6.4-6.4h19c3.5,0,6.4,2.9,6.4,6.4v15.1h6.3v-22
				h-31.7c-3.5,0-6.4-2.9-6.4-6.4s2.9-6.4,6.4-6.4h32.6v-0.6h-84.8v0.6h31.7c3.5,0,6.4,2.9,6.4,6.4v0.3c0,3.5-2.9,6.4-6.4,6.4h-31.7
				V186.1z M540.5,162.9L540.5,162.9L540.5,162.9z M522.5,229.2h-16.1c-3.5,0-6.4-2.9-6.4-6.4v-1.7c0-3.5,2.9-6.4,6.4-6.4h16.1
				c3.5,0,6.4,2.9,6.4,6.4v1.7C529,226.3,526.1,229.2,522.5,229.2z M522.5,224.5L522.5,224.5L522.5,224.5z M485.7,229.2h-17.2
				c-3.5,0-6.4-2.9-6.4-6.4v-1.7c0-3.5,2.9-6.4,6.4-6.4h17.2c3.5,0,6.4,2.9,6.4,6.4v1.7C492.1,226.3,489.2,229.2,485.7,229.2z
				 M485.7,224.5L485.7,224.5L485.7,224.5z M522.5,214.2h-16.1c-3.5,0-6.4-2.9-6.4-6.4v-1.9c0-3.5,2.9-6.4,6.4-6.4h16.1
				c3.5,0,6.4,2.9,6.4,6.4v1.9C529,211.3,526.1,214.2,522.5,214.2z M522.5,209.3L522.5,209.3L522.5,209.3z M485.7,214.2h-17.2
				c-3.5,0-6.4-2.9-6.4-6.4v-1.9c0-3.5,2.9-6.4,6.4-6.4h17.2c3.5,0,6.4,2.9,6.4,6.4v1.9C492.1,211.3,489.2,214.2,485.7,214.2z
				 M485.7,209.3L485.7,209.3L485.7,209.3z"/>
		</g>
	</g>
	<g>
		<g>
			<path class="st0" d="M138.5,120.3h-13.1c-4.1,0-7.4-3.3-7.4-7.4V82.1h-0.6c-4.1,0-7.4-3.3-7.4-7.4V65c0-2.7,2.2-4.9,4.9-4.9h0.5
				c0.1,0,0.1,0,0.2,0c0.1,0,0.1,0,0.1,0c0.1-0.1,0.4-0.4,0.6-1.2c0.1-0.2,0.4-1.2,0.8-2.6c0.4-1.3,1-3.3,1.6-5.3h-0.3
				c-4.1,0-7.4-3.3-7.4-7.4V28.6c0-4.1,3.3-7.4,7.4-7.4h30.8c0.7-3.3,3.7-5.8,7.2-5.8H170c3.5,0,6.5,2.5,7.2,5.8h30.7
				c4.1,0,7.4,3.3,7.4,7.4V44c0,1.6-0.5,3.1-1.4,4.3c0.6,1,0.9,2.2,0.9,3.5v7.5c0,2-0.8,3.8-2.2,5.2c-0.3,0.3-0.6,0.5-0.9,0.7
				c1.4,1.3,2.2,3.2,2.2,5.2v33.8c0,6.7-3.2,11.8-8.9,14.3l0,0c-0.7,0.3-2.8,1.1-4.3,1.1h-50.5c-2.3,0-4.3-1-5.6-2.6
				C143.3,119,141.1,120.3,138.5,120.3z M128,110.4h8.1V74.1c-2.8-1.1-3.6-3.5-3.6-5.1c0-0.5,0.1-0.9,0.2-1.4
				c0.4-1.5,3-10.5,4.7-16.6h-3c-1.7,0-3.3-0.6-4.6-1.6c-0.5,1.7-1.4,4.7-3,9.8c-0.4,1.3-0.7,2.3-0.8,2.5c-1.1,3.5-3.2,6-5.9,7.3
				v3.2h0.6c4.1,0,7.4,3.3,7.4,7.4V110.4z M199.9,109.9L199.9,109.9L199.9,109.9z M152.8,109.8h47.4c0.3-0.1,0.6-0.2,0.8-0.3
				c0.1,0,0.1-0.1,0.2-0.1c1.4-0.6,2.9-1.7,2.9-5.2V73h-18.8c-3,0-5.4-2.4-5.4-5.2c0-1.4,0.3-2.2,2.9-7.2l0.2-0.4
				c1.2-2.4,3.8-3.5,5.8-3.5c0,0,0,0,0,0l16.2,0.1v-2.5h-53.2v2.8h17.8c3.5,0,5.5,2.7,5.5,5.1c0,0.8-0.2,1.9-0.9,2.9l-1.8,4
				c-1.1,2.6-3.8,3.8-5.9,3.8h-13.7V109.8z M200.9,109.6C200.9,109.6,200.9,109.6,200.9,109.6C200.9,109.6,200.9,109.6,200.9,109.6z
				 M143.3,66.4c0.2,0.2,0.4,0.3,0.6,0.5c0.3-0.5,0.6-1,1-1.4c-0.4-0.3-0.7-0.6-1.1-0.9C143.6,65.2,143.4,65.8,143.3,66.4z
				 M116,60.1L116,60.1L116,60.1z M207.4,56.8L207.4,56.8L207.4,56.8z M121.1,41.2h3.7c0.8,0,1.5,0.1,2.2,0.4
				c0.4-3.7,3.5-6.6,7.3-6.6h56.9c3.8,0,6.9,2.9,7.3,6.5h6.9V31.1h-30.5c-3.5,0-6.5-2.5-7.2-5.8h-8.7c-0.7,3.3-3.7,5.8-7.2,5.8
				h-30.7V41.2z M207.9,31.1L207.9,31.1L207.9,31.1z M188.1,107.2h-19.5c-4.1,0-7.4-3.3-7.4-7.4v-0.3c0-4.1,3.3-7.4,7.4-7.4h19.8
				c2.5,0,4.8,1.3,6.2,3.4c1.3,2.1,1.6,4.6,0.6,6.8C193.8,105.4,191.2,107.2,188.1,107.2z M188.4,102L188.4,102L188.4,102z
				 M188.6,91.2h-20.1c-4.1,0-7.4-3.3-7.4-7.4c0-4.1,3.3-7.4,7.4-7.4h20.1c4.1,0,7.4,3.3,7.4,7.4C196,87.9,192.7,91.2,188.6,91.2z
				 M188.6,86.3L188.6,86.3L188.6,86.3z"/>
		</g>
	</g>
	<g>
		<g>
			<path class="st0" d="M189,107.2h-20.9c-3.8,0-6.9-3.1-6.9-6.9V83.1c0-3.1,2-5.9,5-6.9l10.9-3.6c1-0.3,2.1-0.3,3.1,0l10.9,3.6
				c3,1,5,3.8,5,6.9v17.2C196,104.1,192.8,107.2,189,107.2z M171,97.3h15.1V84.9l-7.5-2.5l-7.5,2.5V97.3z"/>
		</g>
	</g>
	<g>
		<g>
			<path class="st0" d="M186.9,99.1h-16.6c-3.1,0-5.6-2.5-5.6-5.6v-4.9c0-3.1,2.5-5.6,5.6-5.6h16.6c3.1,0,5.6,2.5,5.6,5.6v4.9
				C192.4,96.6,190,99.1,186.9,99.1z"/>
		</g>
	</g>
	<g>
		<g>
			<path class="st0" d="M281.4,122.6c-4.6,0-8.3-3.7-8.3-8.3s3.7-8.3,8.3-8.3c4.6,0,8.3,3.7,8.3,8.3S286,122.6,281.4,122.6z
				 M281.4,112.7c-0.8,0-1.5,0.7-1.5,1.5c0,0.8,0.7,1.5,1.5,1.5c0.8,0,1.5-0.7,1.5-1.5C282.9,113.4,282.3,112.7,281.4,112.7z"/>
		</g>
	</g>
	<g>
		<g>
			<path class="st0" d="M293.4,121.7c-4.1,0-7.4-3.3-7.4-7.4s3.3-7.4,7.4-7.4c4.1,0,7.4,3.3,7.4,7.4S297.5,121.7,293.4,121.7z
				 M293.4,111.8c-1.3,0-2.4,1.1-2.4,2.4c0,1.3,1.1,2.4,2.4,2.4s2.4-1.1,2.4-2.4C295.8,112.9,294.7,111.8,293.4,111.8z"/>
		</g>
	</g>
	<g>
		<g>
			<path class="st0" d="M303.8,120.9c-3.7,0-6.6-3-6.6-6.6c0-3.7,3-6.6,6.6-6.6c3.7,0,6.6,3,6.6,6.6
				C310.4,117.9,307.4,120.9,303.8,120.9z"/>
		</g>
	</g>
	<g>
		<g>
			<path class="st0" d="M312.8,120.2c-3.3,0-5.9-2.7-5.9-5.9s2.7-5.9,5.9-5.9s5.9,2.7,5.9,5.9S316,120.2,312.8,120.2z"/>
		</g>
	</g>
	<g>
		<g>
			<path class="st0" d="M538.1,157.3c-1.6,0-3.1-0.8-4-2.1l-2.4-3.4l-12.7,2.6c-1.9,0.4-3.8-0.3-4.9-1.9c-1.1-1.5-1.3-3.6-0.4-5.3
				l16.4-31.1c1.1-2.1,3.5-3.1,5.8-2.4c2.3,0.7,3.7,2.9,3.5,5.2l-1.3,13.9l10.4-2.8c2-0.5,4.1,0.2,5.3,1.9c1.2,1.7,1.2,3.9,0.1,5.6
				l-11.5,17.5C541.3,156.5,539.8,157.3,538.1,157.3C538.1,157.3,538.1,157.3,538.1,157.3z M537.6,143.2c0.1,0.1,0.1,0.2,0.2,0.3
				l0.1,0.2l0.4-0.6L537.6,143.2z M527.8,141.5l-0.6,1.2l1.2-0.2C528.1,142.1,528,141.8,527.8,141.5z"/>
		</g>
	</g>
	<g>
		<g>
			<path class="st0" d="M511.6,157.3c-1.2,0-2.5-0.5-3.5-1.4c-1.4-1.4-1.8-3.3-1.2-5.1c-0.4-0.3-0.8-0.6-1.1-1.1
				c-1.1-1.5-1.3-3.6-0.4-5.3l8.4-16c1.1-2.1,3.5-3.1,5.8-2.4c2.3,0.7,3.7,2.9,3.5,5.2l-0.4,3.7l2-0.5c2.2-0.6,4.5,0.4,5.6,2.4
				c1.1,2,0.7,4.5-1,6L515,156C514,156.9,512.8,157.3,511.6,157.3z"/>
		</g>
	</g>
	<g>
		<g>
			<path class="st0" d="M447.3,108.5c-2.3,0-4.4-1.1-5.6-3l-13.9-20.4c-1.6-2.4-1.6-5.4,0-7.8c1.6-2.4,4.5-3.4,7.3-2.7l11.5,2.9
				l16.3-14.5c2.5-2.3,6.3-2.3,8.9-0.2c2.6,2.2,3.3,5.9,1.5,8.8l-20.1,33.5c-1.2,2-3.3,3.2-5.7,3.3
				C447.4,108.5,447.4,108.5,447.3,108.5z M449.8,100L449.8,100L449.8,100z M440.4,86.2l6.8,9.9l7.5-12.4l-2.7,2.4
				c-1.7,1.5-4,2.1-6.2,1.5L440.4,86.2z M435.9,79.6L435.9,79.6L435.9,79.6C435.9,79.6,435.9,79.6,435.9,79.6z"/>
		</g>
	</g>
	<g>
		<g>
			<path class="st0" d="M19.9,217.7c-1,0-2-0.3-3-0.8c-1.8-1.1-2.9-3.2-2.7-5.3l0.1-0.8l-0.6-0.5c-1.7-1.4-2.4-3.6-1.9-5.7
				s2.1-3.7,4.2-4.2l0.7-0.2l0.3-0.7c0.8-2,2.6-3.4,4.8-3.5c2.2-0.2,4.2,0.9,5.3,2.7l0.4,0.7l0.8,0.1c2.2,0.1,4,1.5,4.8,3.5
				c0.8,2,0.4,4.2-1,5.9l-0.5,0.6l0.2,0.7c0.5,2.1-0.2,4.3-1.8,5.7c-1.6,1.4-3.9,1.7-5.9,0.9l-0.7-0.3l-0.6,0.4
				C22,217.4,20.9,217.7,19.9,217.7z M25.4,215.2L25.4,215.2C25.4,215.2,25.4,215.2,25.4,215.2z M22.4,212.5
				C22.4,212.5,22.4,212.5,22.4,212.5L22.4,212.5z M14.6,208.5C14.6,208.5,14.6,208.5,14.6,208.5L14.6,208.5z M28.1,207.6
				L28.1,207.6L28.1,207.6z M28.8,201.3L28.8,201.3C28.8,201.3,28.8,201.3,28.8,201.3z"/>
		</g>
	</g>
	<g>
		<g>
			<path class="st0" d="M14.7,233.5c-0.1,0-0.2,0-0.3,0c-2.2-0.1-4-1.4-4.9-3.4l-0.3-0.7l-0.7-0.2c-2.1-0.4-3.8-2-4.3-4.1
				c-0.5-2.1,0.1-4.3,1.8-5.7l0.6-0.5l-0.1-0.8C6.2,216,7.1,214,9,212.8c1.8-1.2,4.1-1.2,6-0.1l0.7,0.4l0.7-0.3
				c2-0.9,4.2-0.6,5.9,0.8c1.7,1.4,2.4,3.5,1.9,5.6l-0.2,0.7l0.5,0.6c1.5,1.6,1.9,3.8,1.1,5.9c-0.8,2-2.6,3.4-4.8,3.6L20,230
				l-0.4,0.7C18.6,232.5,16.7,233.5,14.7,233.5z M21.1,228.1L21.1,228.1C21.1,228.1,21.1,228.1,21.1,228.1z M6.7,221.1
				C6.7,221.1,6.7,221.2,6.7,221.1L6.7,221.1z"/>
		</g>
	</g>
	<g>
		<g>
			<path class="st0" d="M16,101.1V50.6c0-1.7-1.4-3.1-3.1-3.1h0c-1.7,0-3.1-1.4-3.1-3.1v-8.4c0-1.2,0.7-2.3,1.9-2.8
				c2.2-1,3.8-2.9,4.6-5.3l5.1-15.9c0.1-0.4,0.5-0.7,1-0.7h17.2c0.2,0,0.6,0,0.6,0.3c0,0.1-0.1,0.2-0.2,0.4l-6.8,23.2
				c-0.1,0.5-0.2,1.1-0.2,1.5v64.3c0,1.7-1.4,3.1-3.1,3.1H19.1C17.4,104.2,16,102.8,16,101.1z M84.7,19.7h16.7
				c1.7,0,3.1,1.4,3.1,3.1v7.1c0,1.7-1.4,3.1-3.1,3.1H84.2c-1.7,0-3.1,1.4-3.1,3.1v13.5c0,1.7,1.4,3.1,3.1,3.1h16.2
				c1.7,0,3.1,1.4,3.1,3.1v9.1c0,1.7-1.4,3.1-3.1,3.1H84.2c-1.7,0-3.1,1.4-3.1,3.1v15.4c0,1.7,1.4,3.1,3.1,3.1h18.9
				c1.7,0,3.1,1.4,3.1,3.1v7.7c0,1.7-1.4,3.1-3.1,3.1H42.6c-1.7,0-3.1-1.4-3.1-3.1v-7.7c0-1.7,1.4-3.1,3.1-3.1H59
				c1.7,0,3.1-1.4,3.1-3.1V70.8c0-1.7-1.4-3.1-3.1-3.1H45.3c-1.7,0-3.1-1.4-3.1-3.1v-9.1c0-1.7,1.4-3.1,3.1-3.1H59
				c1.7,0,3.1-1.4,3.1-3.1V35.9c0-1.7-1.4-3.1-3.1-3.1H44.1c-1.7,0-3.1-1.4-3.1-3.1v-7.1c0-1.7,1.4-3.1,3.1-3.1H59
				c1.7,0,3.1-1.4,3.1-3.1v-2.5c0-1.7,1.4-3.1,3.1-3.1h13.5c1.7,0,3.1,1.4,3.1,3.1v2.5C81.7,18.3,83,19.7,84.7,19.7z"/>
		</g>
	</g>
	<g>
		<g>
			<path class="st0" d="M251.4,104.1c-3.2,0-6.7-2.4-9-4.8c-0.7-0.7-1.8-0.6-2.5,0.1c-1.7,2.2-4,4.3-6.9,4.3h-9.9
				c-0.9,0-1.6-0.7-1.6-1.6l0.1-8.9c0.5-0.6,0.8-1,1.3-1.6c0.9-0.2,1.8-0.7,2.5-1.3c0.3-0.3,0.5-0.7,0.5-1.2l0-23.9
				c0-0.9-0.7-1.6-1.6-1.6h-0.5c-0.9,0-1.6-0.7-1.6-1.6v-9.3c0-0.9,0.7-1.6,1.6-1.6h16.2c0.9,0,1.6,0.7,1.6,1.6v32.8
				c0,0.4,0.4,1.9,0.6,2.2c1.3,3.5,3.8,5.3,7.5,5.3h62c2.4,0,4.3,1.9,4.3,4.3v5.1c0,0.9-0.7,1.6-1.6,1.6L251.4,104.1z M224.7,26.2
				v-12c0-0.9,0.7-1.6,1.6-1.6h12.9c0.9,0,1.6,0.7,1.6,1.6v12c0,0.9-0.7,1.6-1.6,1.6h-12.9C225.4,27.8,224.7,27.1,224.7,26.2z
				 M224.7,46.2V33.7c0-0.9,0.7-1.6,1.6-1.6h12.9c0.9,0,1.6,0.7,1.6,1.6v12.5c0,0.9-0.7,1.6-1.6,1.6h-12.9
				C225.4,47.8,224.7,47.1,224.7,46.2z M247.4,74.7v-7.3c0-0.9,0.7-1.6,1.6-1.6h5.7c0.9,0,1.6-0.7,1.6-1.6v-0.7
				c0-0.9-0.7-1.6-1.6-1.6H249c-0.9,0-1.6-0.7-1.6-1.6v-8.6c0-0.9,0.7-1.6,1.6-1.6h5.1c0.9,0,1.6-0.7,1.6-1.6v0
				c0-0.9-0.7-1.6-1.7-1.6l-2.7,0.1c-3,0.1-4.7-2.3-5.7-4.9c0-0.1-0.1-0.2-0.1-0.2c-0.1-0.3-0.3-1.2-0.3-1.4V13.8
				c0-0.9,0.7-1.6,1.6-1.6h29.7c0.9,0,1.6,0.7,1.6,1.6l0,14.3c0,0.3-0.1,0.6-0.3,0.9c-1.3,2-3.1,3.4-5.3,4.1c-0.1,0-0.1,0-0.2,0.1
				c-0.2,0.1-1,0.3-1.1,0.3H260c-0.9,0-1.6,0.7-1.6,1.6v0.7c0,0.9,0.7,1.6,1.6,1.6h16.7c0.9,0,1.6,0.7,1.6,1.6v6
				c0,0.9-0.7,1.6-1.6,1.6h-1.8c-0.9,0-1.6,0.7-1.6,1.6v0.3c0,0.9,0.7,1.6,1.6,1.6h16.8c0.9,0,1.6-0.7,1.6-1.6v-0.3
				c0-0.9-0.7-1.6-1.6-1.6H289c-2.9,0-4.9-1.6-6-4.2c-0.1-0.3-0.6-1.7-0.6-2V13.8c0-0.9,0.7-1.6,1.6-1.6h29.7c0.9,0,1.6,0.7,1.6,1.6
				v13.3c0,0.2-0.3,1.3-0.4,1.6c-1.1,2.7-3.1,4.1-6,4.1h-12c-0.9,0-1.6,0.7-1.6,1.6v1.3c0,0.9,0.7,1.6,1.6,1.6h17.5
				c0.9,0,1.6,0.7,1.6,1.6v6c0,0.9-0.7,1.6-1.6,1.6h-2.6c-0.9,0-1.6,0.7-1.6,1.6v0.3c0,0.9,0.7,1.6,1.6,1.6h2.8
				c0.9,0,1.6,0.7,1.6,1.6v8.6c0,0.9-0.7,1.6-1.6,1.6h-2.8c-0.9,0-1.6,0.7-1.6,1.6v0.7c0,0.9,0.7,1.6,1.6,1.6h2.8
				c0.9,0,1.6,0.7,1.6,1.6v7.3c0,0.9-0.7,1.6-1.6,1.6H249C248.1,76.3,247.4,75.6,247.4,74.7z M270.6,86.8c-1.9,2.7-5.8,3.9-9,3.9
				h-13.3c-0.9,0-1.6-0.7-1.6-1.6v-6.2h1.1c3.7,0,7-1.7,9.7-4.2c0.3-0.3,0.7-0.4,1.1-0.4h17.6c0.1,0,0.5,0,0.5,0.1
				C274.5,81.3,272.6,84,270.6,86.8z M264.1,21h-4.6c-0.9,0-1.6,0.7-1.6,1.6v0.8c0,0.9,0.7,1.6,1.6,1.6h4.6c0.9,0,1.6-0.7,1.6-1.6
				v-0.8C265.7,21.7,265,21,264.1,21z M291.7,61.8h-16.8c-0.9,0-1.6,0.7-1.6,1.6v0.7c0,0.9,0.7,1.6,1.6,1.6h16.8
				c0.9,0,1.6-0.7,1.6-1.6v-0.7C293.4,62.6,292.6,61.8,291.7,61.8z M300,90.7c-2.2,0-6.9-1.7-8.1-3.6l-5.3-7.9
				c-0.2-0.6,0.1-0.6,0.3-0.6l17.4-0.1c0.5,0,1,0.2,1.3,0.6c2.1,2.6,5.1,3.7,8.3,3.8c0.8,0,1.5,0.6,1.6,1.4c0.2,1.5,0.4,3.2,0.5,4.7
				c0.1,0.9-0.7,1.7-1.6,1.7L300,90.7z M302.1,20.8h-5.2c-0.9,0-1.6,0.7-1.6,1.6v0.7c0,0.9,0.7,1.6,1.6,1.6h5.2
				c0.9,0,1.6-0.7,1.6-1.6v-0.7C303.7,21.5,303,20.8,302.1,20.8z"/>
		</g>
	</g>
	<g>
		<g>
			<path class="st0" d="M409.2,63.9c-2.7-1.1-5.5-4.1-7.5-6.8c-0.7-0.9-1.9-1.5-3.1-1.5l-51.7-0.1c-0.3,0-1.1,0.2-1.3,0.5
				c-0.8,1.6-1.7,3.2-2.6,4.8c-1.6,2.7-5.8,4.4-8.8,4.4h-3.7c-2.2,0-4-1.8-3.9-4l0.1-8.2c0-1.2,0.6-2.3,1.6-3
				c2.1-1.6,3.4-4.4,4.3-6.7l8.9-23.3c0.1-0.3,0.6-0.4,1-0.4h62.6c0.4,0,0.8,0.1,1.1,0.5l9.3,23.5c0.8,2,2.9,4,5,5.1
				c1.3,0.7,2.1,2,2.1,3.5v8c0,2.2-1.8,3.9-3.9,3.9h-8.1C410.2,64.3,409.4,64,409.2,63.9z M413.5,69.7c2.2,0,3.9,1.8,3.9,3.9l0.1,30
				c0,0.3-0.4,1.7-0.5,2c-1.3,4-4.9,7.2-9.2,7.2h-73.6c-2.2,0-3.9-1.8-3.9-3.9V73.7c0-2.2,1.8-3.9,3.9-3.9H413.5z M398.3,94.6v-7.5
				c0-2.2-1.8-3.9-3.9-3.9h-40.6c-2.2,0-3.9,1.8-3.9,3.9v7.5c0,2.2,1.8,3.9,3.9,3.9h40.6C396.6,98.6,398.3,96.8,398.3,94.6z
				 M394.9,42.8c0-0.7-2.9-8-3.3-9.2c-0.1-0.3-0.5-0.4-0.8-0.4h-35.7c-0.3,0-0.6,0.2-0.8,0.4l-3.4,8.9c0,0.3,0,1,0.4,1h43.1
				C394.8,43.4,394.9,43.2,394.9,42.8z"/>
		</g>
	</g>
	<g>
		<g>
			<path class="st0" d="M448.6,36.2c-0.2,0-1.5-0.3-1.8-0.4c-3.7-1.1-7.3-4.1-8.4-7.8c-1.5-4.8-3-9.5-4.4-14.3
				c0.1-0.5,0.5-0.5,0.5-0.5h16.7c0.5,0,0.8,0,1,0.5l1.8,5.5c0.8,2.7,3.3,3.2,5.9,3.3c2,0.1,3.6,1.7,3.6,3.7v6.2
				c0,2.1-1.7,3.7-3.7,3.7H448.6z M448.6,62.8c-0.1,0-1.1-0.3-1.2-0.4c-3.2-1.1-5.8-3.2-7.7-6.2c-0.1-0.1-0.1-0.2-0.2-0.3
				c-0.2-0.4-0.6-0.9-0.7-1.3c-1.4-4.8-2.6-9.6-4-14.4c0.1-0.5,0.4-0.5,0.5-0.5H451c0.3,0,1.1,0,1.2,0.5c3,7.6,2.5,8.6,8,8.7
				c2,0.1,3.7,1.7,3.7,3.7v6.4c0,2.1-1.7,3.8-3.8,3.7L448.6,62.8z M517.8,103.6h-46.2c-2.1,0-3.7-1.7-3.7-3.7l-0.1-9.1
				c0-0.3,0.1-0.7,0.4-1c0.2-0.2,0.4-0.5,0.5-0.8c2.1-4.7,13.2-29.6,13.2-29.8c0-0.2-0.2-0.2-0.4-0.2h-9.9c-2.1,0-3.7-1.7-3.7-3.7
				v-6.8c0-2.1,1.7-3.7,3.7-3.7h12.9c2.1,0,3.7-1.7,3.7-3.7v-5.3c0-2.1-1.7-3.7-3.7-3.7H473c-2.1,0-3.7-1.7-3.7-3.7v-8.1
				c0-2.1,1.7-3.7,3.7-3.7h11.5c2.1,0,3.7-1.7,3.7-3.7v0c0-2.1,1.7-3.7,3.7-3.7h10.8c2.1,0,3.7,1.7,3.7,3.7v0c0,2.1,1.7,3.7,3.7,3.7
				h11.6c2.1,0,3.7,1.7,3.7,3.7v8.1c0,2.1-1.7,3.7-3.7,3.7h-11.6c-2.1,0-3.7,1.7-3.7,3.7V41c0,2.1,1.7,3.7,3.7,3.7h14.6
				c2.1,0,3.7,1.7,3.7,3.7v6.8c0,2.1-1.7,3.7-3.7,3.7h-21c-0.4,0-0.8,0.1-1,0.4l-13.1,28.2v0.5h18.9c0.2,0,0.5,0,0.5-0.3
				c-0.4-1.2-2.8-8.4-4.4-13.4c-0.8-2.4,1.1-4.9,3.6-4.9h12.5v0.6l8,21.3c0.4,1,0.5,2.1,0.6,3.2c0,0.2,0,0.3,0,0.5
				C529.5,102.3,523.9,103.6,517.8,103.6z"/>
		</g>
	</g>
	<g>
		<g>
			<path class="st0" d="M98.1,167.7v-2c0-1.1,0.9-2,2-2h15c1.1,0,2,0.9,2,2v2c0,1.1,0.9,2,2,2h2.4c1.1,0,2,0.9,2,2v10.6
				c0,1.1-0.9,2-2,2h-2.4c-1.1,0-2,0.9-2,2v14.3c0,0.4-0.6,0.7-1.1,1l-23,10.7c-0.1,0.1-0.3,0.3-0.3,0.5l1.4,1.2
				c0.2,0.2,0.4,0.3,0.6,0.4c3.2,1.2,6.5,1.6,9.9,1.6h15.9c1.1,0,2,0.9,2,2v11.1c0,1.1-0.9,2-2,2h-19.7c-4.5,0-10.2-0.4-14-3
				c-1.4-0.8-10.8-7.1-11.5-7.1c-0.8,0-12,6.8-13.6,7.5c-3.4,2-10.5,2.5-14.4,2.5H28.8c-1.1,0-2-0.9-2-2v-11.3c0-1.1,0.9-2,2-2h18.4
				c4,0,5.6-0.7,8.9-3c0.1-0.1,0.3-0.2,0.3-0.4l-21.6-10.8c-0.3-0.1-0.7-0.6-0.7-1.1v-14.2c0-1.1-0.9-2-2-2h-2.4c-1.1,0-2-0.9-2-2
				v-10.6c0-1.1,0.9-2,2-2H32c1.1,0,2-0.9,2-2v-2c0-1.1,0.9-2,2-2h14.4c1.1,0,2,0.9,2,2v2c0,1.1,0.9,2,2,2h41.9
				C97.2,169.7,98.1,168.8,98.1,167.7z M122.2,143.9v15.4c0,1.1-0.9,2-2,2H105c-1.1,0-2-0.9-2-2l0,0c0-1.1-0.9-2-2-2H51.1
				c-1.1,0-2,0.9-2,2l0,0c0,1.1-0.9,2-2,2H30.8c-1.1,0-2-0.9-2-2v-15.4c0-1.1,0.9-2,2-2h32.8c1.1,0,2-0.9,2-2v-2.7c0-1.1,0.9-2,2-2
				h16.6c1.1,0,2,0.9,2,2v2.7c0,1.1,0.9,2,2,2h32.2C121.3,142,122.2,142.9,122.2,143.9z M76.5,204l20.8-10.5
				c0.4-0.2,0.7-0.4,0.7-1.1v-6.4c0-1.1-0.9-2-2-2H54.2c-1.1,0-2,0.9-2,2l0.1,6c0,0.7,0.4,0.7,1,1c2.3,1.2,21.4,11,22.5,11
				C76,204.1,76.3,204.1,76.5,204z"/>
		</g>
	</g>
	<g>
		<g>
			<path class="st0" d="M151.4,227.6c-0.2,5-2.3,8.8-7.1,10.3c-1,0.3-2.1,0.6-3.2,0.6h-7.4c-0.8,0-1.5-0.7-1.5-1.5v-11.5
				c0-0.5,0.2-0.9,0.6-1.2c1.6-1.2,2.2-3.1,2.3-5l3.9-65.3c0-0.2,0-0.4,0-0.7h15.7v0.5L151.4,227.6z M172.4,241.5
				c-0.8,0-1.7-0.2-2.4-0.3c0,0-0.1,0-0.1,0c-2.8-0.6-5.7-1.4-7.8-3.6c-2.1-2.3-3.4-5.9-3.4-9v-79.8c0-0.8,0.7-1.5,1.5-1.5h15.8
				c0.8,0,1.5,0.7,1.5,1.5v71.9c0,2.5,2.7,5,5.2,5h20.8c0.8,0,1.5,0.7,1.5,1.5V240c0,0.8-0.7,1.5-1.5,1.5H172.4z M194.1,220.7
				c-1.9,0-6.3-1.8-7.4-3.4c-1.4-2-2.1-6.1-2.2-8.6l-2.6-55.1v-0.5h14.7v0.4l3.2,46.1c0.1,1.5,1.1,3.8,2.5,4.8
				c0.2,0.2,0.5,0.3,0.8,0.3l0,0c0.8,0,1.5,0.7,1.5,1.5v13c0,0.8-0.7,1.5-1.5,1.5L194.1,220.7z M219.7,238.1c-2.4,0-7.2-1.7-8.8-3.6
				c-1.2-1.5-1.6-5.4-1.7-7.2l-3.9-74.2v-0.7h16.2v0.5l3.1,65.7c0.1,1.3,1.6,2.8,3,3.5c0.5,0.3,0.8,0.8,0.8,1.3v13.2
				c0,0.8-0.7,1.5-1.5,1.5H219.7z"/>
		</g>
	</g>
	<g>
		<g>
			<path class="st0" d="M274.8,160.3c-0.4,0-0.8,0.2-1,0.7l-13.1,54.4c-0.2,0.8-0.7,1.8-1.3,2.5c-2.7,4.4-6.9,6.2-11.9,6.2h-8.2
				c-0.9,0-1.6-0.7-1.6-1.6v-12c0-0.9,0.7-1.6,1.6-1.6l0,0c3.6,0,5.4-4.6,6.1-7.5l10.5-40.4c0.1-0.4-0.3-0.7-0.7-0.7h-17.3
				c-0.9,0-1.6-0.7-1.6-1.6v-11.3c0-0.9,0.7-1.6,1.6-1.6h91.2c0.9,0,1.6,0.7,1.6,1.6v11.3c0,0.9-0.7,1.6-1.6,1.6H274.8z
				 M276.5,236.1v-66.8c0-0.9,0.7-1.6,1.6-1.6h15.4c0.9,0,1.6,0.7,1.6,1.6v66.8c0,0.9-0.7,1.6-1.6,1.6h-15.4
				C277.2,237.7,276.5,237,276.5,236.1z M322.7,224c-9.1,0-12.4-3.5-13.6-12.2l-6.2-42.6c0-0.1,0-0.2,0-0.4c0-0.3,0.2-0.4,0.5-0.4
				h17.2c0.4,0,0.8,0.3,1,0.8l4.8,34.2c0.3,2,1.4,4.6,3.8,4.6h0.6c0.9,0,1.6,0.7,1.6,1.6v12.8c0,0.9-0.7,1.6-1.6,1.6H322.7z"/>
		</g>
	</g>
	<g>
		<g>
			<path class="st0" d="M373.7,207.1v14.6c0,0.5-0.4,0.9-0.9,0.9h-1.6c-0.5,0-0.9,0.4-0.9,0.9v11.2c0,0.5,0.4,0.9,0.9,0.9h2.4
				c0.5,0,0.9,0.4,0.9,0.9v13c0,0.5-0.4,0.9-0.9,0.9h-30.4c-0.5,0-0.9-0.4-0.9-0.9v-13c0-0.5,0.4-0.9,0.9-0.9h0
				c0.5,0,0.9-0.4,0.9-0.9v-33.2c0-0.5,0.4-0.9,0.9-0.9h7.9c0.5,0,0.9,0.4,0.9,0.9v33.2c0,0.5,0.4,0.9,0.9,0.9h1.4
				c0.5,0,0.9-0.4,0.9-0.9v-36.4c0-0.5-0.4-0.9-0.9-0.9h-12c-0.5,0-0.9-0.4-0.9-0.9v-38c0-0.5,0.4-0.9,0.9-0.9h29.6
				c0.5,0,0.9,0.4,0.9,0.9l-0.1,31.4c0,2.5-1.6,5.6-3.7,6.9c-0.3,0.2-0.4,0.4-0.4,0.7v7.8c0,0.5,0.4,0.9,0.9,0.9h1.6
				C373.3,206.3,373.7,206.7,373.7,207.1z M362,182.1v-8.7c0-0.5-0.4-0.9-0.9-0.9h-3.8c-0.5,0-0.9,0.4-0.9,0.9v8.7
				c0,0.5,0.4,0.9,0.9,0.9h3.8C361.6,183,362,182.6,362,182.1z M395.2,223.4c0,1.3-3.1,16.3-3.6,18.4c-0.6,3.4-4,6.5-7,7.8
				c-0.1,0.1-0.2,0.1-0.4,0.1h-7.4c-0.5,0-0.9-0.4-0.9-0.9l-0.1-11.2c0-0.5,0.4-0.9,0.9-0.9c6.4-0.6,4.2-13.7,7.4-13.7h10.3
				C394.8,222.9,395.1,223,395.2,223.4z M435.4,164.7c0,2.3-1.3,4.4-3,6.1c-1.9,2.1-5.6,2.4-8.2,2.3h-27.8c-1.4,0-2.4,0.5-2.7,1.9
				l-4,16.7c-0.7,3.2-4.6,6.5-7.9,6.5h-4.8c-0.5,0-0.9-0.4-0.9-0.9v-13.8c0-0.4,0.2-0.7,0.5-0.8c1.2-0.5,1.8-1.8,2.1-3.1l3.4-19
				c0.1-0.4,0.6-0.5,1.1-0.5h38.4c0.5,0,0.9-0.4,0.9-0.9v-1.5c0-0.5,0.4-0.9,0.9-0.9h11.2c0.5,0,0.9,0.4,0.9,0.9V164.7z
				 M414.2,205.1h20.9c0.5,0,0.9,0.4,0.9,0.9v12.9c0,0.5-0.4,0.9-0.9,0.9h-20.9c-0.5,0-0.9,0.4-0.9,0.9v27.9c0,0.5-0.4,0.9-0.9,0.9
				h-12.8c-0.5,0-0.9-0.4-0.9-0.9l0.1-27.9c0-0.5-0.4-0.9-0.9-0.9h-20.4c-0.5,0-0.9-0.4-0.9-0.9l-0.1-13c0-0.5,0.4-0.9,0.9-0.9h20.5
				c0.5,0,0.9-0.4,0.9-0.9l-0.1-3.3c0-0.5,0.4-0.9,0.9-0.9h12.8c0.5,0,0.9,0.4,0.9,0.9v3.5C413.3,204.7,413.7,205.1,414.2,205.1z
				 M413.9,196.5c0,0.5-0.4,0.9-0.9,0.9h-7.2c-2.9,0-5.1-1.8-6.3-4.2c-0.2-0.4-0.6-1.2-0.6-1.7c-0.7-4.2-1.4-8.4-2-12.7
				c-0.2-0.6,0.2-0.6,0.4-0.6h10.6c2.2,0,0.7,5.9,4.9,5.9h0.4c0.5,0,0.9,0.4,0.9,0.9V196.5z M436.1,247.8c0,0.5-0.4,0.9-0.9,0.9
				h-4.5c-2.9,0-6.5-2.4-8.2-4.5c-0.1-0.1-0.6-0.8-0.6-1l-5.1-19.5c0-0.6,0.2-0.7,0.5-0.7h10.5c0.4,0,1,0.2,1.2,0.6l2.5,8.1
				c0.6,1.9,1.9,3.6,3.8,3.9c0.5,0.1,0.8,0.4,0.8,0.9V247.8z M435.2,196.8c0,0.5-0.4,0.9-0.9,0.9h-6.7c-2.6,0-5.3-2.4-6.7-4.5
				c0,0,0-0.1-0.1-0.1c-0.1-0.3-0.6-1.1-0.6-1.3c-1-4.4-1.9-8.9-2.9-13.3c-0.1-0.6,0.2-0.7,0.5-0.7H429c2.4,0,0.8,5.3,5.3,5.9
				c0.5,0.1,0.8,0.4,0.8,0.9V196.8z"/>
		</g>
	</g>
	<g>
		<g>
			<path class="st0" d="M503.9,156.5L503.9,156.5c0,0.8,0.7,1.5,1.5,1.5h35.2c0.8,0,1.5,0.7,1.5,1.5v28.9c0,0.8-0.7,1.5-1.5,1.5
				h-13.2c-0.8,0-1.5-0.7-1.5-1.5v-18.6c0-0.8-0.7-1.5-1.5-1.5h-19c-0.8,0-1.5,0.7-1.5,1.5v18.6c0,0.8-0.7,1.5-1.5,1.5h-14.6
				c-0.8,0-1.5-0.7-1.5-1.5v-18.6c0-0.8-0.7-1.5-1.5-1.5h-18.2c-0.8,0-1.5,0.7-1.5,1.5v19.7c0,0.8-0.7,1.5-1.5,1.5h-14
				c-0.8,0-1.5-0.7-1.5-1.5v-29.8c0-0.8,0.7-1.5,1.5-1.5h35.2c0.8,0,1.5-0.7,1.5-1.5v-0.3c0-0.8-0.7-1.5-1.5-1.5h-35.2
				c-0.8,0-1.5-0.7-1.5-1.5V146c0-0.8,0.7-1.5,1.5-1.5h91.7c0.8,0,1.5,0.7,1.5,1.5v7.5c0,0.8-0.7,1.5-1.5,1.5h-36
				C504.5,155,503.9,155.6,503.9,156.5z M538.9,232.3c-2.4,2.9-9.1,3.7-12.5,3.7h-74.7c-0.8,0-1.5-0.7-1.5-1.5v-40.1
				c0-0.8,0.7-1.5,1.5-1.5h88.3c0.8,0,1.5,0.7,1.5,1.5v29.6C541.6,225.6,540,231.1,538.9,232.3z M485.7,204.4h-17.2
				c-0.8,0-1.5,0.7-1.5,1.5v1.9c0,0.8,0.7,1.5,1.5,1.5h17.2c0.8,0,1.5-0.7,1.5-1.5v-1.9C487.2,205.1,486.5,204.4,485.7,204.4z
				 M485.7,219.6h-17.2c-0.8,0-1.5,0.7-1.5,1.5v1.7c0,0.8,0.7,1.5,1.5,1.5h17.2c0.8,0,1.5-0.7,1.5-1.5v-1.7
				C487.2,220.3,486.5,219.6,485.7,219.6z M468.4,177.1v-4.3c0-0.8,0.7-1.5,1.5-1.5h11.1c0.8,0,1.5,0.7,1.5,1.5v4.3
				c0,0.8-0.7,1.5-1.5,1.5h-11.1C469,178.5,468.4,177.9,468.4,177.1z M468.4,186.9v-4.3c0-0.8,0.7-1.5,1.5-1.5h11.1
				c0.8,0,1.5,0.7,1.5,1.5v4.3c0,0.8-0.7,1.5-1.5,1.5h-11.1C469,188.4,468.4,187.7,468.4,186.9z M522.5,204.4h-16.1
				c-0.8,0-1.5,0.7-1.5,1.5v1.9c0,0.8,0.7,1.5,1.5,1.5h16.1c0.8,0,1.5-0.7,1.5-1.5v-1.9C524,205.1,523.4,204.4,522.5,204.4z
				 M522.5,219.6h-16.1c-0.8,0-1.5,0.7-1.5,1.5v1.7c0,0.8,0.7,1.5,1.5,1.5h16.1c0.8,0,1.5-0.7,1.5-1.5v-1.7
				C524,220.3,523.4,219.6,522.5,219.6z M507.2,176.6v-3.9c0-0.8,0.7-1.5,1.5-1.5h12.5c0.8,0,1.5,0.7,1.5,1.5v3.9
				c0,0.8-0.7,1.5-1.5,1.5h-12.5C507.9,178.1,507.2,177.4,507.2,176.6z M507.2,186.5v-3.9c0-0.8,0.7-1.5,1.5-1.5h12.5
				c0.8,0,1.5,0.7,1.5,1.5v3.9c0,0.8-0.7,1.5-1.5,1.5h-12.5C507.9,187.9,507.2,187.3,507.2,186.5z"/>
		</g>
	</g>
	<g>
		<g>
			<path class="st0" d="M174.9,26.1h33.1c1.3,0,2.4,1.1,2.4,2.4V44c0,1.3-1.1,2.4-2.4,2.4h-11.8c-1.3,0-2.4-1.1-2.4-2.4v-1.7
				c0-1.3-1.1-2.4-2.4-2.4h-56.9c-1.3,0-2.4,1.1-2.4,2.4v1.4c0,1.3,1.1,2.4,2.4,2.4h8.9c0.2,0,0.5,0.1,0.5,0.3
				c0,0.4-5.8,20.8-6.3,22.6c0,0.4,0.6,0.6,1.4,0.7c1.3,0.1,2.2,1.1,2.2,2.4v40.9c0,1.3-1.1,2.4-2.4,2.4h-13.1
				c-1.3,0-2.4-1.1-2.4-2.4V79.6c0-1.3-1.1-2.4-2.4-2.4h-3.1c-1.3,0-2.4-1.1-2.4-2.4V65h0.5c3,0.1,4.8-1.9,5.6-4.6
				c0.3-1.1,4.2-13.7,4.2-13.9c0-0.3-0.4-0.3-0.6-0.3h-6.2c-1.3,0-2.4-1.1-2.4-2.4V28.6c0-1.3,1.1-2.4,2.4-2.4h33.2
				c1.3,0,2.4-1.1,2.4-2.4v-1c0-1.3,1.1-2.4,2.4-2.4H170c1.3,0,2.4,1.1,2.4,2.4v1C172.4,25.1,173.5,26.1,174.9,26.1z M188.7,61.6
				c-0.4,0-1.2,0.3-1.4,0.7c-0.3,0.6-2.5,5-2.5,5.4c0,0.2,0.2,0.3,0.4,0.3h21.3c1.3,0,2.4,1.1,2.4,2.4v33.8c0,4.3-1.7,7.9-5.9,9.7
				c-0.4,0.2-2,0.7-2.3,0.7h-50.5c-1.3,0-2.4-1.1-2.4-2.4V70.5c0-1.3,1.1-2.4,2.4-2.4h16.2c0.4,0,1.2-0.3,1.4-0.8l2-4.5
				c0.1-0.1,0.2-0.2,0.2-0.4s-0.4-0.2-0.5-0.2h-20.3c-1.3,0-2.4-1.1-2.4-2.4v-7.8c0-1.3,1.1-2.4,2.4-2.4h58.2c1.3,0,2.4,1.1,2.4,2.4
				v7.5c0,1.3-1.1,2.4-2.4,2.4L188.7,61.6z M188.6,81.4h-20.1c-1.3,0-2.4,1.1-2.4,2.4v0c0,1.3,1.1,2.4,2.4,2.4h20.1
				c1.3,0,2.4-1.1,2.4-2.4v0C191,82.5,189.9,81.4,188.6,81.4z M188.1,102.3c1.3,0,2.1-0.8,2.6-1.9c0.7-1.6-0.6-3.3-2.3-3.3h-19.8
				c-1.3,0-2.4,1.1-2.4,2.4v0.3c0,1.3,1.1,2.4,2.4,2.4H188.1z"/>
		</g>
	</g>
	<g>
		<g>
			<path class="st0" d="M166.1,99.9V83.8v-0.7c0-1,0.6-1.9,1.6-2.2l10.9-3.6l10.9,3.6c1,0.3,1.6,1.2,1.6,2.2v0.7v16.1v0.4
				c0,1.1-0.9,2-2,2h-20.9c-1.1,0-2-0.9-2-2V99.9z"/>
		</g>
	</g>
	<g>
		<g>
			<path class="st0" d="M186.9,94.2h-16.6c-0.3,0-0.6-0.3-0.6-0.6v-4.9c0-0.3,0.3-0.6,0.6-0.6h16.6c0.3,0,0.6,0.3,0.6,0.6v4.9
				C187.5,93.9,187.2,94.2,186.9,94.2z"/>
		</g>
	</g>
	<g>
		<g>
			<circle class="st0" cx="281.4" cy="114.2" r="3.4"/>
		</g>
	</g>
	<g>
		<g>
			<circle class="st0" cx="293.4" cy="114.2" r="2.5"/>
		</g>
	</g>
	<g>
		<g>
			<circle class="st0" cx="303.8" cy="114.2" r="1.7"/>
		</g>
	</g>
	<g>
		<g>
			<circle class="st0" cx="307.4" cy="104.2" r="1"/>
		</g>
	</g>
	<g>
		<g>
			<polygon class="st0" points="534.3,118.5 517.9,149.6 533.8,146.3 538.1,152.4 549.6,134.9 532.3,139.5 			"/>
		</g>
	</g>
	<g>
		<g>
			<polygon class="st0" points="518.2,130.9 509.8,146.8 517.9,145.2 511.6,152.4 526.1,139.3 517.2,141.7 			"/>
		</g>
	</g>
	<g>
		<g>
			<path class="st0" d="M431.8,82.4l13.9,20.4c0.8,1.1,2.5,1.1,3.2-0.1L469,69.2c1.1-1.9-1.3-3.9-2.9-2.4l-17.5,15.6
				c-0.5,0.4-1.1,0.6-1.7,0.4l-13.1-3.3C432.1,79.1,430.8,81,431.8,82.4z"/>
		</g>
	</g>
	<g>
		<g>
			<path class="st0" d="M26.2,212.2l-2.7-1.2c-0.2-0.1-0.5-0.1-0.7,0.1l-2.5,1.6c-0.5,0.3-1.1-0.1-1.1-0.7l0.3-3
				c0-0.2-0.1-0.5-0.2-0.6l-2.3-1.9c-0.4-0.4-0.3-1.1,0.3-1.2l2.9-0.7c0.2-0.1,0.4-0.2,0.5-0.4l1.1-2.8c0.2-0.5,1-0.6,1.3-0.1
				l1.5,2.6c0.1,0.2,0.3,0.3,0.6,0.3l3,0.2c0.6,0,0.9,0.7,0.5,1.2l-2,2.2c-0.2,0.2-0.2,0.4-0.2,0.6l0.7,2.9
				C27.3,211.9,26.7,212.4,26.2,212.2z"/>
		</g>
	</g>
	<g>
		<g>
			<path class="st0" d="M20.3,225l-3,0.3c-0.2,0-0.4,0.2-0.6,0.4l-1.5,2.6c-0.3,0.5-1,0.5-1.3-0.1l-1.2-2.7
				c-0.1-0.2-0.3-0.4-0.5-0.4l-2.9-0.6c-0.6-0.1-0.8-0.8-0.3-1.2l2.3-2c0.2-0.2,0.3-0.4,0.2-0.6l-0.3-3c-0.1-0.6,0.6-1,1.1-0.7
				l2.6,1.5c0.2,0.1,0.4,0.1,0.7,0l2.7-1.2c0.5-0.2,1.1,0.2,1,0.8l-0.7,2.9c-0.1,0.2,0,0.5,0.2,0.6l2,2.2
				C21.1,224.3,20.9,225,20.3,225z"/>
		</g>
	</g>
	<g>
		<g>
			<path class="st1" d="M26,105.1H15.1c-4.4,0-8-3.6-8-8V48.3c-3.5-0.8-6.1-4-6.1-7.8v-8.4c0-3.1,1.8-5.9,4.7-7.3
				c0.9-0.4,1.6-1.2,2-2.4l5-15.8c0.7-2.5,3.1-4.3,5.7-4.3h17.2c3.6,0,5.6,2.7,5.6,5.2c0,1-0.3,1.8-0.6,2.3l-0.2,0.8h12.8v-0.7
				c0-4.4,3.6-8,8-8h13.5c4.4,0,8,3.6,8,8v0.7h14.8c4.4,0,8,3.6,8,8v7.1c0,4.4-3.6,8-8,8H82.1v9.8h14.3c4.4,0,8,3.6,8,8v9.1
				c0,4.4-3.6,8-8,8H82.1v11.7h17c4.4,0,8,3.6,8,8v7.7c0,4.4-3.6,8-8,8H38.7c-2.4,0-4.5-1-5.9-2.6C31.3,103.7,28.8,105.1,26,105.1z
				 M17,95.3h7.1V32.8c0-0.9,0.2-1.8,0.3-2.4c0-0.1,0.1-0.3,0.1-0.4l5.1-17.7h-8.4l-4.2,13.2c0,0,0,0.1,0,0.1
				c-1.2,3.4-3.3,6-6.2,7.6v5.6c3.5,0.8,6.1,4,6.1,7.8V95.3z M40.5,94.2h56.8v-4h-17c-4.4,0-8-3.6-8-8V66.8c0-4.4,3.6-8,8-8h14.3
				v-5.3H80.3c-4.4,0-8-3.6-8-8V32c0-4.4,3.6-8,8-8h15.3v-3.3H80.8c-4.4,0-8-3.6-8-8V12H63v0.7c0,4.4-3.6,8-8,8H42V24h13
				c4.4,0,8,3.6,8,8v13.5c0,4.4-3.6,8-8,8H43.3v5.3H55c4.4,0,8,3.6,8,8v15.4c0,4.4-3.6,8-8,8H40.5V94.2z M34,63.7v18.2
				c1.3-1,2.9-1.5,4.7-1.5h14.5V68.7H41.4C38,68.7,35.2,66.6,34,63.7z M34,32.9v15.7c1.2-2.9,4.1-5,7.4-5h11.8v-9.8h-13
				c-2.3,0-4.3-0.9-5.8-2.5l-0.3,1.1C34,32.7,34,32.8,34,32.9z M97.5,20.7L97.5,20.7L97.5,20.7z"/>
		</g>
	</g>
	<g>
		<g>
			<path class="st1" d="M247.5,105.1c-4,0-7.5-2.1-10-4c-2.6,2.4-5.4,3.6-8.4,3.6h-9.9c-1.8,0-3.4-0.7-4.7-1.9
				c-1.2-1.3-1.9-2.9-1.9-4.7l0.1-8.9c0-1.1,0.4-2.2,1.1-3.1l1.3-1.6c0.5-0.6,1.2-1.1,1.9-1.4V63.9c-2.2-1.1-3.7-3.3-3.7-5.9v-9.3
				c0-2.1,1-4,2.5-5.2c-0.1-0.4-0.1-0.8-0.1-1.2V29.7c0-1.4,0.4-2.7,1.2-3.7c-0.7-1.1-1.2-2.3-1.2-3.7v-12c0-3.6,2.9-6.5,6.5-6.5
				h12.9c1.3,0,2.6,0.4,3.6,1.1c1.1-0.9,2.6-1.5,4.2-1.5h29.7c1.3,0,2.6,0.4,3.6,1.1c1-0.7,2.3-1.1,3.6-1.1h29.7
				c3.6,0,6.5,2.9,6.5,6.5v13.3c0,0.3,0,1.1-0.7,3.1c0,0.1,0,0.1-0.1,0.2c-0.4,1.1-1,2.1-1.6,3c1.8,1.2,3,3.2,3,5.5v6
				c0,1.2-0.3,2.2-0.8,3.2c0.7,1,1,2.2,1,3.5v8.6c0,1.3-0.4,2.5-1.1,3.6c0.7,1,1.1,2.3,1.1,3.6v7.3c0,2.1-1,4-2.5,5.2
				c1,1,1.7,2.3,1.8,3.8l0,0.3c0.2,1.5,0.4,3.2,0.4,4.7c0.1,1.4-0.3,2.7-1,3.9c0.8,1.4,1.3,3,1.3,4.7v5.1c0,3.6-2.9,6.5-6.5,6.5
				L247.5,105.1C247.5,105.1,247.5,105.1,247.5,105.1z M244.2,93.8c1.3,0.9,2.5,1.4,3.2,1.4l59.8-0.1v-1.2h-61.4
				C245.3,93.9,244.8,93.8,244.2,93.8z M222.6,94.8h6.5c0.7,0,1.8-0.9,3-2.4c1.1-1.4,2.7-2.3,4.4-2.5c-1.1-1.2-2-2.6-2.6-4.3
				c-0.6-1.3-1-3.1-1-4.1V52h-9.6v3.4c2.2,1.1,3.7,3.3,3.7,5.9v23.9c0,1.8-0.8,3.6-2.1,4.8c-0.7,0.6-1.4,1.2-2.2,1.6L222.6,94.8z
				 M271.8,84h10.8l-4-6.1c-0.1-0.2-0.3-0.4-0.4-0.7h-1.5c0,0,0,0,0,0c-1.3,1.8-2.5,3.5-3.7,5.1C272.6,83,272.2,83.5,271.8,84z
				 M218.2,82.8C218.2,82.8,218.2,82.8,218.2,82.8C218.2,82.8,218.2,82.8,218.2,82.8z M296.1,81.8L296.1,81.8L296.1,81.8z
				 M296.1,81.8h6c-1.3-0.7-2.3-1.5-3.2-2.4l-7.5,0l0.5,0.8C292.7,80.9,295.2,81.8,296.1,81.8z M252,81.8h5.6c2.1,0,4.2-0.8,4.9-1.8
				c0,0,0-0.1,0.1-0.1c0.2-0.2,0.3-0.5,0.5-0.7h-7.3C254.6,80.2,253.3,81.1,252,81.8z M283,79.5L283,79.5
				C283,79.5,283,79.5,283,79.5z M256.9,78.3C256.9,78.3,256.9,78.3,256.9,78.3C256.9,78.3,256.9,78.3,256.9,78.3z M248.4,67.4h58.9
				v-0.7c-3.4-0.3-6-3.1-6-6.5v-0.7c0-3.4,2.7-6.3,6-6.5v-2c-3.4-0.3-6-3.1-6-6.5v-0.3c0-2.6,1.5-4.8,3.6-5.9h-12
				c-3.6,0-6.5-2.9-6.5-6.5v-1.3c0-2.4,1.3-4.6,3.3-5.7c-2-1.1-3.3-3.3-3.3-5.7v-0.7c0-2.1,1-4,2.6-5.2h-5.6v22.5
				c0.1,0.2,0.2,0.5,0.2,0.6c0,0.1,0,0.1,0.1,0.2c0.5,1.1,1,1.1,1.4,1.1h2.7c3.6,0,6.5,2.9,6.5,6.5v0.3c0,3.6-2.9,6.5-6.5,6.5H271
				c-3.6,0-6.5-2.9-6.5-6.5v-0.3c0-2.6,1.5-4.8,3.6-5.9h-12c-3.6,0-6.5-2.9-6.5-6.5v-0.7c0-2.4,1.3-4.6,3.3-5.7
				c-2.3-1-3.9-3.3-3.9-6v-0.8c0-2.3,1.2-4.3,2.9-5.4h-5.5v22.7c0,0.1,0,0.2,0.1,0.2c0,0.1,0.1,0.2,0.1,0.3c0.4,1,0.7,1.4,0.9,1.5
				l2.6-0.1c1.7,0,3.5,0.6,4.7,1.9c1.3,1.2,2,2.9,2,4.7c0,3.6-2.9,6.5-6.5,6.5h-1.8v2h2.4c3.6,0,6.5,2.9,6.5,6.5v0.7
				c0,3.6-2.9,6.5-6.5,6.5h-2.4V67.4z M225.7,38.9h6.3v-5.9h-6.3V38.9z M246.5,36.3C246.5,36.3,246.5,36.3,246.5,36.3
				C246.5,36.3,246.5,36.3,246.5,36.3z M264.2,24.6h2.7c0.2-0.1,0.4-0.1,0.6-0.2c0.8-0.3,1.4-0.7,2-1.4v-9.8h-5.7
				c1.8,1.2,2.9,3.2,2.9,5.4v0.8C266.7,21.5,265.7,23.4,264.2,24.6z M267.6,24.4C267.6,24.4,267.6,24.4,267.6,24.4
				C267.6,24.4,267.6,24.4,267.6,24.4z M302.6,23.9h2.4c0.9,0,1.1-0.1,1.4-0.8c0-0.1,0.1-0.3,0.1-0.5v-9.4h-4.4
				c1.6,1.2,2.6,3.1,2.6,5.2v0.7C304.7,21,303.9,22.7,302.6,23.9z M260.1,22L260.1,22L260.1,22z M298.1,21.8L298.1,21.8L298.1,21.8z
				 M225.7,19h6.3v-5.3h-6.3V19z M287.8,66.7H271c-3.6,0-6.5-2.9-6.5-6.5v-0.7c0-3.6,2.9-6.5,6.5-6.5h16.8c3.6,0,6.5,2.9,6.5,6.5
				v0.7C294.3,63.8,291.4,66.7,287.8,66.7z M287.8,62.8L287.8,62.8L287.8,62.8z"/>
		</g>
	</g>
	<g>
		<g>
			<path class="st1" d="M403.9,113.8h-73.6c-4.9,0-8.9-4-8.9-8.9V69.7c0-1.6,0.4-3.1,1.1-4.4c-0.9-0.4-1.6-1-2.3-1.7
				c-1.7-1.7-2.6-3.9-2.6-6.3l0.1-8.2c0-2.7,1.3-5.2,3.4-6.9c0.5-0.4,1.6-1.6,2.7-4.5l8.9-23.3c0.8-2.2,3-3.6,5.6-3.6h62.6
				c2.4,0,4.5,1.2,5.5,3.3c0.1,0.1,0.1,0.3,0.2,0.4l9.3,23.5c0.2,0.5,1.3,1.8,2.8,2.6c2.9,1.6,4.7,4.6,4.7,7.8v8
				c0,4-2.7,7.4-6.3,8.5c0.9,1.4,1.4,3,1.4,4.7l0.1,30c0,0.4,0,1.2-0.8,3.5C415.7,109.6,410.2,113.8,403.9,113.8z M331.3,103.9h72.6
				c2.3,0,3.9-1.9,4.5-3.7c0,0,0,0,0-0.1c0.1-0.2,0.2-0.6,0.3-0.9l-0.1-28.5h-77.3V103.9z M408.7,99C408.7,99,408.7,99,408.7,99
				C408.7,99,408.7,99,408.7,99z M409.6,70.7L409.6,70.7L409.6,70.7z M342.3,60.9H398c-1.2-1.2-2.5-2.6-3.8-4.2l-49.2-0.1
				c-0.5,0.9-1,1.9-1.6,2.9C343,59.9,342.7,60.4,342.3,60.9z M327.5,56.4h2.7c1.7,0,4-1.1,4.5-2c0,0,0,0,0-0.1
				c0.9-1.5,1.7-3,2.5-4.5c0.1-0.1,0.2-0.3,0.3-0.4c1.4-2.2,4.1-2.7,5.4-2.7l51.7,0.1c2.7,0,5.3,1.2,6.9,3.4c3.1,3.9,4.9,5,5.6,5.3
				c0,0,0.1,0,0.1,0h6.3V49c-3.2-1.8-5.7-4.6-6.8-7.4l-8.3-21h-57.5l-7.8,20.6c-1.4,3.8-3.2,6.6-5.5,8.5L327.5,56.4z M342,17.7
				C342,17.7,342,17.7,342,17.7C342,17.7,342,17.7,342,17.7z M342,17.7C342,17.7,342,17.7,342,17.7C342,17.7,342,17.7,342,17.7z
				 M390.4,99.5h-40.6c-4.9,0-8.9-4-8.9-8.9v-7.5c0-4.9,4-8.9,8.9-8.9h40.6c4.9,0,8.9,4,8.9,8.9v7.5
				C399.3,95.6,395.3,99.5,390.4,99.5z M350.8,89.7h38.6v-5.6h-38.6V89.7z M390.5,44.4h-43.1c-2.2,0-5.4-1.6-5.4-5.9
				c0-0.6,0.1-1.2,0.3-1.8l3.4-8.9c0.2-0.6,0.6-1.2,1.1-1.7c1.2-1.2,2.7-1.9,4.3-1.9h35.7c2.5,0,4.7,1.4,5.5,3.7
				c0.1,0.2,0.3,0.7,0.5,1.3c2.9,7.7,3.1,8.3,3.1,9.5C395.9,42,393.6,44.4,390.5,44.4z M386.2,39.8L386.2,39.8L386.2,39.8z
				 M353.8,34.6h30.5c0-0.1-0.1-0.3-0.1-0.4h-30.3L353.8,34.6z M383.1,31.3C383.1,31.3,383.1,31.3,383.1,31.3
				C383.1,31.3,383.1,31.3,383.1,31.3z M383.1,31.2C383.1,31.3,383.1,31.3,383.1,31.2C383.1,31.3,383.1,31.3,383.1,31.2z M383,31.2
				C383,31.2,383,31.2,383,31.2C383,31.2,383,31.2,383,31.2z"/>
		</g>
	</g>
	<g>
		<g>
			<path class="st1" d="M513.8,104.6h-46.2c-4.7,0-8.6-3.9-8.7-8.6l-0.1-9.1c0-1.5,0.5-2.9,1.4-4c0.8-1.8,2.7-6,4.8-10.7
				c1.7-3.9,3.8-8.5,5.5-12.2h-2.8c-1.3,0-2.6-0.3-3.8-0.9c-0.4,0.8-1,1.6-1.6,2.2c-1.6,1.6-3.8,2.5-6.1,2.5c0,0,0,0-0.1,0
				l-11.4-0.1c-0.7,0-1.9-0.3-3.1-0.8c-4.2-1.5-7.5-4.3-9.9-8.1c-0.1-0.2-0.2-0.4-0.3-0.6l-0.1-0.2c-0.3-0.5-0.7-1.3-1-2.1
				c-0.7-2.4-1.4-4.8-2-7.2c-0.6-2.3-1.3-4.8-2-7.1c-0.2-0.8-0.3-1.6-0.1-2.3c0.5-2.6,2.7-4.5,5.4-4.5h1.2c-1.4-1.6-2.4-3.4-3-5.3
				l-4.4-14.3c-0.2-0.8-0.3-1.6-0.1-2.4c0.5-2.6,2.8-4.5,5.4-4.5h16.7c3.9,0,5.2,2.6,5.6,3.9l1.7,5.3c0.2,0.1,0.7,0.1,1.4,0.2
				c1.6,0.1,3.2,0.5,4.4,1.4c0.6-4.2,4.2-7.5,8.6-7.5h10.4C480,3.3,483.6,0,488,0h10.8c4.4,0,8,3.3,8.6,7.5h10.5
				c4.8,0,8.7,3.9,8.7,8.7v8.1c0,4.8-3.9,8.7-8.7,8.7h-10.4v2.9h13.4c4.8,0,8.7,3.9,8.7,8.7v6.8c0,4.8-3.9,8.7-8.7,8.7h-18.6
				l-0.5,1.1c0.9-0.3,1.8-0.4,2.7-0.4H517c2.6,0,4.8,2.1,4.9,4.6l7.7,20.5c0.6,1.6,0.8,3.3,0.9,4.4c0,0.4,0,0.7,0,1
				C530.5,97.4,527.5,104.6,513.8,104.6z M468.8,94.7h45.1c6.8,0,6.9-1.7,6.9-3.5c-0.1-0.5-0.1-1.4-0.3-1.8c0,0,0-0.1,0-0.1
				l-7.1-18.8h-7.3c1.3,4.1,2.9,9,3.6,11l0.3,0.8c0.2,0.5,0.3,1,0.3,1.6c0,2.5-1.9,5.2-5.5,5.2h-18.9c-2.7,0-4.9-2.2-4.9-4.9v-0.5
				c0-0.7,0.2-1.4,0.5-2.1l13-28.1c0.9-2.1,3-3.4,5.5-3.4h19.8v-4.4h-13.4c-4.8,0-8.7-3.9-8.7-8.7v-5.3c0-4.8,3.9-8.7,8.7-8.7h10.4
				v-5.8h-10.4c-4.4,0-8-3.3-8.6-7.5h-8.6c-0.6,4.2-4.2,7.5-8.6,7.5h-10.3v5.8h10.3c4.8,0,8.7,3.9,8.7,8.7v5.3
				c0,4.8-3.9,8.7-8.7,8.7h-11.7v4.4h8.7c3.5,0,5.4,2.7,5.4,5.1c0,1.1,0,1.1-3.2,8.3c-1.6,3.7-3.7,8.4-5.7,12.7
				c-2.2,4.8-4.1,9.1-4.8,10.8c-0.1,0.3-0.3,0.6-0.5,0.9L468.8,94.7z M485.8,83.7L485.8,83.7L485.8,83.7z M460.6,82.5
				C460.6,82.5,460.6,82.5,460.6,82.5C460.6,82.5,460.6,82.5,460.6,82.5z M493.3,79.3h5.2c-0.7-2.1-1.5-4.5-2.1-6.6L493.3,79.3z
				 M503.6,57.1C503.6,57.1,503.6,57.1,503.6,57.1C503.6,57.1,503.6,57.1,503.6,57.1z M503.6,57.1C503.6,57.1,503.6,57.1,503.6,57.1
				C503.6,57.1,503.6,57.1,503.6,57.1z M447,55C447,55,447,55,447,55C447,55,447,55,447,55z M447,55C447,55,447,55,447,55
				C447,55,447,55,447,55z M447,55C447,55,447,55,447,55C447,55,447,55,447,55z M456.1,54L456.1,54L456.1,54z M445.5,54l9.4,0.1
				v-4.1c-6.6-0.5-8.1-3.5-10.2-9c0-0.1-0.1-0.1-0.1-0.2h-7.4c0.1,0.5,0.3,1,0.4,1.5c0.6,2.3,1.3,4.6,1.9,6.9c0,0.1,0.1,0.1,0.1,0.2
				c0.1,0.1,0.1,0.3,0.2,0.4l0,0.1c1.3,2,3,3.4,5.2,4.1C445.3,53.9,445.4,53.9,445.5,54z M444.7,54C444.7,54,444.7,54,444.7,54
				C444.7,54,444.7,54,444.7,54z M439.7,49.5C439.7,49.5,439.7,49.5,439.7,49.5C439.7,49.5,439.7,49.5,439.7,49.5z M439.6,48.9
				L439.6,48.9L439.6,48.9z M455,40c0.3,0,0.7,0.1,1.3,0.1c1.2,0,2.4,0.3,3.4,0.8c1.4-2.9,4.4-5,7.9-5h11.7V33H469
				c-1.9,0-3.7-0.6-5.1-1.7c-1.2,3.4-4.4,5.9-8.2,5.9h-1.8c0,0.1,0.1,0.1,0.1,0.2C454.3,38.4,454.7,39.4,455,40z M445.4,27.4
				L445.4,27.4L445.4,27.4z M445.1,27.3h9.4v-3.9c-6-0.5-8.4-3.9-9.3-6.7l-0.8-2.6h-7.9l2.6,8.4c0.6,1.9,2.8,3.9,5.1,4.5
				c0.1,0,0.1,0,0.2,0C444.5,27.2,444.9,27.3,445.1,27.3z M443.3,10.8C443.3,10.8,443.3,10.8,443.3,10.8
				C443.3,10.8,443.3,10.8,443.3,10.8z"/>
		</g>
	</g>
	<g>
		<g>
			<path class="st1" d="M116.5,231.7H96.8c-4.7,0-11.6-0.4-16.7-3.7c-0.4-0.2-1.1-0.7-2.1-1.3c-1.5-1-4.8-3.1-6.9-4.4
				c-1.8,1-4.6,2.6-6.3,3.6c-2.6,1.5-4.1,2.4-4.9,2.8c-5.1,2.9-14,3.1-16.7,3.1H24.8c-3.8,0-6.9-3.1-6.9-6.9v-11.3
				c0-3.8,3.1-6.9,6.9-6.9h13.4l-9.5-4.7c-2.1-0.9-3.6-3.2-3.6-5.5v-11.2c-3.5-0.3-6.3-3.3-6.3-6.9v-10.6c0-2.9,1.8-5.4,4.4-6.4
				c-1.9-1.2-3.2-3.4-3.2-5.8V140c0-3.8,3.1-6.9,6.9-6.9h29.9c0.1-3.7,3.2-6.7,6.9-6.7h16.6c3.7,0,6.8,3,6.9,6.7h29.2
				c3.8,0,6.9,3.1,6.9,6.9v15.4c0,2.5-1.3,4.6-3.2,5.8c2.6,1,4.4,3.5,4.4,6.4v10.6c0,3.6-2.8,6.6-6.3,6.9v11.4
				c0,1.6-0.7,3.8-3.8,5.4c0,0-0.1,0-0.1,0.1l-10.7,5h13.1c3.8,0,6.9,3.1,6.9,6.9v11.1C123.4,228.6,120.3,231.7,116.5,231.7z
				 M71.2,211.8c1.8,0,2.4,0.2,12.1,6.5c0.9,0.6,1.7,1.1,2,1.3c0.1,0,0.1,0.1,0.2,0.1c2.1,1.4,5.9,2.1,11.3,2.1h16.7v-5.1h-12.9
				c-4.4,0-8.2-0.6-11.6-1.9c-0.8-0.3-1.5-0.7-2.2-1.3l-1.4-1.2c-1.1-0.9-1.7-2.3-1.7-3.7c0-1,0.3-2.6,1.8-4c0.4-0.4,0.9-0.7,1.4-1
				l21.2-9.8v-11.6c0-3.6,2.8-6.6,6.3-6.9v-4.6c-3.2-0.3-5.8-2.7-6.3-5.9H99c-0.5,3.3-3.4,5.9-6.8,5.9H50.3c-3.5,0-6.3-2.6-6.8-5.9
				h-8.5c-0.4,3.2-3.1,5.6-6.3,5.9v4.6c3.5,0.3,6.3,3.3,6.3,6.9V194l19.7,9.8c1.7,0.8,2.7,2.5,2.7,4.4c0,0.9-0.3,2.7-2,4.1
				c-0.2,0.1-0.3,0.3-0.5,0.4c-4,2.7-6.5,3.8-11.6,3.8H27.8v5.3h15.4c5,0,10.1-0.8,11.8-1.8c0.1-0.1,0.3-0.2,0.4-0.2
				c0.5-0.2,2.7-1.5,4.4-2.5C68.7,212.2,69.5,211.8,71.2,211.8z M55.6,212.1c0,0-0.1,0.1-0.1,0.1C55.5,212.1,55.6,212.1,55.6,212.1z
				 M53.2,160.8h36.1c0.1-0.9,0.4-1.7,0.8-2.4H52.4C52.8,159.1,53,159.9,53.2,160.8z M103.4,152.4h9.9V143H84.1
				c-3.7,0-6.8-3-6.9-6.7H66.5c-0.1,3.7-3.2,6.7-6.9,6.7H29.8v9.5H41c1.1-2.3,3.5-3.9,6.2-3.9h49.9
				C99.9,148.5,102.2,150.1,103.4,152.4z M71.9,205.1c-1.6,0-2.1,0-22.4-10.4c-0.9-0.5-1.6-0.8-2-1c-3.5-1.3-3.9-4.2-3.9-5.4l-0.1-6
				c0-1.9,0.7-3.6,2-4.9c1.3-1.3,3-2,4.9-2h41.9c3.8,0,6.9,3.1,6.9,6.9v6.4c0,1.4-0.4,4-3.5,5.5l-20.8,10.5c0,0,0,0,0,0
				C73.5,205.1,72.4,205.1,71.9,205.1z M72.6,200L72.6,200L72.6,200z M53.3,185.6c0.2,0.1,0.4,0.2,0.6,0.3c9.3,4.8,15.4,7.7,18,8.9
				l17.3-8.7v-1.1H53.3L53.3,185.6z M53.3,188.2C53.3,188.2,53.3,188.2,53.3,188.2C53.3,188.2,53.3,188.2,53.3,188.2z"/>
		</g>
	</g>
	<g>
		<g>
			<path class="st1" d="M199.6,242.5h-31.1c-1,0-1.9-0.2-2.6-0.3c-0.2,0-0.3-0.1-0.5-0.1c-0.2,0-0.3,0-0.5-0.1
				c-3.5-0.8-7.2-1.8-10.3-5c0,0-0.1-0.1-0.1-0.1c-1.6-1.8-2.9-4-3.7-6.4c-1.7,3.9-4.7,6.6-9,8.1c-1.8,0.6-3.3,0.9-4.7,0.9h-7.4
				c-3.6,0-6.4-2.9-6.4-6.4v-11.5c0-2,1-4,2.6-5.2c0.1-0.1,0.3-0.5,0.3-1.3c0,0,0,0,0,0l3.9-65.1v-0.6c0-2.7,2.2-4.9,4.9-4.9h14.7
				c0.2-3.4,3-6,6.4-6h15.8c3.3,0,6.1,2.6,6.4,5.8h14c1.8,0,3.4,1,4.3,2.4c0.7-1.9,2.5-3.2,4.6-3.2h16.2c2.7,0,4.9,2.2,4.9,4.9v0.4
				l3,64.6c0.1,0.1,0.2,0.2,0.4,0.2c2.2,1.1,3.5,3.3,3.5,5.7v13.2c0,3.6-2.9,6.4-6.4,6.4h-7.1c-2.5,0-6.6-1.1-9.7-3
				C206,239.6,203.1,242.5,199.6,242.5z M166.9,232.4c0.2,0,0.4,0.1,0.6,0.1c0.3,0.1,0.7,0.1,0.9,0.1h27.7v-6h-17.3
				c-5.3,0-10.1-4.7-10.1-9.9v-68.5h-8.9v76.4c0,1.9,0.9,4.3,2.1,5.6C162.9,231.4,164.7,231.9,166.9,232.4z M167,232.4
				C167.1,232.4,167.1,232.4,167,232.4C167.1,232.4,167.1,232.4,167,232.4z M166.8,232.4C166.8,232.4,166.8,232.4,166.8,232.4
				C166.8,232.4,166.8,232.4,166.8,232.4z M133.3,229.7h3.9c0.1,0,0.5,0,1.6-0.4c1.7-0.6,3.5-1.7,3.7-5.9c0,0,0,0,0,0l3.3-69.1h-5.9
				l-3.7,61.3c-0.2,2.9-1.2,5.5-2.9,7.4V229.7z M210.9,227.6c1,0.7,3.7,1.7,4.8,1.7h3.7v-7.9c-1.9-1.5-3.6-3.7-3.8-6.3
				c0,0,0-0.1,0-0.1l-2.9-61.5h-6.3l3.7,69.8C210.4,225.1,210.7,226.8,210.9,227.6z M211,227.8L211,227.8L211,227.8z M179,216.8h0.2
				c-0.2-0.2-0.3-0.4-0.5-0.6c0,0,0-0.1-0.1-0.1v0.4C178.7,216.6,178.8,216.7,179,216.8z M199.1,211.9L199.1,211.9L199.1,211.9z
				 M190.2,211.8l5.4,0.1v-7.1c-0.1,0-0.1-0.1-0.2-0.1c-3-2-4.5-5.9-4.7-8.6l-2.9-41.9H183l2.4,50.5c0.1,2.2,0.7,4.8,1.2,5.8
				C187.4,211,189.3,211.7,190.2,211.8z M190.1,211.8C190.1,211.8,190.1,211.8,190.1,211.8C190.1,211.8,190.1,211.8,190.1,211.8z"/>
		</g>
	</g>
	<g>
		<g>
			<path class="st1" d="M289.5,238.7h-15.4c-3.6,0-6.5-2.9-6.5-6.5v-44.5l-6,24.9c-0.4,1.7-1.3,3.1-2,4.1c-2.4,3.9-7.2,8.4-16,8.4
				h-8.2c-3.6,0-6.5-2.9-6.5-6.5v-12c0-3.5,2.7-6.3,6.2-6.5c0.4-0.4,1.1-1.6,1.7-3.8l9.1-35h-11.9c-3.6,0-6.5-2.9-6.5-6.5v-11.3
				c0-3.6,2.9-6.5,6.5-6.5h91.2c3.6,0,6.5,2.9,6.5,6.5v11.3c0,3.6-2.9,6.5-6.5,6.5h-4.2c0.8,0.8,1.3,1.8,1.5,3c0,0.1,0,0.2,0,0.3
				l4.7,34.2c0,0.2,0.1,0.3,0.1,0.5c3.3,0.3,6,3.1,6,6.5v12.8c0,3.6-2.9,6.5-6.5,6.5h-8c-11.3,0-16.8-4.9-18.5-16.5l-4.2-28.9v52.6
				C296.1,235.7,293.1,238.7,289.5,238.7z M277.5,228.8h8.7v-60.1h-8.7V228.8z M238.7,215.3h4.9c3.7,0,6.1-1.2,7.7-3.9
				c0.1-0.1,0.1-0.2,0.2-0.3c0.3-0.4,0.5-0.8,0.5-0.9l13.1-54.3c0.6-2.7,3-4.6,5.8-4.6h50.9v-4.6h-84.5v4.6h14
				c1.8,0,3.5,0.8,4.5,2.2c1,1.3,1.4,3,1,4.7l-10.5,40.5c-1.4,5.5-4.1,9.1-7.6,10.5V215.3z M304.5,169.3L310,207c1,6.7,2.4,8,8.7,8
				h4.7v-6.6c-3.1-1.1-5.3-4.1-6-8.3c0,0,0-0.1,0-0.1l-4.3-30.8H304.5z M294.6,161.3c0.1,0.1,0.2,0.3,0.3,0.4
				c0.1-0.2,0.2-0.3,0.3-0.4H294.6z M269.9,157.1L269.9,157.1L269.9,157.1z"/>
		</g>
	</g>
	<g>
		<g>
			<path class="st1" d="M369.7,251.4h-30.4c-3.2,0-5.8-2.6-5.8-5.8v-13c0-1.7,0.7-3.1,1.8-4.2v-30.7c0-0.5,0.1-1.1,0.2-1.6
				c-0.7-1-1.2-2.2-1.2-3.5v-38c0-3.2,2.6-5.8,5.8-5.8h29.6c1.6,0,3,0.6,4.1,1.7c0.6,0.6,1.1,1.4,1.4,2.2c1-0.8,2.4-1.3,3.9-1.3
				h34.9c0.9-1.9,2.9-3.3,5.2-3.3h11.2c3.2,0,5.8,2.6,5.8,5.8v6.9c0,3.4-1.5,6.7-4.3,9.5c-0.5,0.6-1.1,1.1-1.7,1.5
				c0.5,0.7,0.9,1.6,1.2,2.6c0,0.1,0.1,0.3,0.1,0.4c2.6,0.6,4.5,3,4.5,5.7v12.3c0,1.7-0.7,3.2-1.9,4.3c1.6,1,2.7,2.9,2.7,4.9v12.9
				c0,3.2-2.6,5.8-5.8,5.8h-0.7l1.7,5.5c0,0,0,0,0,0.1c0.1,0.2,0.2,0.4,0.2,0.5c2.7,0.6,4.6,3,4.6,5.7v11.3c0,3.2-2.6,5.8-5.8,5.8
				h-4.5c-4.5,0-9.4-3.1-11.9-6.2c-0.2-0.2-0.4-0.4-0.5-0.7v1.8c0,3.2-2.6,5.8-5.8,5.8h-12.8c-1.6,0-3-0.6-4.1-1.7
				c-1.1-1.1-1.7-2.6-1.7-4.1v0c-2,2.6-4.7,4.5-7.2,5.6c-0.7,0.3-1.5,0.5-2.3,0.5H373c-0.1,0-0.3,0-0.4,0
				C371.7,251.1,370.7,251.4,369.7,251.4z M343.3,241.5h22.3v-5.1c-2.4-0.7-4.2-2.9-4.2-5.6v-11.2c0-2.3,1.4-4.4,3.4-5.3v-7.6
				c-2-0.9-3.4-3-3.4-5.3v-7.8c0-2,1-3.8,2.7-4.9c0.6-0.4,1.4-1.9,1.4-2.8l0.1-27.4h-21.5v29.9h8c3.2,0,5.8,2.6,5.8,5.8v36.4
				c0,3.2-2.6,5.8-5.8,5.8h-1.4c-2.9,0-5.3-2.1-5.8-4.9c-0.2,1.3-0.8,2.4-1.7,3.3V241.5z M377,240.8h2.4c1.7-1,3.2-2.6,3.5-3.9
				c0-0.1,0-0.2,0.1-0.3c0.4-1.4,1.7-8,2.6-12.7h-2.5c-0.1,0.3-0.1,0.6-0.1,0.8c-0.6,3.5-1.6,9.3-6,11.8L377,240.8z M399.7,240.6
				h4.7v-23.8c0-3.2,2.6-5.8,5.8-5.8h16.9v-4.8h-16.9c-3,0-5.5-2.3-5.8-5.3h-4.7c-0.1,1.3-0.7,2.5-1.6,3.4c-1.1,1.1-2.6,1.8-4.2,1.8
				h-16.4l0,4.9H394c1.6,0,3,0.6,4.1,1.7c1.1,1.1,1.7,2.6,1.7,4.1L399.7,240.6z M422.5,237.2c1.1,1.3,3.5,2.6,4.3,2.6h0.5v-4.6
				c-2-1.3-3.6-3.4-4.4-6.1l-1.6-5.3H419L422.5,237.2z M422.8,239.3C422.8,239.3,422.8,239.3,422.8,239.3
				C422.8,239.3,422.8,239.3,422.8,239.3z M422.8,239.3C422.8,239.3,422.8,239.3,422.8,239.3C422.8,239.3,422.8,239.3,422.8,239.3z
				 M422.8,239.3C422.8,239.3,422.8,239.3,422.8,239.3C422.8,239.3,422.8,239.3,422.8,239.3z M422,236.7c0.1,0.1,0.2,0.2,0.2,0.2
				c0,0,0,0,0,0C422.2,236.9,422.1,236.8,422,236.7z M339.3,236.6C339.3,236.6,339.3,236.6,339.3,236.6
				C339.3,236.6,339.3,236.6,339.3,236.6z M371.3,227c0.3,0.1,0.6,0.2,0.9,0.4c0.4-1.2,0.8-3.2,1-4.2c0.1-0.6,0.2-1.2,0.3-1.8
				c-0.6,0.8-1.3,1.4-2.2,1.8V227z M339.3,226.7C339.3,226.7,339.3,226.7,339.3,226.7C339.3,226.7,339.3,226.7,339.3,226.7z
				 M431.2,206.1L431.2,206.1L431.2,206.1z M414.3,196.2h2.5c-0.8-0.6-1.5-1.2-2.1-1.9c-0.1,0.4-0.3,0.8-0.5,1.1
				C414.2,195.7,414.2,196,414.3,196.2z M385.8,196.1h4.1c0.1-1.3,0.7-2.5,1.6-3.4c0.1-0.1,0.1-0.1,0.2-0.2c-0.2-0.3-0.4-0.7-0.6-1
				c0,0,0-0.1,0-0.1l-0.1-0.1c-0.2-0.4-0.5-1-0.7-1.6C389.6,192.1,387.9,194.4,385.8,196.1z M377,189.5h0.8c0.9,0,2.9-1.7,3.1-2.7
				l4-16.7c0.8-3.5,3.7-5.7,7.5-5.7h27.8c0.1,0,0.1,0,0.2,0c2.7,0.1,4.1-0.4,4.4-0.7c0.1-0.1,0.1-0.1,0.2-0.2c1-1,1.5-1.9,1.5-2.6
				v-2.9h-3.7c-0.9,1.9-2.9,3.3-5.2,3.3h-35.2l-2.7,15.5c0,0.1,0,0.1,0,0.2c-0.4,2-1.3,3.7-2.5,4.9V189.5z M423.7,188.8L423.7,188.8
				L423.7,188.8z M423.6,188.8h2.6v-5.4c-2.1-1.3-3.2-3.2-3.8-4.7h-3.2l1.6,7.7c0,0.1,0.1,0.2,0.1,0.3
				C421.9,187.9,423.1,188.7,423.6,188.8z M399.9,186.9c0.3,0.6,1,1.6,2,1.6h3.2v-4.3c-1.1-0.6-2.1-1.4-2.8-2.5
				c-0.6-0.9-1-1.8-1.2-2.6h-2.5c0.4,2.5,0.8,5,1.2,7.5c0,0,0.1,0.1,0.1,0.1L399.9,186.9z M421.1,187.8
				C421.1,187.8,421.1,187.8,421.1,187.8C421.1,187.8,421.1,187.8,421.1,187.8z M421.1,187.8C421.1,187.8,421.1,187.8,421.1,187.8
				C421.1,187.8,421.1,187.8,421.1,187.8z M399.8,187.5C399.8,187.5,399.8,187.5,399.8,187.5C399.8,187.5,399.8,187.5,399.8,187.5z
				 M421.2,186.8L421.2,186.8C421.2,186.9,421.2,186.8,421.2,186.8z M357.1,184h-3.8c-3.2,0-5.8-2.6-5.8-5.8v-8.7
				c0-3.2,2.6-5.8,5.8-5.8h3.8c3.2,0,5.8,2.6,5.8,5.8v8.7C363,181.4,360.3,184,357.1,184z"/>
		</g>
	</g>
	<g>
		<g>
			<path class="st1" d="M522.5,237h-74.7c-3.5,0-6.4-2.9-6.4-6.4v-40.1c0,0,0-0.1,0-0.1c-1.3-1.2-2.1-2.9-2.1-4.8v-29.8
				c0-1.1,0.3-2.2,0.8-3.1c-0.5-0.9-0.8-2-0.8-3.1v-7.5c0-3.5,2.9-6.4,6.4-6.4h91.7c3.5,0,6.4,2.9,6.4,6.4v7.5
				c0,1.4-0.5,2.7-1.2,3.8c0.2,0.7,0.4,1.4,0.4,2.2v28.9c0,1.2-0.4,2.4-1,3.4c0.4,0.8,0.6,1.7,0.6,2.6V220c0,2.2-1.6,9-3.8,11.6
				C534.3,236.7,524.4,237,522.5,237z M451.3,227.1h71.2c3.7,0,7.6-1,8.6-1.9c0.6-1.1,1.5-4.3,1.6-5.3v-26.1h-81.4V227.1z
				 M531,225.4C531,225.4,531,225.4,531,225.4C531,225.4,531,225.4,531,225.4z M531.3,225C531.3,225,531.3,225,531.3,225
				C531.3,225,531.3,225,531.3,225z M532.7,220C532.7,220,532.7,220,532.7,220L532.7,220z M449.2,182.1h7.1v-16.3
				c0-3.5,2.9-6.4,6.4-6.4h18.2c3.5,0,6.4,2.9,6.4,6.4V181h7.7v-15.1c0-3.5,2.9-6.4,6.4-6.4h19c3.5,0,6.4,2.9,6.4,6.4V181h6.3v-22
				h-31.7c-3.5,0-6.4-2.9-6.4-6.4s2.9-6.4,6.4-6.4h32.6v-0.6h-84.8v0.6h31.7c3.5,0,6.4,2.9,6.4,6.4v0.3c0,3.5-2.9,6.4-6.4,6.4h-31.7
				V182.1z M536.6,158.9L536.6,158.9L536.6,158.9z M518.6,225.2h-16.1c-3.5,0-6.4-2.9-6.4-6.4v-1.7c0-3.5,2.9-6.4,6.4-6.4h16.1
				c3.5,0,6.4,2.9,6.4,6.4v1.7C525,222.4,522.1,225.2,518.6,225.2z M518.6,220.6L518.6,220.6L518.6,220.6z M481.7,225.2h-17.2
				c-3.5,0-6.4-2.9-6.4-6.4v-1.7c0-3.5,2.9-6.4,6.4-6.4h17.2c3.5,0,6.4,2.9,6.4,6.4v1.7C488.2,222.4,485.3,225.2,481.7,225.2z
				 M481.7,220.6L481.7,220.6L481.7,220.6z M518.6,210.2h-16.1c-3.5,0-6.4-2.9-6.4-6.4v-1.9c0-3.5,2.9-6.4,6.4-6.4h16.1
				c3.5,0,6.4,2.9,6.4,6.4v1.9C525,207.4,522.1,210.2,518.6,210.2z M518.6,205.4L518.6,205.4L518.6,205.4z M481.7,210.2h-17.2
				c-3.5,0-6.4-2.9-6.4-6.4v-1.9c0-3.5,2.9-6.4,6.4-6.4h17.2c3.5,0,6.4,2.9,6.4,6.4v1.9C488.2,207.4,485.3,210.2,481.7,210.2z
				 M481.7,205.4L481.7,205.4L481.7,205.4z"/>
		</g>
	</g>
	<g>
		<g>
			<g>
				<path class="st1" d="M134.6,116.4h-13.1c-4.1,0-7.4-3.3-7.4-7.4V78.1h-0.6c-4.1,0-7.4-3.3-7.4-7.4v-9.7c0-2.7,2.2-4.9,4.9-4.9
					h0.5c0.1,0,0.1,0,0.2,0c0.1,0,0.1,0,0.1,0c0.1-0.1,0.4-0.4,0.6-1.2c0.1-0.2,0.4-1.3,0.8-2.6c0.4-1.3,1-3.3,1.6-5.2h-0.3
					c-4.1,0-7.4-3.3-7.4-7.4V24.6c0-4.1,3.3-7.4,7.4-7.4h30.8c0.7-3.3,3.7-5.8,7.2-5.8h13.4c3.5,0,6.5,2.5,7.2,5.8H204
					c4.1,0,7.4,3.3,7.4,7.4V40c0,1.6-0.5,3.1-1.4,4.3c0.6,1,0.9,2.2,0.9,3.5v7.5c0,2-0.8,3.8-2.2,5.2c-0.3,0.3-0.6,0.5-0.9,0.7
					c1.4,1.3,2.2,3.2,2.2,5.2v33.8c0,6.7-3.2,11.8-8.9,14.3l0,0c-0.7,0.3-2.8,1.1-4.2,1.1h-50.5c-2.3,0-4.3-1-5.6-2.6
					C139.4,115.1,137.1,116.4,134.6,116.4z M124,106.5h8.1V70.1c-2.8-1.1-3.6-3.5-3.6-5.1c0-0.5,0.1-0.9,0.2-1.4
					c0.5-1.6,3-10.5,4.7-16.6h-3c-1.7,0-3.3-0.6-4.6-1.6c-0.5,1.7-1.4,4.6-3,9.7c-0.4,1.4-0.7,2.4-0.8,2.6c-1.1,3.5-3.2,6-5.9,7.3
					v3.2h0.6c4.1,0,7.4,3.3,7.4,7.4V106.5z M196,105.9L196,105.9L196,105.9z M148.8,105.9h47.4c0.3-0.1,0.6-0.2,0.8-0.3
					c0.1,0,0.1-0.1,0.2-0.1c1.4-0.6,2.9-1.7,2.9-5.2V69.1h-18.8c-3,0-5.4-2.4-5.4-5.2c0-1.4,0.3-2.2,2.9-7.3l0.2-0.3
					c1.2-2.4,3.8-3.5,5.8-3.5c0,0,0,0,0,0l16.2,0.1v-2.5h-53.2v2.8h17.8c3.5,0,5.5,2.7,5.5,5.1c0,0.8-0.2,1.9-0.9,2.9l-1.8,4
					c-1.1,2.6-3.8,3.8-5.9,3.8h-13.7V105.9z M197,105.6C197,105.6,196.9,105.6,197,105.6C196.9,105.6,197,105.6,197,105.6z
					 M139.3,62.5c0.2,0.2,0.4,0.3,0.6,0.5c0.3-0.5,0.6-1,1-1.4c-0.4-0.3-0.7-0.6-1.1-0.9C139.7,61.3,139.5,61.9,139.3,62.5z
					 M112,56.1L112,56.1L112,56.1z M203.5,52.8L203.5,52.8L203.5,52.8z M117.1,37.2h3.7c0.8,0,1.5,0.1,2.2,0.4
					c0.4-3.7,3.5-6.6,7.3-6.6h56.9c3.8,0,6.9,2.9,7.3,6.5h6.9V27.1h-30.5c-3.5,0-6.5-2.5-7.2-5.8H155c-0.7,3.3-3.7,5.8-7.2,5.8
					h-30.7V37.2z M204,27.1L204,27.1L204,27.1z M184.1,103.3h-19.5c-4.1,0-7.4-3.3-7.4-7.4v-0.3c0-4.1,3.3-7.4,7.4-7.4h19.8
					c2.5,0,4.8,1.3,6.2,3.4c1.3,2.1,1.6,4.6,0.6,6.8C189.9,101.5,187.2,103.3,184.1,103.3z M184.4,98.1L184.4,98.1L184.4,98.1z
					 M184.7,87.2h-20.1c-4.1,0-7.4-3.3-7.4-7.4c0-4.1,3.3-7.4,7.4-7.4h20.1c4.1,0,7.4,3.3,7.4,7.4C192,83.9,188.7,87.2,184.7,87.2z
					 M184.7,82.4L184.7,82.4L184.7,82.4z"/>
			</g>
		</g>
		<g>
			<g>
				<path class="st1" d="M185.1,103.3h-20.9c-3.8,0-6.9-3.1-6.9-6.9V79.1c0-3.1,2-5.9,5-6.9l10.9-3.6c1-0.3,2.1-0.3,3.1,0l10.9,3.6
					c3,1,5,3.8,5,6.9v17.2C192,100.2,188.9,103.3,185.1,103.3z M167.1,93.4h15.1V81l-7.5-2.5l-7.5,2.5V93.4z"/>
			</g>
		</g>
		<g>
			<g>
				<path class="st1" d="M182.9,95.1h-16.6c-3.1,0-5.6-2.5-5.6-5.6v-4.9c0-3.1,2.5-5.6,5.6-5.6h16.6c3.1,0,5.6,2.5,5.6,5.6v4.9
					C188.5,92.6,186,95.1,182.9,95.1z"/>
			</g>
		</g>
	</g>
	<g>
		<g>
			<g>
				<path class="st1" d="M277.5,118.6c-4.6,0-8.3-3.7-8.3-8.3c0-4.6,3.7-8.3,8.3-8.3c4.6,0,8.3,3.7,8.3,8.3
					C285.8,114.9,282.1,118.6,277.5,118.6z M277.5,108.7c-0.8,0-1.5,0.7-1.5,1.5c0,0.8,0.7,1.5,1.5,1.5s1.5-0.7,1.5-1.5
					C279,109.4,278.3,108.7,277.5,108.7z"/>
			</g>
		</g>
		<g>
			<g>
				<path class="st1" d="M289.5,117.7c-4.1,0-7.4-3.3-7.4-7.4s3.3-7.4,7.4-7.4c4.1,0,7.4,3.3,7.4,7.4S293.6,117.7,289.5,117.7z
					 M289.5,107.8c-1.3,0-2.4,1.1-2.4,2.4c0,1.3,1.1,2.4,2.4,2.4s2.4-1.1,2.4-2.4C291.9,108.9,290.8,107.8,289.5,107.8z"/>
			</g>
		</g>
		<g>
			<g>
				<path class="st1" d="M299.8,116.9c-3.7,0-6.6-3-6.6-6.6c0-3.7,3-6.6,6.6-6.6c3.7,0,6.6,3,6.6,6.6
					C306.5,113.9,303.5,116.9,299.8,116.9z"/>
			</g>
		</g>
		<g>
			<g>
				<path class="st1" d="M308.8,116.2c-3.3,0-5.9-2.7-5.9-5.9s2.7-5.9,5.9-5.9s5.9,2.7,5.9,5.9S312.1,116.2,308.8,116.2z"/>
			</g>
		</g>
	</g>
	<g>
		<g>
			<path class="st1" d="M534.1,153.4c-1.6,0-3.1-0.8-4-2.1l-2.4-3.4l-12.7,2.6c-1.9,0.4-3.8-0.3-4.9-1.9c-1.1-1.5-1.3-3.6-0.4-5.3
				l16.4-31.1c1.1-2.1,3.5-3.1,5.8-2.4c2.3,0.7,3.7,2.9,3.5,5.2L534,129l10.4-2.8c2-0.5,4.1,0.2,5.3,1.9c1.2,1.7,1.2,3.9,0.1,5.6
				l-11.5,17.5C537.3,152.5,535.8,153.4,534.1,153.4C534.2,153.4,534.1,153.4,534.1,153.4z M533.6,139.3c0.1,0.1,0.1,0.2,0.2,0.3
				l0.1,0.2l0.4-0.6L533.6,139.3z M523.9,137.5l-0.6,1.2l1.2-0.2C524.2,138.2,524,137.9,523.9,137.5z"/>
		</g>
	</g>
	<g>
		<g>
			<path class="st1" d="M507.7,153.4c-1.2,0-2.5-0.5-3.5-1.4c-1.4-1.4-1.8-3.3-1.2-5.1c-0.4-0.3-0.8-0.6-1.1-1.1
				c-1.1-1.5-1.3-3.6-0.4-5.3l8.4-16c1.1-2.1,3.5-3.1,5.8-2.4c2.3,0.7,3.7,2.9,3.5,5.2l-0.4,3.7l2-0.5c2.2-0.6,4.5,0.4,5.6,2.4
				c1.1,2,0.7,4.5-1,6L511,152.1C510.1,153,508.9,153.4,507.7,153.4z"/>
		</g>
	</g>
	<g>
		<g>
			<path class="st1" d="M443.3,104.6c-2.3,0-4.4-1.1-5.6-3l-13.9-20.4c-1.6-2.4-1.6-5.4,0-7.8c1.6-2.4,4.5-3.4,7.3-2.7l11.5,2.9
				l16.3-14.5c2.5-2.3,6.3-2.3,8.9-0.2c2.6,2.2,3.3,5.9,1.5,8.8l-20.1,33.5c-1.2,2-3.3,3.2-5.7,3.3
				C443.5,104.6,443.4,104.6,443.3,104.6z M445.8,96L445.8,96L445.8,96z M436.4,82.3l6.8,9.9l7.5-12.4l-2.7,2.4
				c-1.7,1.5-4,2.1-6.2,1.5L436.4,82.3z M431.9,75.7L431.9,75.7L431.9,75.7z"/>
		</g>
	</g>
	<g>
		<g>
			<g>
				<path class="st1" d="M15.9,213.7c-1,0-2-0.3-3-0.8c-1.8-1.1-2.9-3.2-2.7-5.3l0.1-0.8l-0.6-0.5c-1.7-1.4-2.4-3.6-1.9-5.7
					c0.5-2.1,2.1-3.7,4.2-4.2l0.7-0.2l0.3-0.7c0.8-2,2.6-3.4,4.8-3.5c2.2-0.2,4.2,0.9,5.3,2.7l0.4,0.7l0.8,0.1
					c2.2,0.1,4,1.5,4.8,3.5c0.8,2,0.4,4.2-1,5.9l-0.5,0.6l0.2,0.7c0.5,2.1-0.2,4.3-1.8,5.7c-1.6,1.4-3.9,1.7-5.9,0.9c0,0,0,0,0,0
					l-0.7-0.3l-0.6,0.4C18,213.4,17,213.7,15.9,213.7z M12.1,208.2C12.1,208.2,12.1,208.2,12.1,208.2L12.1,208.2z M26.3,207.1
					L26.3,207.1C26.3,207.1,26.3,207.1,26.3,207.1z M24.2,203.7L24.2,203.7C24.2,203.7,24.2,203.7,24.2,203.7z M20.9,198.4
					C20.9,198.4,20.9,198.4,20.9,198.4L20.9,198.4z"/>
			</g>
		</g>
	</g>
	<g>
		<g>
			<g>
				<path class="st1" d="M10.7,229.6c-0.1,0-0.2,0-0.3,0c-2.2-0.1-4-1.4-4.9-3.4l-0.3-0.7l-0.7-0.2c-2.1-0.4-3.8-2-4.3-4.1
					c-0.5-2.1,0.1-4.3,1.8-5.7l0.6-0.5l-0.1-0.8c-0.2-2.2,0.7-4.2,2.6-5.4c1.8-1.2,4.1-1.2,6-0.1l0.7,0.4l0.7-0.3
					c2-0.9,4.2-0.6,5.9,0.8c1.7,1.4,2.4,3.5,1.9,5.6l-0.2,0.7l0.5,0.6c1.5,1.6,1.9,3.8,1.1,5.9c-0.8,2-2.6,3.4-4.8,3.6l-0.8,0.1
					l-0.4,0.7C14.6,228.5,12.8,229.6,10.7,229.6z M7.4,225.9C7.4,225.9,7.4,225.9,7.4,225.9L7.4,225.9z M17.1,224.1L17.1,224.1
					C17.1,224.1,17.1,224.1,17.1,224.1z M4.4,223.4C4.4,223.4,4.4,223.4,4.4,223.4L4.4,223.4z M2.8,217.2
					C2.8,217.2,2.8,217.2,2.8,217.2L2.8,217.2z M10.5,213C10.5,213.1,10.5,213.1,10.5,213L10.5,213z M9.6,210.1
					C9.6,210.1,9.6,210.1,9.6,210.1L9.6,210.1z"/>
			</g>
		</g>
	</g>
	<g>
		<g>
			<path class="st2" d="M12,97.2V46.7c0-1.7-1.4-3.1-3.1-3.1h0c-1.7,0-3.1-1.4-3.1-3.1v-8.4c0-1.2,0.7-2.3,1.9-2.8
				c2.2-1,3.8-2.9,4.6-5.3l5.1-15.9c0.1-0.4,0.5-0.7,1-0.7h17.2c0.2,0,0.6,0,0.6,0.3c0,0.1-0.1,0.2-0.2,0.4l-6.8,23.2
				c-0.1,0.5-0.2,1.1-0.2,1.5v64.3c0,1.7-1.4,3.1-3.1,3.1H15.1C13.4,100.2,12,98.8,12,97.2z M80.8,15.7h16.7c1.7,0,3.1,1.4,3.1,3.1
				v7.1c0,1.7-1.4,3.1-3.1,3.1H80.3c-1.7,0-3.1,1.4-3.1,3.1v13.5c0,1.7,1.4,3.1,3.1,3.1h16.2c1.7,0,3.1,1.4,3.1,3.1v9.1
				c0,1.7-1.4,3.1-3.1,3.1H80.3c-1.7,0-3.1,1.4-3.1,3.1v15.4c0,1.7,1.4,3.1,3.1,3.1h18.9c1.7,0,3.1,1.4,3.1,3.1v7.7
				c0,1.7-1.4,3.1-3.1,3.1H38.7c-1.7,0-3.1-1.4-3.1-3.1v-7.7c0-1.7,1.4-3.1,3.1-3.1H55c1.7,0,3.1-1.4,3.1-3.1V66.8
				c0-1.7-1.4-3.1-3.1-3.1H41.4c-1.7,0-3.1-1.4-3.1-3.1v-9.1c0-1.7,1.4-3.1,3.1-3.1H55c1.7,0,3.1-1.4,3.1-3.1V32
				c0-1.7-1.4-3.1-3.1-3.1H40.1c-1.7,0-3.1-1.4-3.1-3.1v-7.1c0-1.7,1.4-3.1,3.1-3.1H55c1.7,0,3.1-1.4,3.1-3.1v-2.5
				c0-1.7,1.4-3.1,3.1-3.1h13.5c1.7,0,3.1,1.4,3.1,3.1v2.5C77.7,14.4,79.1,15.7,80.8,15.7z"/>
		</g>
	</g>
	<g>
		<g>
			<path class="st3" d="M247.5,100.1c-3.2,0-6.7-2.4-9-4.8c-0.7-0.7-1.8-0.6-2.5,0.1c-1.7,2.2-4,4.3-6.9,4.3h-9.9
				c-0.9,0-1.6-0.7-1.6-1.6l0.1-8.9c0.5-0.6,0.8-1,1.3-1.6c0.9-0.2,1.8-0.7,2.5-1.3c0.3-0.3,0.5-0.7,0.5-1.2l0-23.9
				c0-0.9-0.7-1.6-1.6-1.6H220c-0.9,0-1.6-0.7-1.6-1.6v-9.3c0-0.9,0.7-1.6,1.6-1.6h16.2c0.9,0,1.6,0.7,1.6,1.6v32.8
				c0,0.4,0.4,1.9,0.6,2.2c1.3,3.5,3.8,5.3,7.5,5.3h62c2.4,0,4.3,1.9,4.3,4.3v5.1c0,0.9-0.7,1.6-1.6,1.6L247.5,100.1z M220.8,22.3
				v-12c0-0.9,0.7-1.6,1.6-1.6h12.9c0.9,0,1.6,0.7,1.6,1.6v12c0,0.9-0.7,1.6-1.6,1.6h-12.9C221.5,23.9,220.8,23.2,220.8,22.3z
				 M220.8,42.2V29.7c0-0.9,0.7-1.6,1.6-1.6h12.9c0.9,0,1.6,0.7,1.6,1.6v12.5c0,0.9-0.7,1.6-1.6,1.6h-12.9
				C221.5,43.9,220.8,43.1,220.8,42.2z M243.5,70.7v-7.3c0-0.9,0.7-1.6,1.6-1.6h5.7c0.9,0,1.6-0.7,1.6-1.6v-0.7
				c0-0.9-0.7-1.6-1.6-1.6h-5.7c-0.9,0-1.6-0.7-1.6-1.6v-8.6c0-0.9,0.7-1.6,1.6-1.6h5.1c0.9,0,1.6-0.7,1.6-1.6v0
				c0-0.9-0.7-1.6-1.7-1.6l-2.7,0.1c-3,0.1-4.7-2.3-5.7-4.9c0-0.1-0.1-0.2-0.1-0.2c-0.1-0.3-0.3-1.2-0.3-1.4V9.9
				c0-0.9,0.7-1.6,1.6-1.6h29.7c0.9,0,1.6,0.7,1.6,1.6v14.3c0,0.3-0.1,0.6-0.3,0.9c-1.3,2-3.1,3.4-5.3,4.1c-0.1,0-0.1,0-0.2,0.1
				c-0.2,0.1-1,0.3-1.1,0.3h-11.5c-0.9,0-1.6,0.7-1.6,1.6v0.7c0,0.9,0.7,1.6,1.6,1.6h16.7c0.9,0,1.6,0.7,1.6,1.6v6
				c0,0.9-0.7,1.6-1.6,1.6H271c-0.9,0-1.6,0.7-1.6,1.6v0.3c0,0.9,0.7,1.6,1.6,1.6h16.8c0.9,0,1.6-0.7,1.6-1.6v-0.3
				c0-0.9-0.7-1.6-1.6-1.6h-2.7c-2.9,0-4.9-1.6-6-4.2c-0.1-0.3-0.6-1.7-0.6-2V9.9c0-0.9,0.7-1.6,1.6-1.6h29.7c0.9,0,1.6,0.7,1.6,1.6
				v13.3c0,0.2-0.3,1.3-0.4,1.6c-1.1,2.7-3.1,4.1-6,4.1h-12c-0.9,0-1.6,0.7-1.6,1.6v1.3c0,0.9,0.7,1.6,1.6,1.6h17.5
				c0.9,0,1.6,0.7,1.6,1.6v6c0,0.9-0.7,1.6-1.6,1.6h-2.6c-0.9,0-1.6,0.7-1.6,1.6v0.3c0,0.9,0.7,1.6,1.6,1.6h2.8
				c0.9,0,1.6,0.7,1.6,1.6v8.6c0,0.9-0.7,1.6-1.6,1.6h-2.8c-0.9,0-1.6,0.7-1.6,1.6v0.7c0,0.9,0.7,1.6,1.6,1.6h2.8
				c0.9,0,1.6,0.7,1.6,1.6v7.3c0,0.9-0.7,1.6-1.6,1.6h-65.5C244.2,72.4,243.5,71.6,243.5,70.7z M266.6,82.8c-1.9,2.7-5.8,3.9-9,3.9
				h-13.3c-0.9,0-1.6-0.7-1.6-1.6v-6.2h1.1c3.7,0,7-1.7,9.7-4.2c0.3-0.3,0.7-0.4,1.1-0.4h17.6c0.1,0,0.5,0,0.5,0.1
				C270.5,77.3,268.6,80.1,266.6,82.8z M260.1,17h-4.6c-0.9,0-1.6,0.7-1.6,1.6v0.8c0,0.9,0.7,1.6,1.6,1.6h4.6c0.9,0,1.6-0.7,1.6-1.6
				v-0.8C261.7,17.8,261,17,260.1,17z M287.8,57.9H271c-0.9,0-1.6,0.7-1.6,1.6v0.7c0,0.9,0.7,1.6,1.6,1.6h16.8
				c0.9,0,1.6-0.7,1.6-1.6v-0.7C289.4,58.6,288.7,57.9,287.8,57.9z M296.1,86.7c-2.2,0-6.9-1.7-8.1-3.6l-5.3-7.9
				c-0.2-0.6,0.1-0.6,0.3-0.6l17.4-0.1c0.5,0,1,0.2,1.3,0.6c2.1,2.6,5.1,3.7,8.3,3.8c0.8,0,1.5,0.6,1.6,1.4c0.2,1.5,0.4,3.2,0.5,4.7
				c0.1,0.9-0.7,1.7-1.6,1.7L296.1,86.7z M298.1,16.8h-5.2c-0.9,0-1.6,0.7-1.6,1.6v0.7c0,0.9,0.7,1.6,1.6,1.6h5.2
				c0.9,0,1.6-0.7,1.6-1.6v-0.7C299.8,17.5,299,16.8,298.1,16.8z"/>
		</g>
	</g>
	<g>
		<g>
			<path class="st4" d="M405.3,60c-2.7-1.1-5.5-4.1-7.5-6.8c-0.7-0.9-1.9-1.5-3.1-1.5L343,51.6c-0.3,0-1.1,0.2-1.3,0.5
				c-0.8,1.6-1.7,3.2-2.6,4.8c-1.6,2.7-5.8,4.4-8.8,4.4h-3.7c-2.2,0-4-1.8-3.9-4l0.1-8.2c0-1.2,0.6-2.3,1.6-3
				c2.1-1.6,3.4-4.4,4.3-6.7l8.9-23.3c0.1-0.3,0.6-0.4,1-0.4h62.6c0.4,0,0.8,0.1,1.1,0.5l9.3,23.5c0.8,2,2.9,4,5,5.1
				c1.3,0.7,2.1,2,2.1,3.5v8c0,2.2-1.8,3.9-3.9,3.9h-8.1C406.2,60.4,405.5,60.1,405.3,60z M409.6,65.8c2.2,0,3.9,1.8,3.9,3.9l0.1,30
				c0,0.3-0.4,1.7-0.5,2c-1.3,4-4.9,7.2-9.2,7.2h-73.6c-2.2,0-3.9-1.8-3.9-3.9V69.7c0-2.2,1.8-3.9,3.9-3.9H409.6z M394.4,90.7v-7.5
				c0-2.2-1.8-3.9-3.9-3.9h-40.6c-2.2,0-3.9,1.8-3.9,3.9v7.5c0,2.2,1.8,3.9,3.9,3.9h40.6C392.6,94.6,394.4,92.9,394.4,90.7z
				 M391,38.9c0-0.7-2.9-8-3.3-9.2c-0.1-0.3-0.5-0.4-0.8-0.4h-35.7c-0.3,0-0.6,0.2-0.8,0.4l-3.4,8.9c0,0.3,0,1,0.4,1h43.1
				C390.9,39.5,391,39.3,391,38.9z"/>
		</g>
	</g>
	<g>
		<g>
			<path class="st4" d="M444.7,32.3c-0.2,0-1.5-0.3-1.8-0.4c-3.7-1.1-7.3-4.1-8.4-7.8c-1.5-4.8-3-9.5-4.4-14.3
				c0.1-0.5,0.5-0.5,0.5-0.5h16.7c0.5,0,0.8,0,1,0.5l1.8,5.5c0.8,2.7,3.3,3.2,5.9,3.3c2,0.1,3.6,1.7,3.6,3.7v6.2
				c0,2.1-1.7,3.7-3.7,3.7H444.7z M444.7,58.9c-0.1,0-1.1-0.3-1.2-0.4c-3.2-1.1-5.8-3.2-7.7-6.2c-0.1-0.1-0.1-0.2-0.2-0.3
				c-0.2-0.4-0.6-0.9-0.7-1.3c-1.4-4.8-2.6-9.6-4-14.4c0.1-0.5,0.4-0.5,0.5-0.5h15.6c0.3,0,1.1,0,1.2,0.5c3,7.6,2.5,8.6,8,8.7
				c2,0.1,3.7,1.7,3.7,3.7v6.4c0,2.1-1.7,3.8-3.8,3.7L444.7,58.9z M513.8,99.7h-46.2c-2.1,0-3.7-1.7-3.7-3.7l-0.1-9.1
				c0-0.3,0.1-0.7,0.4-1c0.2-0.2,0.4-0.5,0.5-0.8c2.1-4.7,13.2-29.6,13.2-29.8c0-0.2-0.2-0.2-0.4-0.2h-9.9c-2.1,0-3.7-1.7-3.7-3.7
				v-6.8c0-2.1,1.7-3.7,3.7-3.7h12.9c2.1,0,3.7-1.7,3.7-3.7v-5.3c0-2.1-1.7-3.7-3.7-3.7H469c-2.1,0-3.7-1.7-3.7-3.7v-8.1
				c0-2.1,1.7-3.7,3.7-3.7h11.5c2.1,0,3.7-1.7,3.7-3.7v0c0-2.1,1.7-3.7,3.7-3.7h10.8c2.1,0,3.7,1.7,3.7,3.7v0c0,2.1,1.7,3.7,3.7,3.7
				h11.6c2.1,0,3.7,1.7,3.7,3.7v8.1c0,2.1-1.7,3.7-3.7,3.7h-11.6c-2.1,0-3.7,1.7-3.7,3.7v5.3c0,2.1,1.7,3.7,3.7,3.7h14.6
				c2.1,0,3.7,1.7,3.7,3.7v6.8c0,2.1-1.7,3.7-3.7,3.7h-21c-0.4,0-0.8,0.1-1,0.4l-13.1,28.2v0.5h18.9c0.2,0,0.5,0,0.5-0.3
				c-0.4-1.2-2.8-8.4-4.4-13.4c-0.8-2.4,1.1-4.9,3.6-4.9H517v0.6l8,21.3c0.4,1,0.5,2.1,0.6,3.2c0,0.2,0,0.3,0,0.5
				C525.5,98.3,520,99.7,513.8,99.7z"/>
		</g>
	</g>
	<g>
		<g>
			<path class="st2" d="M94.1,163.8v-2c0-1.1,0.9-2,2-2h15c1.1,0,2,0.9,2,2v2c0,1.1,0.9,2,2,2h2.4c1.1,0,2,0.9,2,2v10.6
				c0,1.1-0.9,2-2,2H115c-1.1,0-2,0.9-2,2v14.3c0,0.4-0.6,0.7-1.1,1l-23,10.7c-0.1,0.1-0.3,0.3-0.3,0.5l1.4,1.2
				c0.2,0.2,0.4,0.3,0.6,0.4c3.2,1.2,6.5,1.6,9.9,1.6h15.9c1.1,0,2,0.9,2,2v11.1c0,1.1-0.9,2-2,2H96.8c-4.5,0-10.2-0.4-14-3
				c-1.4-0.8-10.8-7.1-11.5-7.1c-0.8,0-12,6.8-13.6,7.5c-3.4,2-10.5,2.5-14.4,2.5H24.8c-1.1,0-2-0.9-2-2v-11.3c0-1.1,0.9-2,2-2h18.4
				c4,0,5.6-0.7,8.9-3c0.1-0.1,0.3-0.2,0.3-0.4l-21.6-10.8c-0.3-0.1-0.7-0.6-0.7-1.1v-14.2c0-1.1-0.9-2-2-2h-2.4c-1.1,0-2-0.9-2-2
				v-10.6c0-1.1,0.9-2,2-2h2.4c1.1,0,2-0.9,2-2v-2c0-1.1,0.9-2,2-2h14.4c1.1,0,2,0.9,2,2v2c0,1.1,0.9,2,2,2h41.9
				C93.3,165.7,94.1,164.8,94.1,163.8z M118.2,140v15.4c0,1.1-0.9,2-2,2h-15.2c-1.1,0-2-0.9-2-2l0,0c0-1.1-0.9-2-2-2H47.2
				c-1.1,0-2,0.9-2,2l0,0c0,1.1-0.9,2-2,2H26.8c-1.1,0-2-0.9-2-2V140c0-1.1,0.9-2,2-2h32.8c1.1,0,2-0.9,2-2v-2.7c0-1.1,0.9-2,2-2
				h16.6c1.1,0,2,0.9,2,2v2.7c0,1.1,0.9,2,2,2h32.2C117.3,138,118.2,138.9,118.2,140z M72.6,200l20.8-10.5c0.4-0.2,0.7-0.4,0.7-1.1
				v-6.4c0-1.1-0.9-2-2-2H50.3c-1.1,0-2,0.9-2,2l0.1,6c0,0.7,0.4,0.7,1,1c2.3,1.2,21.4,11,22.5,11C72.1,200.1,72.4,200.1,72.6,200z"
				/>
		</g>
	</g>
	<g>
		<g>
			<path class="st2" d="M147.4,223.6c-0.2,5-2.3,8.8-7.1,10.3c-1,0.3-2.1,0.6-3.2,0.6h-7.4c-0.8,0-1.5-0.7-1.5-1.5v-11.5
				c0-0.5,0.2-0.9,0.6-1.2c1.6-1.2,2.2-3.1,2.3-5l3.9-65.3c0-0.2,0-0.4,0-0.7h15.7v0.5L147.4,223.6z M168.5,237.6
				c-0.8,0-1.7-0.2-2.4-0.3c0,0-0.1,0-0.1,0c-2.8-0.6-5.7-1.4-7.8-3.6c-2.1-2.3-3.4-5.9-3.4-9v-79.8c0-0.8,0.7-1.5,1.5-1.5h15.8
				c0.8,0,1.5,0.7,1.5,1.5v71.9c0,2.5,2.7,5,5.2,5h20.8c0.8,0,1.5,0.7,1.5,1.5v12.8c0,0.8-0.7,1.5-1.5,1.5H168.5z M190.1,216.8
				c-1.9,0-6.3-1.8-7.4-3.4c-1.4-2-2.1-6.1-2.2-8.6l-2.6-55.1v-0.5h14.7v0.4l3.2,46.1c0.1,1.5,1.1,3.8,2.5,4.8
				c0.2,0.2,0.5,0.3,0.8,0.3l0,0c0.8,0,1.5,0.7,1.5,1.5v13c0,0.8-0.7,1.5-1.5,1.5L190.1,216.8z M215.8,234.2c-2.4,0-7.2-1.7-8.8-3.6
				c-1.2-1.5-1.6-5.4-1.7-7.2l-3.9-74.2v-0.7h16.2v0.5l3.1,65.7c0.1,1.3,1.6,2.8,3,3.5c0.5,0.3,0.8,0.8,0.8,1.3v13.2
				c0,0.8-0.7,1.5-1.5,1.5H215.8z"/>
		</g>
	</g>
	<g>
		<g>
			<path class="st3" d="M270.8,156.3c-0.4,0-0.8,0.2-1,0.7l-13.1,54.4c-0.2,0.8-0.7,1.8-1.3,2.5c-2.7,4.4-6.9,6.2-11.9,6.2h-8.2
				c-0.9,0-1.6-0.7-1.6-1.6v-12c0-0.9,0.7-1.6,1.6-1.6l0,0c3.6,0,5.4-4.6,6.1-7.5l10.5-40.4c0.1-0.4-0.3-0.7-0.7-0.7h-17.3
				c-0.9,0-1.6-0.7-1.6-1.6v-11.3c0-0.9,0.7-1.6,1.6-1.6h91.2c0.9,0,1.6,0.7,1.6,1.6v11.3c0,0.9-0.7,1.6-1.6,1.6H270.8z
				 M272.5,232.2v-66.8c0-0.9,0.7-1.6,1.6-1.6h15.4c0.9,0,1.6,0.7,1.6,1.6v66.8c0,0.9-0.7,1.6-1.6,1.6h-15.4
				C273.2,233.7,272.5,233,272.5,232.2z M318.8,220c-9.1,0-12.4-3.5-13.6-12.2l-6.2-42.6c0-0.1,0-0.2,0-0.4c0-0.3,0.2-0.4,0.5-0.4
				h17.2c0.4,0,0.8,0.3,1,0.8l4.8,34.2c0.3,2,1.4,4.6,3.8,4.6h0.6c0.9,0,1.6,0.7,1.6,1.6v12.8c0,0.9-0.7,1.6-1.6,1.6H318.8z"/>
		</g>
	</g>
	<g>
		<g>
			<path class="st4" d="M369.7,203.2v14.6c0,0.5-0.4,0.9-0.9,0.9h-1.6c-0.5,0-0.9,0.4-0.9,0.9v11.2c0,0.5,0.4,0.9,0.9,0.9h2.4
				c0.5,0,0.9,0.4,0.9,0.9v13c0,0.5-0.4,0.9-0.9,0.9h-30.4c-0.5,0-0.9-0.4-0.9-0.9v-13c0-0.5,0.4-0.9,0.9-0.9l0,0
				c0.5,0,0.9-0.4,0.9-0.9v-33.2c0-0.5,0.4-0.9,0.9-0.9h7.9c0.5,0,0.9,0.4,0.9,0.9v33.2c0,0.5,0.4,0.9,0.9,0.9h1.4
				c0.5,0,0.9-0.4,0.9-0.9v-36.4c0-0.5-0.4-0.9-0.9-0.9h-12c-0.5,0-0.9-0.4-0.9-0.9v-38c0-0.5,0.4-0.9,0.9-0.9h29.6
				c0.5,0,0.9,0.4,0.9,0.9l-0.1,31.4c0,2.5-1.6,5.6-3.7,6.9c-0.3,0.2-0.4,0.4-0.4,0.7v7.8c0,0.5,0.4,0.9,0.9,0.9h1.6
				C369.3,202.3,369.7,202.7,369.7,203.2z M358,178.2v-8.7c0-0.5-0.4-0.9-0.9-0.9h-3.8c-0.5,0-0.9,0.4-0.9,0.9v8.7
				c0,0.5,0.4,0.9,0.9,0.9h3.8C357.6,179.1,358,178.7,358,178.2z M391.3,219.4c0,1.3-3.1,16.3-3.6,18.4c-0.6,3.4-4,6.5-7,7.8
				c-0.1,0.1-0.2,0.1-0.4,0.1H373c-0.5,0-0.9-0.4-0.9-0.9l-0.1-11.2c0-0.5,0.4-0.9,0.9-0.9c6.4-0.6,4.2-13.7,7.4-13.7h10.3
				C390.9,219,391.2,219.1,391.3,219.4z M431.4,160.8c0,2.3-1.3,4.4-3,6.1c-1.9,2.1-5.6,2.4-8.2,2.3h-27.8c-1.4,0-2.4,0.5-2.7,1.9
				l-4,16.7c-0.7,3.2-4.6,6.5-7.9,6.5H373c-0.5,0-0.9-0.4-0.9-0.9v-13.8c0-0.4,0.2-0.7,0.5-0.8c1.2-0.5,1.8-1.8,2.1-3.1l3.4-19
				c0.1-0.4,0.6-0.5,1.1-0.5h38.4c0.5,0,0.9-0.4,0.9-0.9v-1.5c0-0.5,0.4-0.9,0.9-0.9h11.2c0.5,0,0.9,0.4,0.9,0.9V160.8z
				 M410.2,201.1h20.9c0.5,0,0.9,0.4,0.9,0.9v12.9c0,0.5-0.4,0.9-0.9,0.9h-20.9c-0.5,0-0.9,0.4-0.9,0.9v27.9c0,0.5-0.4,0.9-0.9,0.9
				h-12.8c-0.5,0-0.9-0.4-0.9-0.9l0.1-27.9c0-0.5-0.4-0.9-0.9-0.9h-20.4c-0.5,0-0.9-0.4-0.9-0.9l-0.1-13c0-0.5,0.4-0.9,0.9-0.9H394
				c0.5,0,0.9-0.4,0.9-0.9l-0.1-3.3c0-0.5,0.4-0.9,0.9-0.9h12.8c0.5,0,0.9,0.4,0.9,0.9v3.5C409.3,200.7,409.7,201.1,410.2,201.1z
				 M410,192.5c0,0.5-0.4,0.9-0.9,0.9h-7.2c-2.9,0-5.1-1.8-6.3-4.2c-0.2-0.4-0.6-1.2-0.6-1.7c-0.7-4.2-1.4-8.4-2-12.7
				c-0.2-0.6,0.2-0.6,0.4-0.6h10.6c2.2,0,0.7,5.9,4.9,5.9h0.4c0.5,0,0.9,0.4,0.9,0.9V192.5z M432.2,243.9c0,0.5-0.4,0.9-0.9,0.9
				h-4.5c-2.9,0-6.5-2.4-8.2-4.5c-0.1-0.1-0.6-0.8-0.6-1l-5.1-19.5c0-0.6,0.2-0.7,0.5-0.7h10.5c0.4,0,1,0.2,1.2,0.6l2.5,8.1
				c0.6,1.9,1.9,3.6,3.8,3.9c0.5,0.1,0.8,0.4,0.8,0.9V243.9z M431.2,192.9c0,0.5-0.4,0.9-0.9,0.9h-6.7c-2.6,0-5.3-2.4-6.7-4.5
				c0,0,0-0.1-0.1-0.1c-0.1-0.3-0.6-1.1-0.6-1.3c-1-4.4-1.9-8.9-2.9-13.3c-0.1-0.6,0.2-0.7,0.5-0.7h11.2c2.4,0,0.8,5.3,5.3,5.9
				c0.5,0.1,0.8,0.4,0.8,0.9V192.9z"/>
		</g>
	</g>
	<g>
		<g>
			<path class="st4" d="M499.9,152.5L499.9,152.5c0,0.8,0.7,1.5,1.5,1.5h35.2c0.8,0,1.5,0.7,1.5,1.5v28.9c0,0.8-0.7,1.5-1.5,1.5
				h-13.2c-0.8,0-1.5-0.7-1.5-1.5v-18.6c0-0.8-0.7-1.5-1.5-1.5h-19c-0.8,0-1.5,0.7-1.5,1.5v18.6c0,0.8-0.7,1.5-1.5,1.5h-14.6
				c-0.8,0-1.5-0.7-1.5-1.5v-18.6c0-0.8-0.7-1.5-1.5-1.5h-18.2c-0.8,0-1.5,0.7-1.5,1.5v19.7c0,0.8-0.7,1.5-1.5,1.5h-14
				c-0.8,0-1.5-0.7-1.5-1.5v-29.8c0-0.8,0.7-1.5,1.5-1.5h35.2c0.8,0,1.5-0.7,1.5-1.5v-0.3c0-0.8-0.7-1.5-1.5-1.5h-35.2
				c-0.8,0-1.5-0.7-1.5-1.5v-7.5c0-0.8,0.7-1.5,1.5-1.5h91.7c0.8,0,1.5,0.7,1.5,1.5v7.5c0,0.8-0.7,1.5-1.5,1.5h-36
				C500.6,151,499.9,151.7,499.9,152.5z M535,228.3c-2.4,2.9-9.1,3.7-12.5,3.7h-74.7c-0.8,0-1.5-0.7-1.5-1.5v-40.1
				c0-0.8,0.7-1.5,1.5-1.5h88.3c0.8,0,1.5,0.7,1.5,1.5V220C537.6,221.7,536,227.2,535,228.3z M481.7,200.5h-17.2
				c-0.8,0-1.5,0.7-1.5,1.5v1.9c0,0.8,0.7,1.5,1.5,1.5h17.2c0.8,0,1.5-0.7,1.5-1.5v-1.9C483.2,201.1,482.6,200.5,481.7,200.5z
				 M481.7,215.7h-17.2c-0.8,0-1.5,0.7-1.5,1.5v1.7c0,0.8,0.7,1.5,1.5,1.5h17.2c0.8,0,1.5-0.7,1.5-1.5v-1.7
				C483.2,216.3,482.6,215.7,481.7,215.7z M464.4,173.1v-4.3c0-0.8,0.7-1.5,1.5-1.5H477c0.8,0,1.5,0.7,1.5,1.5v4.3
				c0,0.8-0.7,1.5-1.5,1.5h-11.1C465.1,174.6,464.4,173.9,464.4,173.1z M464.4,182.9v-4.3c0-0.8,0.7-1.5,1.5-1.5H477
				c0.8,0,1.5,0.7,1.5,1.5v4.3c0,0.8-0.7,1.5-1.5,1.5h-11.1C465.1,184.4,464.4,183.7,464.4,182.9z M518.6,200.5h-16.1
				c-0.8,0-1.5,0.7-1.5,1.5v1.9c0,0.8,0.7,1.5,1.5,1.5h16.1c0.8,0,1.5-0.7,1.5-1.5v-1.9C520.1,201.1,519.4,200.5,518.6,200.5z
				 M518.6,215.7h-16.1c-0.8,0-1.5,0.7-1.5,1.5v1.7c0,0.8,0.7,1.5,1.5,1.5h16.1c0.8,0,1.5-0.7,1.5-1.5v-1.7
				C520.1,216.3,519.4,215.7,518.6,215.7z M503.3,172.7v-3.9c0-0.8,0.7-1.5,1.5-1.5h12.5c0.8,0,1.5,0.7,1.5,1.5v3.9
				c0,0.8-0.7,1.5-1.5,1.5h-12.5C504,174.2,503.3,173.5,503.3,172.7z M503.3,182.5v-3.9c0-0.8,0.7-1.5,1.5-1.5h12.5
				c0.8,0,1.5,0.7,1.5,1.5v3.9c0,0.8-0.7,1.5-1.5,1.5h-12.5C504,184,503.3,183.3,503.3,182.5z"/>
		</g>
	</g>
	<g>
		<g>
			<g>
				<path class="st2" d="M170.9,22.2H204c1.3,0,2.4,1.1,2.4,2.4V40c0,1.3-1.1,2.4-2.4,2.4h-11.8c-1.3,0-2.4-1.1-2.4-2.4v-1.7
					c0-1.3-1.1-2.4-2.4-2.4h-56.9c-1.3,0-2.4,1.1-2.4,2.4v1.4c0,1.3,1.1,2.4,2.4,2.4h8.9c0.2,0,0.5,0.1,0.5,0.3
					c0,0.4-5.8,20.8-6.3,22.6c0,0.4,0.6,0.6,1.4,0.7c1.3,0.1,2.2,1.1,2.2,2.4V109c0,1.3-1.1,2.4-2.4,2.4h-13.1
					c-1.3,0-2.4-1.1-2.4-2.4V75.6c0-1.3-1.1-2.4-2.4-2.4h-3.1c-1.3,0-2.4-1.1-2.4-2.4v-9.7h0.5c3,0.1,4.8-1.9,5.6-4.6
					c0.3-1.1,4.2-13.7,4.2-13.9c0-0.3-0.4-0.3-0.6-0.3h-6.2c-1.3,0-2.4-1.1-2.4-2.4V24.6c0-1.3,1.1-2.4,2.4-2.4h33.2
					c1.3,0,2.4-1.1,2.4-2.4v-1c0-1.3,1.1-2.4,2.4-2.4h13.4c1.3,0,2.4,1.1,2.4,2.4v1C168.5,21.1,169.6,22.2,170.9,22.2z M184.8,57.7
					c-0.4,0-1.2,0.3-1.4,0.7c-0.3,0.6-2.5,5-2.5,5.4c0,0.2,0.2,0.3,0.4,0.3h21.3c1.3,0,2.4,1.1,2.4,2.4v33.8c0,4.3-1.7,7.9-5.9,9.7
					c-0.4,0.2-2,0.7-2.3,0.7h-50.5c-1.3,0-2.4-1.1-2.4-2.4V66.6c0-1.3,1.1-2.4,2.4-2.4h16.2c0.4,0,1.2-0.3,1.4-0.8l2-4.5
					c0.1-0.1,0.2-0.2,0.2-0.4s-0.4-0.2-0.5-0.2h-20.3c-1.3,0-2.4-1.1-2.4-2.4v-7.8c0-1.3,1.1-2.4,2.4-2.4h58.2
					c1.3,0,2.4,1.1,2.4,2.4v7.5c0,1.3-1.1,2.4-2.4,2.4L184.8,57.7z M184.7,77.4h-20.1c-1.3,0-2.4,1.1-2.4,2.4l0,0
					c0,1.3,1.1,2.4,2.4,2.4h20.1c1.3,0,2.4-1.1,2.4-2.4l0,0C187.1,78.5,186,77.4,184.7,77.4z M184.1,98.3c1.3,0,2.1-0.8,2.6-1.9
					c0.7-1.6-0.6-3.3-2.3-3.3h-19.8c-1.3,0-2.4,1.1-2.4,2.4v0.3c0,1.3,1.1,2.4,2.4,2.4H184.1z"/>
			</g>
		</g>
		<g>
			<g>
				<path class="st1" d="M162.2,95.9V79.9v-0.7c0-1,0.6-1.9,1.6-2.2l10.9-3.6l10.9,3.6c1,0.3,1.6,1.2,1.6,2.2v0.7v16.1v0.4
					c0,1.1-0.9,2-2,2h-20.9c-1.1,0-2-0.9-2-2V95.9z"/>
			</g>
		</g>
		<g>
			<g>
				<path class="st2" d="M182.9,90.2h-16.6c-0.3,0-0.6-0.3-0.6-0.6v-4.9c0-0.3,0.3-0.6,0.6-0.6h16.6c0.3,0,0.6,0.3,0.6,0.6v4.9
					C183.6,89.9,183.3,90.2,182.9,90.2z"/>
			</g>
		</g>
	</g>
	<g>
		<g>
			<g>
				<circle class="st3" cx="277.5" cy="110.3" r="3.4"/>
			</g>
		</g>
		<g>
			<g>
				<circle class="st3" cx="289.5" cy="110.3" r="2.5"/>
			</g>
		</g>
		<g>
			<g>
				<circle class="st3" cx="299.8" cy="110.3" r="1.7"/>
			</g>
		</g>
		<g>
			<g>
				<circle class="st3" cx="308.8" cy="110.3" r="1"/>
			</g>
		</g>
	</g>
	<g>
		<g>
			<polygon class="st4" points="530.4,114.6 514,145.7 529.8,142.4 534.1,148.4 545.6,131 528.4,135.6 			"/>
		</g>
	</g>
	<g>
		<g>
			<polygon class="st4" points="514.3,126.9 505.9,142.9 514,141.2 507.7,148.4 522.1,135.3 513.3,137.7 			"/>
		</g>
	</g>
	<g>
		<g>
			<path class="st4" d="M427.8,78.5l13.9,20.4c0.8,1.1,2.5,1.1,3.2-0.1l20.1-33.5c1.1-1.9-1.3-3.9-2.9-2.4l-17.5,15.6
				c-0.5,0.4-1.1,0.6-1.7,0.4l-13.1-3.3C428.2,75.1,426.8,77,427.8,78.5z"/>
		</g>
	</g>
	<g>
		<g>
			<g>
				<path class="st2" d="M22.2,208.2l-2.7-1.2c-0.2-0.1-0.5-0.1-0.7,0.1l-2.5,1.6c-0.5,0.3-1.1-0.1-1.1-0.7l0.3-3
					c0-0.2-0.1-0.5-0.2-0.6l-2.3-1.9c-0.4-0.4-0.3-1.1,0.3-1.2l2.9-0.7c0.2-0.1,0.4-0.2,0.5-0.4l1.1-2.8c0.2-0.5,1-0.6,1.3-0.1
					l1.5,2.6c0.1,0.2,0.3,0.3,0.6,0.3l3,0.2c0.6,0,0.9,0.7,0.5,1.2l-2,2.2c-0.2,0.2-0.2,0.4-0.2,0.6l0.7,2.9
					C23.3,208,22.8,208.4,22.2,208.2z"/>
			</g>
		</g>
	</g>
	<g>
		<g>
			<g>
				<path class="st2" d="M16.3,221.1l-3,0.3c-0.2,0-0.4,0.2-0.6,0.4l-1.5,2.6c-0.3,0.5-1,0.5-1.3-0.1l-1.2-2.7
					c-0.1-0.2-0.3-0.4-0.5-0.4l-2.9-0.6c-0.6-0.1-0.8-0.8-0.3-1.2l2.3-2c0.2-0.2,0.3-0.4,0.2-0.6l-0.3-3c-0.1-0.6,0.6-1,1.1-0.7
					l2.6,1.5c0.2,0.1,0.4,0.1,0.7,0l2.7-1.2c0.5-0.2,1.1,0.2,1,0.8l-0.7,2.9c-0.1,0.2,0,0.5,0.2,0.6l2,2.2
					C17.2,220.3,16.9,221,16.3,221.1z"/>
			</g>
		</g>
	</g>
</g>
</svg>
