<svg xmlns="http://www.w3.org/2000/svg" xmlns:xlink="http://www.w3.org/1999/xlink" viewBox="0 0 100 108.89"><defs><style>.cls-1,.cls-9{fill:none;}.cls-2{isolation:isolate;}.cls-3{mix-blend-mode:multiply;opacity:0.1;}.cls-4{clip-path:url(#clip-path);}.cls-5{clip-path:url(#clip-path-2);}.cls-6{fill:#33302e;}.cls-7{font-size:9.77px;fill:#eb625b;font-family:NotoSansCJKtc-Bold-B5pc-H, Noto Sans CJK TC;letter-spacing:0.05em;}.cls-11,.cls-8{fill:#323c49;}.cls-9{stroke:#323c49;stroke-miterlimit:10;stroke-width:1.27px;}.cls-10{fill:#fff;}.cls-11{font-size:19.98px;font-family:NotoSansCJKtc-Regular-B5pc-H, Noto Sans CJK TC;letter-spacing:0.05em;}</style><clipPath id="clip-path"><rect class="cls-1" x="-752.3" y="152.72" width="1056.79" height="751.11" rx="35.28"/></clipPath><clipPath id="clip-path-2"><rect class="cls-1" x="-151.98" y="145.52" width="303.03" height="252.53"/></clipPath></defs><g class="cls-2"><g id="圖層_1" data-name="圖層 1"><g class="cls-3"><g class="cls-4"><g class="cls-5"><path class="cls-6" d="M135,108.82l-.15-.24a3,3,0,0,0-.57-.75.92.92,0,0,0-.44-.2c0-.14-.07-.28-.12-.44a11.61,11.61,0,0,0-1.27-2.34l-.15-.24a3.26,3.26,0,0,0-.56-.75,1.32,1.32,0,0,0-1.52.09l-.14.08-.21-.37c-1.22-2.15-2.39-4.17-3.15-5.22a.39.39,0,0,0-.17-.25l0,0a3.07,3.07,0,0,0-.3-.35,58.09,58.09,0,0,0-7.36-4.7c-3.5-2.05-8.15-4.66-12.43-7-1.34-.73-4.5-2.36-4.51-2.36-2.85-1.36-4.67-.09-4.73-.05L57.45,108c-.18.12-4.45,2.9-3.85,6.63h0L51,140.48c-2.81,2.91-14.35,19.57-14.84,20.29a.36.36,0,0,0-.07.17,6,6,0,0,0,.41,3.43c.45,1.07,2.82,4.78,5.35,8.68a1.45,1.45,0,0,0-.34.62c-.18.8.39,1.69,1.75,3.86l.09.14c.66,1,1.89,3,4.32,1.52l.19-.12,8.09-4.83h0a.4.4,0,0,0,.18-.26.37.37,0,0,0,0-.31l-.62-1L58,171.17a.33.33,0,0,0,.19-.28.4.4,0,0,0-.07-.33,11.67,11.67,0,0,1-.68-1l-.09-.18,1-.63A9.1,9.1,0,0,0,74,159.42l1.68-1a1.63,1.63,0,0,1,.11.17,11.55,11.55,0,0,1,.55,1.06.43.43,0,0,0,.25.23.44.44,0,0,0,.34,0l36.69-22h0a.51.51,0,0,0,.2-.28.44.44,0,0,0-.08-.33,8.59,8.59,0,0,1-.67-1,1.62,1.62,0,0,1-.1-.18l1.19-.71a9.11,9.11,0,0,0,15.52-9.27l1.08-.65a3.32,3.32,0,0,0,1.45,1.33,3.93,3.93,0,0,0,3.7-.65c.37-.24.78-.48,1.19-.71l.86-.51a11.65,11.65,0,0,0,1.73-1.21c2.13-1.92,1.11-3.59.12-5.21-.23-.39-.47-.78-.69-1.21-.33-.63-1.83-3.4-3.11-4.21.4-.36.62-.94.28-1.95A11.5,11.5,0,0,0,135,108.82Zm-4.38-4.15c.4-.22.52-.23.58-.18a2.79,2.79,0,0,1,.4.55,2.94,2.94,0,0,0,.17.26,11.49,11.49,0,0,1,1.17,2.16,2.66,2.66,0,0,1,.09.32l-.27.13c-.13.08-.22.15-.33.23l-1.94-3.4ZM55,129.68c-1,.74-.93,2.36,0,3.62l2.15,2.75c-1.43,1-4,2.82-5.34,3.75l2.53-25.06L57,113.11a4.72,4.72,0,0,1,0,.49l.52,16.14A2.22,2.22,0,0,0,55,129.68Zm-17.8,34.37a5.12,5.12,0,0,1-.38-2.77,1,1,0,0,1,.86,0c1.78.62,3.21,3.32,3.56,5a2,2,0,0,1-.85,2.39l-.26.14-.07,0C38.78,166.77,37.53,164.73,37.23,164.05ZM41,170.17a.17.17,0,0,1,.06-.06,1.23,1.23,0,0,1,1.8.38,2,2,0,0,1,.43,1.57l-.72.44-.05,0Zm6.45,8.2c-1.73,1.17-2.49.26-3.37-1.14l-.1-.15c-1.12-1.78-1.74-2.76-1.63-3.23,0-.2.24-.39.66-.66l.87-.52h0l7.7-4.62,3.61,5.71Zm20.75-11a4.26,4.26,0,1,1,1.47-5.85A4.25,4.25,0,0,1,68.15,167.42Zm5.39-8.7a9.1,9.1,0,0,0-15.6,9.33l-1,.61a10.75,10.75,0,0,1,12.34-14.85,10.35,10.35,0,0,1,5.93,3.92Zm3.33.18c-.13-.26-.26-.5-.4-.73a5.52,5.52,0,0,0-.32-.47.07.07,0,0,0,0,0l-.06-.06A11.14,11.14,0,0,0,69.46,153a11.55,11.55,0,0,0-8.7,1.33l0,0a11.45,11.45,0,0,0-4.36,15,.11.11,0,0,0,0,.08l0,0c.09.17.17.34.27.5s.29.47.45.7L55,172l-3-4.72a.39.39,0,0,0-.55-.13s-4.81,2.88-7.37,4.43a2.84,2.84,0,0,0-.64-1.59,2,2,0,0,0-2.28-.82,2.86,2.86,0,0,0,.92-3c-.38-1.82-1.94-4.88-4.1-5.63a2.34,2.34,0,0,0-.56-.12c2.4-3.45,11.21-16.05,13.88-19,.06.13.12.28.2.47a7.65,7.65,0,0,1,.33,1l0,.12a1,1,0,0,0,0,.15v.27a4.27,4.27,0,0,1-.27.51c-.45.7-1,1.49-1.59,2.32l-7.39,10.34L40.22,160a.4.4,0,0,0,.1.57.41.41,0,0,0,.45,0,.34.34,0,0,0,.12-.12l6.79-9.56,3-4.25c.59-.84,1.15-1.63,1.6-2.36a3.5,3.5,0,0,0,.4-.76.61.61,0,0,0,0-.14l0-.39c0-.08,0-.16-.05-.24l0-.12a10.47,10.47,0,0,0-.37-1.15q-.21-.51-.33-.75c1-.7,4.2-3,5.78-4.06l1,1.29a2.68,2.68,0,0,0,3.34,1l6.66,11.13a.4.4,0,0,0,.37.2c5.39-.31,8.22,5.49,8.25,5.55a.4.4,0,0,0,.25.21.39.39,0,0,0,.33,0L102,141.68a.46.46,0,0,0,.3-.05h0a.36.36,0,0,0,.17-.23l8-4.8h0a.41.41,0,0,0,.16-.53c-1.82-3.78-2.09-7.22-.8-10.22,2.32-5.42,9-7.65,9.08-7.67a.4.4,0,0,0,.26-.25.41.41,0,0,0,0-.36l-7.16-11a.39.39,0,0,0-.57-.12.4.4,0,0,0-.12.56l6.87,10.58c-1.66.64-7,3-9.08,8-1.34,3.13-1.12,6.69.66,10.56l-7.6,4.53L79.67,102.27a.42.42,0,0,0-.57-.14.39.39,0,0,0-.14.56L101.51,141,77.88,155.13c-.76-1.37-3.59-5.76-8.57-5.63l-6.65-11.11a2.89,2.89,0,0,0-.48-3.09l-.46-.6a1.08,1.08,0,0,0,.43-.13l.13-.08.14-.09,23.94-14.62a2,2,0,0,0,1-.94h0a1.07,1.07,0,0,0,.06-.27,1.6,1.6,0,0,0-.31-.89c-.09-.15-.19-.3-.29-.45s-.16-.25-.23-.38l-8.8-14.74-.12-.2c-.26-.48-.66-1.19-1.53-1.06a3.85,3.85,0,0,0-1.51.72l-.38.23-13.28,8-.29.15c-.46.24-1.1.58-1.18,1.29a4.3,4.3,0,0,0,0,.95l0,.35,1.35,20.9a1.11,1.11,0,0,0,0,.17l-2.38-3-.14-.16L58,119l-.17-5.35c0-.44,0-1.09-.44-1.32a.68.68,0,0,0-.74.07l-2.31,1.45c.06-2.89,3.5-5.13,3.53-5.15L97.64,84.39s1.53-1,3.91.1c0,0,3.14,1.63,4.47,2.35,4.29,2.34,8.93,5,12.44,7,5.11,3,6.73,4.13,7.18,4.57l.27.31s0,0,0,0l0,0c.73,1,1.92,3,3.19,5.26l6.6,11.53c-1,.57-1.26.7-3.74,2.12l-.41.23c-1.29.71-3.15,1.76-3.07,3.26a11.56,11.56,0,0,0-12.14-.15.05.05,0,0,0,0,0,11.46,11.46,0,0,0-4.36,15s0,.06,0,.08l0,0c.08.17.16.34.26.51s.29.46.46.69Zm9.23-41.23.27.43,0,.07a1,1,0,0,1,.15.34.07.07,0,0,1,0,0c-.07.19-.39.39-.61.52L73.4,126.73l-11.42,7-.22.13a2.5,2.5,0,0,1,0-.4l-1.35-20.91c0-.12,0-.25,0-.38a5.1,5.1,0,0,1,0-.77c0-.26.31-.42.75-.65l.32-.18,13.29-8,.4-.26a3.12,3.12,0,0,1,1.19-.58c.26,0,.4.12.69.64l8.92,15C85.93,117.41,86,117.54,86.1,117.67Zm37.4,15.8a4.27,4.27,0,1,1,1.47-5.85A4.27,4.27,0,0,1,123.5,133.47ZM116.63,122a9.13,9.13,0,0,0-3.14,12.51l.17.24-1.11.66a10.67,10.67,0,0,1,4.23-13.6l0,0a10.71,10.71,0,0,1,12.09.72,15.51,15.51,0,0,0,1.34,2.28l0,0-1,.58c-.05-.08-.09-.18-.14-.26A9.13,9.13,0,0,0,116.63,122Zm21.73-4.28c.23.44.48.86.72,1.26,1,1.63,1.65,2.7,0,4.16a15.08,15.08,0,0,1-2.45,1.62c-.42.25-.84.49-1.23.74a3.15,3.15,0,0,1-3,.57c-.47-.17-.88-.75-1.45-1.62h0l-.08-.11a12.25,12.25,0,0,1-1.55-2.89c-.33-1.11,1.44-2.1,2.63-2.75l.42-.24,4.06-2.3h0a.42.42,0,0,0,.15-.57l-.93-1.63A15,15,0,0,1,138.36,117.69Zm-2.87-6.26c.28.81.07,1.07-.36,1.23l-.08,0-2.21-3.85c.08,0,.18-.13.32-.21.4-.22.52-.23.58-.17a2.46,2.46,0,0,1,.41.55l.16.26A10.94,10.94,0,0,1,135.49,111.43Z"/></g></g></g><text class="cls-7" transform="translate(8.85 104.92) scale(1.06 1)">請用點擊方式移動</text><circle class="cls-8" cx="46.22" cy="11.63" r="6.8"/><circle class="cls-9" cx="46.36" cy="11.44" r="9.84"/><path class="cls-10" d="M46.41,58.87,34.26,41.08a3.65,3.65,0,0,1,.91-5h0a3.64,3.64,0,0,1,4.86.61L42.86,40V15.63A3.15,3.15,0,0,1,46,12.49h0a3.14,3.14,0,0,1,3.14,3.14v14.2l.43-1.63a4,4,0,0,1,.29-.82,2.85,2.85,0,0,1,2.49-1.61h.45a2.88,2.88,0,0,1,2.29,1.45h0a5.2,5.2,0,0,1,.68,2.52c0,.73,0,1.84,0,1.84l.12-.43a2.94,2.94,0,0,1,1-1.49,3,3,0,0,1,1.67-.6h.22a2.89,2.89,0,0,1,2.66,1.49l0,0A2.8,2.8,0,0,1,61.83,32v1.65l.42-.51a3.17,3.17,0,0,1,1.47-1.06,3.38,3.38,0,0,1,1-.15h.06a3.26,3.26,0,0,1,3,2.29v0a11.35,11.35,0,0,1,.51,3.47,55,55,0,0,1-4.52,21.12Z"/><path class="cls-8" d="M68.88,34v0a4.3,4.3,0,0,0-4-3h-.06a4.14,4.14,0,0,0-1.39.2,4.53,4.53,0,0,0-.57.23,4.16,4.16,0,0,0-.46-1.29,3.94,3.94,0,0,0-3.62-2h-.22a3.85,3.85,0,0,0-1.84.53A6.27,6.27,0,0,0,56,26.71a3.92,3.92,0,0,0-3.13-2l-.3,0h-.31a4.27,4.27,0,0,0-2.08.71v-9.8a4.19,4.19,0,1,0-8.38,0V37.12l-1-1.15a4.69,4.69,0,0,0-7.43,5.7L45.85,59.92H64.57l.26-.65a55.79,55.79,0,0,0,4.6-21.51A11.92,11.92,0,0,0,68.88,34ZM63.16,57.82H47L35.13,40.48a2.59,2.59,0,0,1,4.11-3.14l4.67,5.45V15.63a2.1,2.1,0,0,1,4.19,0V37.55h2.44v-9l0-.1a3.41,3.41,0,0,1,.21-.6,1.83,1.83,0,0,1,1.64-1.05h.3a1.8,1.8,0,0,1,1.45.92,4.17,4.17,0,0,1,.54,2c0,.73,0,1.83,0,1.83v6.25H57.2v-7a1.65,1.65,0,0,1,.33-.36,2,2,0,0,1,1.08-.39h.22a1.88,1.88,0,0,1,1.72,1,1.85,1.85,0,0,1,.24.91c0,.46,0,1.67,0,1.67v4.7h2.48V33.59A2,2,0,0,1,64,33.1a2.14,2.14,0,0,1,.71-.1h.06a2.21,2.21,0,0,1,2.06,1.55v.05a10.06,10.06,0,0,1,.46,3.13A53.43,53.43,0,0,1,63.16,57.82Z"/><text class="cls-11" transform="translate(-3.87 90.69) scale(1.06 1)">﹤手機版﹥</text><path class="cls-8" d="M59,6.75l7.15-5.36c.61-.46,0-1.5-.6-1L58.42,5.72c-.61.45,0,1.5.6,1Z"/><path class="cls-8" d="M60.07,11,69,10.63c.77,0,.78-1.24,0-1.2l-8.93.37c-.77,0-.77,1.23,0,1.2Z"/><path class="cls-8" d="M62.37,7.93c1.86-.7,3.8-1.17,5.67-1.87.71-.27.4-1.43-.32-1.16-1.87.7-3.81,1.17-5.67,1.87-.72.27-.41,1.43.32,1.16Z"/></g></g></svg>