<svg xmlns="http://www.w3.org/2000/svg" xmlns:xlink="http://www.w3.org/1999/xlink" viewBox="0 0 100 93"><defs><style>.cls-1,.cls-7{fill:none;}.cls-2{isolation:isolate;}.cls-3{mix-blend-mode:multiply;opacity:0.1;}.cls-4{clip-path:url(#clip-path);}.cls-5{clip-path:url(#clip-path-2);}.cls-6{fill:#33302e;}.cls-7{stroke:#323c49;stroke-linecap:round;stroke-linejoin:round;stroke-width:4.32px;}.cls-8{fill:#2e3a49;}.cls-9{fill:#fff;}.cls-10{font-size:20.16px;font-family:NotoSansCJKtc-Regular-B5pc-H, Noto Sans CJK TC;letter-spacing:0.05em;}.cls-10,.cls-11{fill:#323c49;}</style><clipPath id="clip-path"><rect class="cls-1" x="-863.55" y="152.72" width="1056.79" height="751.11" rx="35.28"/></clipPath><clipPath id="clip-path-2"><rect class="cls-1" x="-263.23" y="145.52" width="303.03" height="252.53"/></clipPath></defs><g class="cls-2"><g id="圖層_1" data-name="圖層 1"><g class="cls-3"><g class="cls-4"><g class="cls-5"><path class="cls-6" d="M23.75,108.82l-.15-.24a3,3,0,0,0-.57-.75.92.92,0,0,0-.44-.2c0-.14-.07-.28-.12-.44a11.61,11.61,0,0,0-1.27-2.34l-.15-.24a3.26,3.26,0,0,0-.56-.75A1.32,1.32,0,0,0,19,104l-.13.08-.22-.37c-1.22-2.15-2.39-4.17-3.15-5.22a.39.39,0,0,0-.17-.25l0,0a3.07,3.07,0,0,0-.3-.35,58.09,58.09,0,0,0-7.36-4.7c-3.49-2.05-8.14-4.66-12.43-7-1.34-.73-4.5-2.36-4.51-2.36-2.84-1.36-4.67-.09-4.72-.05L-53.8,108c-.18.12-4.45,2.9-3.85,6.63h0l-2.61,25.89c-2.82,2.91-14.36,19.57-14.85,20.29a.36.36,0,0,0-.07.17,6,6,0,0,0,.41,3.43c.46,1.07,2.82,4.78,5.35,8.68a1.34,1.34,0,0,0-.33.62c-.19.8.38,1.69,1.75,3.86l.09.14c.65,1,1.88,3,4.32,1.52l.18-.12,8.09-4.83h0a.46.46,0,0,0,.19-.26.42.42,0,0,0-.06-.31l-.62-1,2.52-1.51a.35.35,0,0,0,.2-.28.44.44,0,0,0-.08-.33,11.67,11.67,0,0,1-.68-1l-.09-.18,1-.63a9.11,9.11,0,0,0,12.28,2.83,9.11,9.11,0,0,0,3.33-12.17l1.68-1a1.63,1.63,0,0,1,.11.17,11.53,11.53,0,0,1,.56,1.06.38.38,0,0,0,.25.23.42.42,0,0,0,.33,0l36.7-22h0a.49.49,0,0,0,.19-.28.44.44,0,0,0-.08-.33,8.59,8.59,0,0,1-.67-1,1.62,1.62,0,0,1-.1-.18l1.19-.71a9.1,9.1,0,0,0,15.52-9.27l1.09-.65a3.25,3.25,0,0,0,1.44,1.33,3.93,3.93,0,0,0,3.7-.65c.37-.24.78-.48,1.2-.71l.86-.51a12.1,12.1,0,0,0,1.72-1.21c2.13-1.92,1.11-3.59.13-5.21-.23-.39-.48-.78-.7-1.21-.32-.63-1.83-3.4-3.11-4.21a1.65,1.65,0,0,0,.28-1.95A11.5,11.5,0,0,0,23.75,108.82Zm-4.38-4.15c.4-.22.52-.23.58-.18a2.79,2.79,0,0,1,.4.55l.17.26a11,11,0,0,1,1.17,2.16,2.66,2.66,0,0,1,.09.32,2.09,2.09,0,0,0-.26.13,2.35,2.35,0,0,0-.33.23l-2-3.4Zm-75.59,25c-1,.74-.93,2.36,0,3.62l2.15,2.75c-1.43,1-4,2.82-5.34,3.75l2.54-25.06,2.58-1.63a4.72,4.72,0,0,1,0,.49l.53,16.14A2.23,2.23,0,0,0-56.22,129.68ZM-74,164.05a5.12,5.12,0,0,1-.39-2.77,1,1,0,0,1,.87,0c1.77.62,3.2,3.32,3.56,5a2,2,0,0,1-.86,2.39l-.26.14-.06,0C-72.47,166.77-73.72,164.73-74,164.05Zm3.71,6.12.06-.06a1.23,1.23,0,0,1,1.8.38,2,2,0,0,1,.44,1.57l-.73.44,0,0Zm6.46,8.2c-1.74,1.17-2.5.26-3.38-1.14l-.09-.15c-1.13-1.78-1.75-2.76-1.64-3.23,0-.2.24-.39.66-.66l.87-.52h0l7.7-4.62,3.61,5.71Zm20.74-11A4.25,4.25,0,0,1-48.94,166a4.26,4.26,0,0,1,1.47-5.85,4.25,4.25,0,0,1,5.84,1.47A4.26,4.26,0,0,1-43.1,167.42Zm5.39-8.7A9.11,9.11,0,0,0-50,155.93a9.1,9.1,0,0,0-3.34,12.12l-1,.61A10.66,10.66,0,0,1-50.06,155,10.69,10.69,0,0,1-42,153.81a10.32,10.32,0,0,1,5.93,3.92Zm3.33.18c-.13-.26-.26-.5-.4-.73a5.52,5.52,0,0,0-.32-.47.07.07,0,0,0,0,0l-.06-.06A11.11,11.11,0,0,0-41.79,153a11.56,11.56,0,0,0-8.7,1.33l0,0a11.46,11.46,0,0,0-4.36,15s0,.06,0,.08l0,0c.09.17.17.34.27.5s.29.47.45.7L-56.25,172l-3-4.72a.41.41,0,0,0-.56-.13l-7.37,4.43A2.9,2.9,0,0,0-67.8,170a2,2,0,0,0-2.29-.82,2.86,2.86,0,0,0,.92-3c-.37-1.82-1.94-4.88-4.1-5.63a2.34,2.34,0,0,0-.56-.12c2.4-3.45,11.21-16.05,13.88-19,.06.13.13.28.2.47a6.43,6.43,0,0,1,.33,1l0,.12a1,1,0,0,0,0,.15v.27a4.27,4.27,0,0,1-.27.51c-.44.7-1,1.49-1.58,2.32l-7.39,10.34L-71,160a.41.41,0,0,0,.1.57.41.41,0,0,0,.45,0,.49.49,0,0,0,.13-.12l6.78-9.56,3-4.25c.59-.84,1.15-1.63,1.61-2.36a3.92,3.92,0,0,0,.39-.76.61.61,0,0,0,0-.14l0-.39a2,2,0,0,0-.05-.24l0-.12a10.47,10.47,0,0,0-.37-1.15c-.14-.34-.25-.59-.32-.75,1-.7,4.19-3,5.77-4.06l1,1.29a2.68,2.68,0,0,0,3.34,1l6.66,11.13a.4.4,0,0,0,.37.2c5.39-.31,8.22,5.49,8.25,5.55a.4.4,0,0,0,.25.21.39.39,0,0,0,.33,0l24.11-14.38a.45.45,0,0,0,.3-.05h0a.41.41,0,0,0,.18-.23l8-4.8h0a.42.42,0,0,0,.16-.53c-1.82-3.78-2.1-7.22-.81-10.22,2.32-5.42,9-7.65,9.08-7.67a.4.4,0,0,0,.26-.25.38.38,0,0,0,0-.36l-7.16-11a.39.39,0,0,0-.57-.12.4.4,0,0,0-.12.56L7,117.58c-1.67.64-7,3-9.09,8-1.34,3.13-1.12,6.69.66,10.56L-9,140.62l-22.55-38.35a.41.41,0,0,0-.56-.14.39.39,0,0,0-.15.56L-9.74,141l-23.63,14.09c-.76-1.37-3.59-5.76-8.57-5.63l-6.65-11.11a2.9,2.9,0,0,0-.47-3.09l-.47-.6a1.08,1.08,0,0,0,.43-.13l.13-.08.15-.09,23.93-14.62a2,2,0,0,0,1-.94h0a1.07,1.07,0,0,0,.06-.27,1.6,1.6,0,0,0-.31-.89c-.09-.15-.19-.3-.29-.45s-.16-.25-.23-.38l-8.8-14.74-.12-.2c-.26-.48-.65-1.19-1.52-1.06a3.89,3.89,0,0,0-1.52.72l-.37.23-13.29,8-.28.15c-.47.24-1.11.58-1.18,1.29a4.3,4.3,0,0,0,0,.95l0,.35,1.35,20.9s0,.11,0,.17l-2.38-3a1.07,1.07,0,0,0-.14-.16l-.37-11.5-.17-5.35c0-.44,0-1.09-.44-1.32a.68.68,0,0,0-.74.07l-2.3,1.45c.05-2.89,3.49-5.13,3.52-5.15l39.75-24.26s1.53-1,3.91.1c0,0,3.14,1.63,4.47,2.35,4.29,2.34,8.93,5,12.45,7,5.1,3,6.72,4.13,7.17,4.57.08.08.17.19.27.31l0,0,0,0c.73,1,1.93,3,3.19,5.26l6.6,11.53c-1,.57-1.26.7-3.74,2.12l-.41.23c-1.29.71-3.14,1.76-3.07,3.26a11.56,11.56,0,0,0-12.14-.15l0,0a11.47,11.47,0,0,0-4.36,15l0,.08,0,0c.08.17.16.34.26.51s.3.46.46.69Zm9.23-41.23.27.43,0,.07a1.25,1.25,0,0,1,.16.34.08.08,0,0,1,0,0c-.07.19-.39.39-.61.52l-12.53,7.65-11.42,7-.23.13a2.78,2.78,0,0,1,0-.4l-1.36-20.91c0-.12,0-.25,0-.38a5.1,5.1,0,0,1,0-.77c0-.26.32-.42.75-.65l.33-.18,13.28-8,.4-.26a3.12,3.12,0,0,1,1.19-.58c.26,0,.4.12.69.64l8.92,15C-25.32,117.41-25.23,117.54-25.15,117.67Zm37.4,15.8a4.27,4.27,0,1,1,1.47-5.85A4.27,4.27,0,0,1,12.25,133.47ZM5.38,122a9.13,9.13,0,0,0-3.14,12.51l.17.24-1.1.66a10.66,10.66,0,0,1,4.22-13.6l0,0a10.71,10.71,0,0,1,12.09.72A15.51,15.51,0,0,0,19,124.76l0,0-1,.58c-.05-.08-.09-.18-.14-.26A9.13,9.13,0,0,0,5.38,122Zm21.73-4.28c.23.44.48.86.73,1.26,1,1.63,1.64,2.7,0,4.16a16,16,0,0,1-2.45,1.62c-.43.25-.85.49-1.24.74a3.15,3.15,0,0,1-3,.57c-.47-.17-.88-.75-1.45-1.62h0l-.07-.11a11.93,11.93,0,0,1-1.56-2.89c-.33-1.11,1.45-2.1,2.63-2.75l.42-.24,4.06-2.3h0a.42.42,0,0,0,.15-.57l-.93-1.63A14.73,14.73,0,0,1,27.11,117.69Zm-2.87-6.26c.28.81.07,1.07-.36,1.23l-.08,0-2.2-3.85a2.53,2.53,0,0,1,.32-.21c.39-.22.51-.23.58-.17a2.79,2.79,0,0,1,.4.55l.16.26A10.45,10.45,0,0,1,24.24,111.43Z"/></g></g></g><path class="cls-7" d="M51.2,31.83a3.47,3.47,0,0,1-2.68-3.37V26.38A3.47,3.47,0,0,1,51.2,23V18.87h-.74a11.94,11.94,0,0,0-11.91,11.9v4.61H51.2Z"/><path class="cls-7" d="M55.44,26.38v2.08a3.47,3.47,0,0,1-2.68,3.37v3.55H65.41V30.77A11.94,11.94,0,0,0,53.5,18.87h-.74V23A3.47,3.47,0,0,1,55.44,26.38Z"/><path class="cls-7" d="M38.55,45.93a11.94,11.94,0,0,0,11.91,11.9h3a11.94,11.94,0,0,0,11.91-11.9v-9H38.55Z"/><path class="cls-7" d="M52.76,24.32a2.21,2.21,0,0,0-.78-.15h0a2.25,2.25,0,0,0-.78.15,2.22,2.22,0,0,0-1.43,2.06v2.08a2.22,2.22,0,0,0,1.43,2.06,2.25,2.25,0,0,0,.78.15h0a2.24,2.24,0,0,0,2.21-2.21V26.38A2.22,2.22,0,0,0,52.76,24.32Z"/><path class="cls-7" d="M53,17.58H51V16.06a5.42,5.42,0,0,1,5.41-5.42,3.39,3.39,0,0,0,3.38-3.38V5.63h2V7.26a5.42,5.42,0,0,1-5.41,5.41A3.39,3.39,0,0,0,53,16.06Z"/><path class="cls-8" d="M51.2,31.83a3.47,3.47,0,0,1-2.68-3.37V26.38A3.47,3.47,0,0,1,51.2,23V18.87h-.74a11.94,11.94,0,0,0-11.91,11.9v4.61H51.2Z"/><path class="cls-8" d="M55.44,26.38v2.08a3.47,3.47,0,0,1-2.68,3.37v3.55H65.41V30.77A11.94,11.94,0,0,0,53.5,18.87h-.74V23A3.47,3.47,0,0,1,55.44,26.38Z"/><path class="cls-8" d="M38.55,45.93a11.94,11.94,0,0,0,11.91,11.9h3a11.94,11.94,0,0,0,11.91-11.9v-9H38.55Z"/><path class="cls-8" d="M52.76,24.32a2.21,2.21,0,0,0-.78-.15h0a2.25,2.25,0,0,0-.78.15,2.22,2.22,0,0,0-1.43,2.06v2.08a2.22,2.22,0,0,0,1.43,2.06,2.25,2.25,0,0,0,.78.15h0a2.24,2.24,0,0,0,2.21-2.21V26.38A2.22,2.22,0,0,0,52.76,24.32Z"/><path class="cls-8" d="M53,17.58H51V16.06a5.42,5.42,0,0,1,5.41-5.42,3.39,3.39,0,0,0,3.38-3.38V5.63h2V7.26a5.42,5.42,0,0,1-5.41,5.41A3.39,3.39,0,0,0,53,16.06Z"/><path class="cls-9" d="M51.2,31.83a3.47,3.47,0,0,1-2.68-3.37V26.38A3.47,3.47,0,0,1,51.2,23V18.87h-.74a11.94,11.94,0,0,0-11.91,11.9v4.61H51.2Z"/><path class="cls-9" d="M55.44,26.38v2.08a3.47,3.47,0,0,1-2.68,3.37v3.55H65.41V30.77A11.94,11.94,0,0,0,53.5,18.87h-.74V23A3.47,3.47,0,0,1,55.44,26.38Z"/><path class="cls-9" d="M38.55,45.93a11.94,11.94,0,0,0,11.91,11.9h3a11.94,11.94,0,0,0,11.91-11.9v-9H38.55Z"/><path class="cls-9" d="M52.76,24.32a2.21,2.21,0,0,0-.78-.15h0a2.25,2.25,0,0,0-.78.15,2.22,2.22,0,0,0-1.43,2.06v2.08a2.22,2.22,0,0,0,1.43,2.06,2.25,2.25,0,0,0,.78.15h0a2.24,2.24,0,0,0,2.21-2.21V26.38A2.22,2.22,0,0,0,52.76,24.32Z"/><path class="cls-9" d="M53,17.58H51V16.06a5.42,5.42,0,0,1,5.41-5.42,3.39,3.39,0,0,0,3.38-3.38V5.63h2V7.26a5.42,5.42,0,0,1-5.41,5.41A3.39,3.39,0,0,0,53,16.06Z"/><text class="cls-10" transform="translate(-3.95 90.98) scale(1.06 1)">﹤電腦版﹥</text><path class="cls-11" d="M76.38,34.09h5.38a.23.23,0,0,1,.23.23v1.76a.23.23,0,0,0,.37.18L88,31.91a.22.22,0,0,0,0-.36L82.36,27.2a.23.23,0,0,0-.37.18v1.77a.23.23,0,0,1-.23.23H76.38a.22.22,0,0,0-.23.22v4.27A.22.22,0,0,0,76.38,34.09Z"/><path class="cls-11" d="M27.59,29.38H22.2a.23.23,0,0,1-.23-.23V27.38a.23.23,0,0,0-.36-.18l-5.67,4.35a.22.22,0,0,0,0,.36l5.67,4.35a.22.22,0,0,0,.36-.18V34.32a.23.23,0,0,1,.23-.23h5.39a.22.22,0,0,0,.22-.22V29.6A.22.22,0,0,0,27.59,29.38Z"/></g></g></svg>