<svg id="圖層_2" data-name="圖層 2" xmlns="http://www.w3.org/2000/svg" width="10.664" height="12" viewBox="0 0 10.664 12">
  <g id="Layer_1" data-name="Layer 1">
    <path id="Path_76" data-name="Path 76" d="M9.21,23.928H1.454A1.394,1.394,0,0,1,0,22.61V17.341A.465.465,0,0,1,.484,16.9h9.693a.466.466,0,0,1,.487.441V22.61A1.394,1.394,0,0,1,9.21,23.928ZM.974,17.78V22.61a.465.465,0,0,0,.484.441H9.21a.465.465,0,0,0,.484-.441V17.78Z" transform="translate(0 -11.928)" fill="#d8d8d8"/>
    <path id="Path_77" data-name="Path 77" d="M15.175,25.233a.883.883,0,1,1-.883-.883A.883.883,0,0,1,15.175,25.233Z" transform="translate(-8.965 -17.787)" fill="#d8d8d8"/>
    <path id="Path_78" data-name="Path 78" d="M15.368,28.475a.438.438,0,0,1-.438-.438V26.271a.441.441,0,1,1,.883,0v1.765A.441.441,0,0,1,15.368,28.475Z" transform="translate(-10.038 -18.231)" fill="#d8d8d8"/>
    <path id="Path_79" data-name="Path 79" d="M11.809,5.407a.471.471,0,0,1-.5-.438V4.536c0-2.183-.679-3.654-3.157-3.654S5,2.354,5,4.536v.588a.474.474,0,0,1-.5.441A.474.474,0,0,1,4,5.125V4.536C4,1.874,5.127,0,8.154,0s4.157,1.874,4.157,4.536v.432a.475.475,0,0,1-.5.438Z" transform="translate(-2.823)" fill="#d8d8d8"/>
  </g>
</svg>
