<svg xmlns="http://www.w3.org/2000/svg" viewBox="0 0 120 120"><defs><style>.cls-1{fill:#545454;}.cls-2{fill:none;}</style></defs><g id="圖層_2" data-name="圖層 2"><g id="Group-3"><g id="Path_99" data-name="Path 99"><path class="cls-1" d="M60.42,90.63c-13.89,0-17.56-8.92-17.56-13.63a3.9,3.9,0,0,1,7.8-.06c0,1,.73,5.88,9.76,5.88,7.57,0,8.71-5.52,8.88-7.21.47-4.8-2.68-10.39-9.66-11.8-11.51-2.32-16.7-11.91-15.87-20.2.71-7.09,6.13-14.24,16.65-14.24A13.58,13.58,0,0,1,74.91,41.94c0,.37,0,.72,0,1.05a3.91,3.91,0,0,1-7.81,0,6.06,6.06,0,0,0-6.41-5.84c-7.9,0-9,5.54-9.21,7.23-.48,4.8,2.69,10.39,9.66,11.79C72.7,58.49,77.88,68.1,77.06,76.38,76.35,83.47,70.93,90.63,60.42,90.63ZM50.66,77h0Z"/></g><g id="Path_101" data-name="Path 101"><path class="cls-1" d="M60,101.43a3.9,3.9,0,0,1-3.9-3.9V86.73a3.9,3.9,0,0,1,7.8,0v10.8A3.9,3.9,0,0,1,60,101.43Z"/></g><g id="Path_103" data-name="Path 103"><path class="cls-1" d="M60,37.18a3.89,3.89,0,0,1-3.9-3.9V22.48a3.9,3.9,0,0,1,7.8,0v10.8A3.89,3.89,0,0,1,60,37.18Z"/></g><g id="Path_102" data-name="Path 102"><path class="cls-2" d="M60,120A60,60,0,1,0,0,60,60,60,0,0,0,60,120Z"/><path class="cls-1" d="M60,112.2A52.2,52.2,0,1,0,7.8,60,52.26,52.26,0,0,0,60,112.2m0,7.8a60,60,0,1,1,60-60A60,60,0,0,1,60,120Z"/></g></g></g></svg>