<svg xmlns="http://www.w3.org/2000/svg" viewBox="0 0 120 120"><defs><style>.cls-1{fill:#44957f;}.cls-2{fill:none;}</style></defs><g id="圖層_2" data-name="圖層 2"><g id="Group"><g id="Path_86" data-name="Path 86"><path class="cls-1" d="M84.48,52.83a4,4,0,0,1-4-4V28.46a20.5,20.5,0,1,0-41,0V48.85a4,4,0,1,1-8,0V28.46a28.46,28.46,0,1,1,56.91,0V48.85A4,4,0,0,1,84.48,52.83Z"/></g><g id="Path_87" data-name="Path 87"><path class="cls-2" d="M103.7,31.31l4.83,83.18a5.34,5.34,0,0,1-5.14,5.51H16.9a5.33,5.33,0,0,1-5.43-5.22v-.29L16.3,31.31a5.32,5.32,0,0,1,5.43-4.89H98.28A5.31,5.31,0,0,1,103.7,31.31Z"/><path class="cls-1" d="M24.09,34.37,19.58,112h80.84L95.91,34.37H24.09m-2.36-7.95H98.27a5.32,5.32,0,0,1,5.43,4.88l4.83,83.18A5.33,5.33,0,0,1,103.1,120H16.9a5.34,5.34,0,0,1-5.43-5.52L16.3,31.3A5.33,5.33,0,0,1,21.73,26.42Z"/></g></g></g></svg>