<svg xmlns="http://www.w3.org/2000/svg" viewBox="0 0 120 120"><defs><style>.cls-1{fill:#44957f;}</style></defs><g id="圖層_2" data-name="圖層 2"><g id="Group-1"><g id="Path_88" data-name="Path 88"><path class="cls-1" d="M90.05,24.23A3.68,3.68,0,0,1,87.31,23L75,9.18,62.73,23a3.77,3.77,0,0,1-5.46,0L45,9.18,32.7,23a3.79,3.79,0,0,1-5.48,0L12.2,6.1l5.47-4.86L30,15.06,42.24,1.24a3.77,3.77,0,0,1,5.47,0L60,15.06,72.29,1.24a3.77,3.77,0,0,1,5.47,0L90.05,15.06,102.33,1.24,107.8,6.1,92.79,23A3.69,3.69,0,0,1,90.05,24.23Z"/></g><g id="Path_89" data-name="Path 89"><path class="cls-1" d="M75,120h0a3.69,3.69,0,0,1-2.74-1.24L60,104.94,47.71,118.76a3.77,3.77,0,0,1-5.47,0L30,104.94,17.67,118.76,12.2,113.9l15-16.9a3.79,3.79,0,0,1,5.48,0L45,110.82,57.27,97A3.64,3.64,0,0,1,60,95.77h0A3.68,3.68,0,0,1,62.74,97L75,110.82,87.31,97a3.78,3.78,0,0,1,5.47,0l15,16.9-5.47,4.86L90,104.94,77.75,118.76A3.67,3.67,0,0,1,75,120Z"/></g><g id="Path_90" data-name="Path 90"><path class="cls-1" d="M14.93,120a3.66,3.66,0,0,1-3.66-3.67V3.67a3.67,3.67,0,1,1,7.33,0V116.33A3.67,3.67,0,0,1,14.93,120Z"/></g><g id="Path_91" data-name="Path 91"><path class="cls-1" d="M105.07,120a3.67,3.67,0,0,1-3.67-3.67V3.67a3.67,3.67,0,1,1,7.33,0V116.33A3.66,3.66,0,0,1,105.07,120Z"/></g><g id="Path_92" data-name="Path 92"><path class="cls-1" d="M82.53,44.07H37.47a3.66,3.66,0,1,1,0-7.32H82.53a3.66,3.66,0,1,1,0,7.32Z"/></g><g id="Path_93" data-name="Path 93"><path class="cls-1" d="M82.53,63.66H37.47a3.66,3.66,0,1,1,0-7.32H82.53a3.66,3.66,0,1,1,0,7.32Z"/></g><g id="Path_94" data-name="Path 94"><path class="cls-1" d="M82.53,83.26H37.47a3.67,3.67,0,1,1,0-7.33H82.53a3.67,3.67,0,1,1,0,7.33Z"/></g></g></g></svg>