<svg xmlns="http://www.w3.org/2000/svg" viewBox="0 0 120 120"><defs><style>.cls-1{fill:#44957f;}</style></defs><g id="圖層_2" data-name="圖層 2"><g id="Layer_1" data-name="Layer 1"><path id="Path_55" data-name="Path 55" class="cls-1" d="M60,85.52A25.63,25.63,0,1,1,85.64,59.89h0A25.63,25.63,0,0,1,60,85.52ZM60,43A17.09,17.09,0,1,0,77.1,60.08h0A17.09,17.09,0,0,0,60,43h0Z"/><path id="Path_56" data-name="Path 56" class="cls-1" d="M68,120H51.92a4,4,0,0,1-3.69-3.22L46,105.85a48.76,48.76,0,0,1-8.52-3.46L28.2,108.6a4,4,0,0,1-5-.51L11.93,96.77a4,4,0,0,1-.51-5l6.19-9.3a48.44,48.44,0,0,1-3.43-8.34l-11-2.17A4,4,0,0,1,0,68V51.92a4,4,0,0,1,3.22-3.69l11-2.2a48.64,48.64,0,0,1,3.43-8.52L11.4,28.29a4.05,4.05,0,0,1,.51-5.06l11.32-11.3a4,4,0,0,1,5-.53l9.24,6.21a48,48,0,0,1,8.33-3.43l2.4-11A4,4,0,0,1,52,0H68.08A4,4,0,0,1,72,3.22l2.17,11a48,48,0,0,1,8.33,3.43l9.3-6.21a4,4,0,0,1,5,.51l11.3,11.31a4,4,0,0,1,.51,5.06l-6.25,9.23a47.9,47.9,0,0,1,3.4,8.33l11,2.2A4,4,0,0,1,120,52V68A4,4,0,0,1,116.78,72l-11,2.19a48,48,0,0,1-3.4,8.31l6.21,9.3a4,4,0,0,1-.51,5L96.78,108.1a4,4,0,0,1-5,.51l-9.31-6.19a48.57,48.57,0,0,1-8.34,3.46l-2.17,10.93A4,4,0,0,1,68,120Zm-12.73-8h9.46l2-10.16a4,4,0,0,1,2.89-3,39.26,39.26,0,0,0,10.72-4.47,3.91,3.91,0,0,1,4.28,0L93.28,100,100,93.34,94.2,84.71a3.91,3.91,0,0,1,0-4.28,39.77,39.77,0,0,0,4.44-10.72,4,4,0,0,1,3.13-2.94l10.2-2V55.27l-10.2-2a4,4,0,0,1-3.08-2.92,40.13,40.13,0,0,0-4.44-10.85,3.91,3.91,0,0,1,0-4.28l5.73-8.6-6.53-6.68-8.63,5.74a4,4,0,0,1-4.28,0,39,39,0,0,0-10.72-4.48,4,4,0,0,1-2.94-3.11L64.73,8H55.27l-2,10.13a4,4,0,0,1-3,3.1A39.49,39.49,0,0,0,39.6,25.75a4,4,0,0,1-4.28,0l-8.74-5.84-6.67,6.67,5.74,8.6a4,4,0,0,1,0,4.28,39.87,39.87,0,0,0-4.48,10.72,4.06,4.06,0,0,1-3.11,3L8,55.3v9.45l10.13,2a4,4,0,0,1,3.08,2.89A39.84,39.84,0,0,0,25.72,80.4a4,4,0,0,1,0,4.28l-5.81,8.79,6.67,6.65,8.6-5.74a4,4,0,0,1,4.28,0,39.55,39.55,0,0,0,10.72,4.48,4.05,4.05,0,0,1,3.08,2.94Z"/></g></g></svg>