<svg viewBox="0 0 48 48" xmlns="http://www.w3.org/2000/svg"><path d="m40 10v15a1 1 0 0 1 -1 1h-30a1 1 0 0 1 -1-1v-15h-2v15a3 3 0 0 0 3 3h30a3 3 0 0 0 3-3v-15z" fill="#424242"/><g fill="#42a5f5"><path d="m15 14h2a1 1 0 0 0 0-2h-2a3 3 0 0 0 0 6 1 1 0 0 1 0 2h-2a1 1 0 0 0 0 2h2a3 3 0 0 0 0-6 1 1 0 0 1 0-2z"/><path d="m24 12a4 4 0 0 0 -4 4v2a4 4 0 0 0 6 3.43l.27.28a1 1 0 0 0 1.42 0 1 1 0 0 0 0-1.42l-.26-.29a4 4 0 0 0 .57-2v-2a4 4 0 0 0 -4-4zm1.71 6.29a1 1 0 0 0 -1.42 1.42l.22.22a2.09 2.09 0 0 1 -.51.07 2 2 0 0 1 -2-2v-2a2 2 0 0 1 4 0v2a2.09 2.09 0 0 1 -.07.51z"/><path d="m35 20h-3v-7a1 1 0 0 0 -2 0v8a1 1 0 0 0 1 1h4a1 1 0 0 0 0-2z"/></g><path d="m45 5h-1v2h1a1 1 0 0 1 1 1v23h-44v-23a1 1 0 0 1 1-1h1v-2h-1a3 3 0 0 0 -3 3v30a3 3 0 0 0 3 3h14.85l-.72 5h-2.13a1 1 0 0 0 0 2h18a1 1 0 0 0 0-2h-2.13l-.72-5h14.85a3 3 0 0 0 3-3v-30a3 3 0 0 0 -3-3zm-25.85 41 .72-5h8.26l.72 5zm26.85-8a1 1 0 0 1 -1 1h-42a1 1 0 0 1 -1-1v-5h44z" fill="#424242"/><path d="m23.62 36.92a.94.94 0 0 0 .76 0 1.15 1.15 0 0 0 .33-.21l.12-.15a.76.76 0 0 0 .09-.18.64.64 0 0 0 .08-.18 1.5 1.5 0 0 0 0-.2 1.05 1.05 0 0 0 -.29-.71 1.15 1.15 0 0 0 -.33-.21 1 1 0 0 0 -.76 0 1.15 1.15 0 0 0 -.33.21 1 1 0 0 0 0 1.42 1.15 1.15 0 0 0 .33.21z" fill="#42a5f5"/><path d="m39 0h-30a3 3 0 0 0 -3 3v5h36v-5a3 3 0 0 0 -3-3zm-28 5a1 1 0 1 1 1-1 1 1 0 0 1 -1 1zm4 0a1 1 0 1 1 1-1 1 1 0 0 1 -1 1zm4 0a1 1 0 1 1 1-1 1 1 0 0 1 -1 1zm18 0h-8a1 1 0 0 1 0-2h8a1 1 0 0 1 0 2z" fill="#42a5f5"/></svg>